<?xml version="1.0" encoding="UTF-8" standalone="no"?>
<!DOCTYPE svg PUBLIC "-//W3C//DTD SVG 1.1//EN" "http://www.w3.org/Graphics/SVG/1.1/DTD/svg11.dtd">
<svg width="100%" height="100%" viewBox="0 0 635 618" version="1.1" xmlns="http://www.w3.org/2000/svg" xmlns:xlink="http://www.w3.org/1999/xlink" xml:space="preserve" xmlns:serif="http://www.serif.com/" style="fill-rule:evenodd;clip-rule:evenodd;stroke-linejoin:round;stroke-miterlimit:2;">
    <g transform="matrix(1,0,0,1,-773.768,-686.277)">
        <g transform="matrix(1,0,0,1,217.161,-821.088)">
            <path d="M596.043,1821.7C596.042,1821.24 596.416,1820.87 596.876,1820.87C597.336,1820.87 597.709,1821.24 597.709,1821.7C597.72,1868.51 597.817,1989.03 597.355,2003.96C597.347,2004.23 597.209,2004.48 596.985,2004.63L593.234,2007.13C592.851,2007.38 592.334,2007.28 592.078,2006.9C591.823,2006.52 591.927,2006 592.31,2005.74C592.31,2005.74 595.702,2003.48 595.702,2003.48C596.149,1986.82 596.054,1868.07 596.043,1821.7Z"/>
            <path d="M593.632,1821.3C593.433,1819.99 594.331,1818.77 595.635,1818.57C596.939,1818.37 598.159,1819.27 598.358,1820.58C601.921,1843.96 596.832,2009.11 596.769,2009.86C596.659,2011.18 595.503,2012.16 594.188,2012.05C592.873,2011.94 591.895,2010.78 592.004,2009.47C592.067,2008.71 597.174,1844.54 593.632,1821.3Z"/>
            <path d="M591.261,2009.53C591.15,2008.57 591.631,2007.6 592.538,2007.13C593.71,2006.53 595.154,2006.99 595.759,2008.16L596.099,2009.18L596.099,2010.24C596.007,2010.82 595.73,2011.46 595.241,2012.2C593.621,2014.66 589.403,2020.11 599.297,2044.84C601.999,2051.59 609.333,2059.19 617.694,2066.11C630.423,2076.64 645.61,2085.54 651.482,2087.01C652.762,2087.33 653.541,2088.63 653.221,2089.91C652.901,2091.19 651.602,2091.97 650.323,2091.64C644.139,2090.1 628.051,2080.88 614.647,2069.79C605.586,2062.3 597.786,2053.93 594.858,2046.62C585.065,2022.13 588.351,2014.25 590.438,2010.81C590.714,2010.36 591.057,2009.84 591.261,2009.53Z"/>
            <path d="M647.158,2090.39C645.963,2089.83 645.448,2088.41 646.007,2087.21C646.567,2086.02 647.992,2085.5 649.186,2086.06C654.235,2088.43 711.318,2107.83 721.805,2109.57C793.869,2121.59 807.691,2118.75 815.5,2119.16C816.818,2119.23 817.831,2120.35 817.762,2121.67C817.692,2122.99 816.567,2124 815.249,2123.93C807.395,2123.52 793.495,2126.37 721.019,2114.29C710.354,2112.51 652.293,2092.8 647.158,2090.39Z"/>
            <path d="M810.114,2123.67C809.602,2123.7 809.076,2123.57 808.621,2123.25L808.188,2122.87L807.823,2122.32L807.585,2121.34L807.764,2120.37L808.002,2119.93L808.378,2119.5L809.069,2119.07L809.972,2118.89C810.292,2118.88 812.235,2118.97 815.57,2119.11C835.001,2119.9 903.069,2121.96 970.84,2110.7C1015.75,2103.24 1060.56,2089.97 1090.8,2066.45C1098.33,2060.59 1098.7,2061.53 1104.4,2054.46C1109.27,2048.4 1112.66,2045.94 1118.11,2038.87C1118.91,2037.82 1120.41,2037.62 1121.46,2038.43C1122.5,2039.24 1122.7,2040.74 1121.89,2041.78C1116.42,2048.89 1113.02,2051.37 1108.12,2057.45C1102.07,2064.96 1101.72,2064 1093.73,2070.22C1062.94,2094.17 1017.36,2107.82 971.624,2115.42C903.425,2126.75 834.93,2124.68 815.376,2123.89C812.486,2123.77 810.445,2123.68 810.114,2123.67ZM812.273,2120.63C812.163,2120.24 811.938,2119.73 811.33,2119.31C811.806,2119.64 812.126,2120.11 812.273,2120.63Z"/>
            <path d="M1122.37,2040.67C1122.38,2041.99 1121.33,2043.07 1120.01,2043.08C1118.69,2043.1 1117.61,2042.04 1117.59,2040.72C1116.87,1968.62 1109.99,1882.89 1113.03,1854.93C1115.24,1834.63 1118.8,1815.26 1119.48,1801.3C1119.73,1795.99 1119.58,1791.5 1118.7,1788.11C1118.21,1786.23 1117.53,1784.73 1116.46,1783.73C1115.5,1782.83 1115.45,1781.31 1116.36,1780.35C1117.26,1779.39 1118.77,1779.34 1119.74,1780.25C1122.61,1782.94 1124.1,1787.96 1124.33,1794.81C1124.81,1808.96 1120.38,1831.57 1117.78,1855.45C1114.75,1883.32 1121.65,1968.79 1122.37,2040.67Z"/>
            <path d="M1120.56,1780.99C1120.61,1781.08 1120.66,1781.16 1120.7,1781.25C1120.73,1781.31 1120.75,1781.36 1120.77,1781.4C1120.81,1781.46 1120.83,1781.52 1120.85,1781.56L1120.86,1781.58C1120.87,1781.6 1120.88,1781.61 1120.88,1781.61C1120.88,1781.61 1120.87,1781.61 1120.87,1781.6L1121.12,1782.3L1121.16,1782.88L1121.03,1783.54L1120.77,1784.05L1120.45,1784.44L1119.96,1784.82L1119.36,1785.06L1118.69,1785.13L1117.98,1785L1117.11,1784.46L1116.69,1783.92C1116.68,1783.89 1116.63,1783.8 1116.55,1783.64C1115.71,1782.1 1100.35,1754.5 1069.74,1740.57C1009.95,1713.34 1021.46,1720.84 1012.88,1716.85C1011.68,1716.3 1011.16,1714.88 1011.71,1713.68C1012.27,1712.48 1013.69,1711.96 1014.89,1712.52C1023.47,1716.5 1011.96,1709.01 1071.72,1736.21C1102.97,1750.44 1118.13,1776.48 1120.56,1780.99Z"/>
            <path d="M597.703,1820.51C598.304,1820.87 598.746,1821.48 598.856,1822.22L598.876,1822.78L598.755,1823.37L598.306,1824.16L597.773,1824.62L597.167,1824.9L596.531,1825L595.888,1824.93L594.924,1824.47C594.686,1824.29 594.21,1823.84 593.613,1823.09C590.559,1819.27 582.245,1805.68 586.077,1787.87C589.782,1770.66 604.979,1749.15 648.837,1729.22C693.476,1708.93 753.89,1704.87 763.237,1704.25C764.553,1704.16 765.693,1705.16 765.781,1706.47C765.868,1707.79 764.871,1708.93 763.555,1709.02C754.345,1709.63 694.802,1713.58 650.815,1733.57C613.686,1750.45 597.825,1768.17 592.312,1783.45C586.986,1798.21 591.513,1810.46 595.085,1816.7C596.132,1818.53 597.305,1820.02 597.703,1820.51ZM594.697,1820.99C594.302,1821.39 593.99,1822 594.127,1822.92C594.02,1822.2 594.249,1821.5 594.697,1820.99Z"/>
            <path d="M854.306,1698.38C852.988,1698.43 851.873,1697.41 851.818,1696.09C851.763,1694.77 852.789,1693.66 854.107,1693.6C950.306,1689.59 1008.47,1711.15 1022.92,1715.09C1024.19,1715.44 1024.94,1716.76 1024.6,1718.03C1024.25,1719.3 1022.94,1720.05 1021.66,1719.7C1007.33,1715.8 949.676,1694.4 854.306,1698.38Z"/>
            <path d="M593.538,1775.21C592.771,1774.13 593.019,1772.64 594.092,1771.87C595.165,1771.11 596.659,1771.35 597.427,1772.43C606.57,1785.21 608.909,1791.15 628.289,1800.84C662.244,1817.82 711.983,1833.36 719.434,1835.68C720.693,1836.08 721.396,1837.42 721.003,1838.68C720.609,1839.94 719.267,1840.64 718.008,1840.25C710.499,1837.9 660.373,1822.23 626.151,1805.12C605.708,1794.9 603.183,1788.69 593.538,1775.21Z"/>
            <path d="M714.311,1839.54C713.034,1839.21 712.267,1837.9 712.598,1836.63C712.929,1835.35 714.235,1834.58 715.512,1834.91C750.752,1844.06 747.749,1846.98 784.486,1848.5C903.609,1853.42 984.457,1835.17 1028.45,1829.67C1087.78,1822.26 1106.24,1776.81 1108.45,1770.17C1108.87,1768.92 1110.22,1768.25 1111.47,1768.66C1112.73,1769.08 1113.4,1770.43 1112.99,1771.68C1110.66,1778.66 1091.41,1826.62 1029.05,1834.42C984.907,1839.93 903.797,1858.21 784.289,1853.27C747.022,1851.73 750.059,1848.82 714.311,1839.54Z"/>
            <path d="M1118.4,1808.63C1118.47,1807.83 1118.94,1807.07 1119.72,1806.68L1120.74,1806.4L1121.68,1806.53L1122.29,1806.84L1122.82,1807.33L1123.09,1807.77L1123.29,1808.37L1123.34,1809.01L1123.24,1809.57C1123.16,1809.89 1122.89,1810.51 1122.34,1811.35C1116.72,1819.92 1073.5,1869.23 1011.82,1876.94C967.176,1882.52 965.544,1893.51 887.147,1892.03C842.422,1891.18 842.24,1897.27 798.464,1888.75C775.729,1884.33 751.195,1884.38 726.56,1881.54C701.491,1878.66 676.33,1872.81 652.778,1856.62C651.943,1856.05 651.222,1855.91 649.769,1855.36C645.731,1853.84 636.819,1849.93 609.746,1831.88C606.216,1829.53 603.947,1828.42 602.443,1828.04C602.227,1827.99 601.967,1827.95 601.79,1827.94C601.142,1828.97 599.808,1829.35 598.7,1828.8C597.52,1828.21 597.041,1826.77 597.631,1825.59C597.781,1825.29 597.996,1824.9 598.335,1824.53L598.823,1824.06L599.449,1823.65C600.251,1823.23 601.518,1822.87 603.615,1823.4C605.414,1823.86 608.177,1825.09 612.398,1827.9C642.612,1848.05 649.627,1850.22 652.887,1851.41C653.927,1851.79 654.66,1852.11 655.486,1852.68C678.341,1868.39 702.781,1874 727.107,1876.8C751.868,1879.64 776.525,1879.62 799.376,1884.06C842.746,1892.49 842.928,1886.41 887.237,1887.25C965.208,1888.72 966.826,1877.75 1011.23,1872.19C1070.98,1864.73 1112.9,1817.03 1118.34,1808.73C1118.36,1808.7 1118.38,1808.66 1118.4,1808.63ZM1120.94,1811.21C1121.21,1811.2 1121.52,1811.13 1121.85,1810.96C1121.56,1811.11 1121.25,1811.19 1120.94,1811.21Z"/>
            <path d="M596.548,1824.29C595.816,1823.19 596.113,1821.71 597.21,1820.97C598.308,1820.24 599.794,1820.54 600.525,1821.64C604.37,1827.4 644.5,1906.81 671.947,1972.68C706.137,2054.74 703.881,2055.64 707.853,2062.26C708.532,2063.39 708.164,2064.86 707.033,2065.54C705.902,2066.22 704.432,2065.85 703.754,2064.72C699.753,2058.05 701.969,2057.17 667.534,1974.52C640.238,1909.01 600.371,1830.03 596.548,1824.29Z"/>
            <path d="M596.098,2010.38C595.026,2011.15 593.532,2010.91 592.763,2009.83C591.994,2008.76 592.24,2007.27 593.312,2006.5C598.593,2002.71 639.231,1980.5 677.333,1949.81C702.479,1929.56 726.554,1905.61 738.36,1880.82C738.927,1879.63 740.354,1879.12 741.545,1879.69C742.737,1880.26 743.243,1881.68 742.676,1882.88C730.598,1908.24 706.057,1932.81 680.332,1953.53C642.13,1984.31 601.393,2006.59 596.098,2010.38Z"/>
            <path d="M711.779,2069.07C709.674,2069.18 699.916,2070.1 693.611,2065.41C692.417,2064.52 678.107,2058.32 665.327,2051.03C649.713,2042.13 612.177,2024.35 594.525,2012.07C593.442,2011.32 593.175,2009.83 593.928,2008.75C594.681,2007.66 596.172,2007.39 597.255,2008.15C614.814,2020.36 652.164,2038.02 667.696,2046.88C680.708,2054.3 695.25,2060.67 696.466,2061.57C701.694,2065.47 709.852,2064.38 711.564,2064.3L712.318,2064.32L712.942,2064.48L713.724,2065.01C714.657,2065.94 714.657,2067.45 713.724,2068.39C713.193,2068.92 712.473,2069.15 711.779,2069.07Z"/>
            <g transform="matrix(1.0024,0,0,1.00896,-1.69869,-18.5233)">
                <path d="M708.07,2064.41C708.202,2064.31 712.94,2060.89 717.885,2056.79C740.979,2037.64 794.049,1990.08 802.987,1979.11C808.328,1972.56 875.977,1890.17 877.316,1889.17C878.366,1888.38 879.863,1888.59 880.656,1889.63C881.449,1890.67 881.24,1892.16 880.189,1892.95C878.863,1893.94 811.982,1975.6 806.694,1982.09C797.685,1993.15 744.22,2041.12 720.941,2060.43C716.813,2063.85 713.62,2066.38 711.772,2067.67C710.627,2068.47 709.793,2068.86 709.407,2068.95C708.131,2069.27 706.834,2068.5 706.513,2067.23C706.206,2066.02 706.898,2064.8 708.07,2064.41Z"/>
            </g>
            <path d="M733.03,1886.08C732.087,1886.19 731.131,1885.72 730.656,1884.83C730.267,1884.11 730.075,1883.57 730.002,1883.25L729.929,1882.54L730.073,1881.74L730.59,1880.88L731.029,1880.5L731.526,1880.24L732.057,1880.1L732.688,1880.09L733.318,1880.23L733.867,1880.49C734.815,1881.03 737.533,1883.72 741.333,1888.06C755.489,1904.24 786.704,1944.15 801.557,1971.38C824.179,2012.86 852.222,2068.94 856.497,2077.49C857.087,2078.67 856.608,2080.11 855.428,2080.7C854.248,2081.29 852.811,2080.81 852.221,2079.63C847.952,2071.09 819.95,2015.09 797.36,1973.67C781.035,1943.74 744.719,1898.33 733.783,1886.85C733.53,1886.58 733.275,1886.32 733.03,1886.08Z"/>
            <path d="M853.921,2073.48C854.58,2073.02 858.524,2070.2 862.075,2066.95C883.005,2047.75 929.347,1996.68 929.941,1995.87C936.117,1987.47 952.448,1965.4 994.203,1877.71C994.771,1876.52 996.198,1876.01 997.389,1876.58C998.58,1877.15 999.087,1878.57 998.52,1879.77C956.483,1968.04 940.01,1990.25 933.792,1998.7C933.193,1999.52 886.434,2051.1 865.306,2070.47C860.783,2074.62 857.302,2077.31 855.59,2077.99C855.306,2078.1 855.047,2078.18 854.815,2078.23L854.176,2078.31L853.37,2078.23L852.752,2078.01C851.572,2077.42 851.093,2075.98 851.683,2074.8C852.117,2073.93 853.01,2073.44 853.921,2073.48Z"/>
            <path d="M864.341,1893.54C863.148,1892.98 862.636,1891.55 863.199,1890.36C863.762,1889.17 865.188,1888.65 866.381,1889.22C889.333,1900.05 917.24,1926.33 942.895,1955.01C981.21,1997.83 1014.55,2045.89 1019.05,2054.89C1019.64,2056.07 1019.16,2057.5 1017.98,2058.09C1016.8,2058.68 1015.36,2058.2 1014.77,2057.02C1010.32,2048.12 977.261,2000.58 939.332,1958.19C914.159,1930.06 886.862,1904.17 864.341,1893.54Z"/>
            <path d="M1021.58,2055.23C1021.05,2056.44 1019.64,2056.98 1018.43,2056.45C1017.22,2055.92 1016.68,2054.51 1017.21,2053.3C1055.82,1965.82 1084.97,1910.2 1118.4,1814.11C1118.83,1812.86 1120.19,1812.2 1121.44,1812.64C1122.69,1813.07 1123.35,1814.43 1122.91,1815.68C1089.44,1911.91 1060.25,1967.62 1021.58,2055.23Z"/>
            <path d="M991.066,1881.74C989.755,1881.6 988.811,1880.41 988.959,1879.1C989.106,1877.79 990.291,1876.84 991.601,1876.99C993.928,1877.25 997.357,1878.62 1001.58,1881.01C1007.44,1884.33 1015.01,1889.65 1023.52,1896.36C1056.39,1922.29 1103.25,1968.99 1118.59,1999.65C1119.17,2000.83 1118.7,2002.27 1117.52,2002.86C1116.34,2003.45 1114.9,2002.97 1114.31,2001.79C1099.2,1971.58 1052.94,1925.65 1020.56,1900.12C1012.28,1893.59 1004.92,1888.4 999.226,1885.17C995.749,1883.2 992.979,1881.96 991.066,1881.74Z"/>
            <path d="M706.793,2069.52C705.476,2069.44 704.472,2068.3 704.552,2066.99C704.632,2065.67 705.766,2064.66 707.083,2064.74C758.29,2067.85 752.192,2070.3 803.836,2071.87C808.157,2072 848.256,2075.25 858.178,2077.36C859.468,2077.64 860.293,2078.91 860.019,2080.2C859.744,2081.49 858.474,2082.31 857.183,2082.04C847.417,2079.96 807.945,2076.77 803.692,2076.64C751.97,2075.08 758.077,2072.62 706.793,2069.52Z"/>
            <path d="M850.94,2080.9C849.642,2081.14 848.395,2080.28 848.155,2078.98C847.916,2077.68 848.775,2076.43 850.073,2076.2C851.788,2075.88 853.067,2076.11 854.806,2076.63C860.044,2078.2 870.872,2082.58 930.951,2072.97C937.664,2071.9 988.425,2063.79 1013.96,2054.78C1015.21,2054.34 1016.57,2054.99 1017.01,2056.24C1017.45,2057.48 1016.8,2058.85 1015.55,2059.28C989.757,2068.39 938.487,2076.61 931.706,2077.69C877.684,2086.34 862.401,2083.76 855.82,2081.93C853.526,2081.28 852.559,2080.6 850.94,2080.9Z"/>
            <path d="M1012.11,2060.02C1010.79,2060.09 1009.66,2059.07 1009.59,2057.76C1009.52,2056.44 1010.54,2055.31 1011.86,2055.24C1019.91,2054.82 1076.79,2051.98 1104.35,2015.23C1107.26,2011.35 1110.03,2008.42 1112.26,2005.62C1115.18,2001.94 1117.07,1998.55 1116.53,1993C1116.4,1991.68 1117.37,1990.51 1118.68,1990.39C1119.99,1990.26 1121.16,1991.22 1121.29,1992.54C1121.86,1998.46 1120.34,2002.49 1117.64,2006.39C1115.24,2009.87 1111.81,2013.24 1108.17,2018.1C1079.51,2056.32 1020.48,2059.58 1012.11,2060.02Z"/>
            <path d="M764.565,1686.48C772.017,1666.86 781.33,1657.85 790.733,1654.04C797.939,1651.12 805.281,1651.25 812.12,1652.25C818.502,1653.18 824.409,1654.9 829.245,1655.27C829.894,1655.32 830.849,1655.62 831.977,1656.33C833.711,1657.4 836.211,1659.55 838.948,1662.45C844.233,1668.07 850.477,1676.56 853.841,1685.23C856.211,1691.34 857.137,1697.54 855.581,1702.98C848.807,1726.69 842.095,1737.94 832.928,1743.31C823.805,1748.64 812.023,1748.16 794.561,1747.78C789.947,1747.67 785.5,1745.75 781.434,1742.51C775.735,1737.98 770.759,1730.86 767.106,1723.08C763.487,1715.38 761.161,1707.07 760.631,1700.12C760.252,1695.15 760.816,1690.84 762.334,1687.8C762.767,1686.94 763.656,1686.45 764.565,1686.48ZM766.494,1690.18C765.383,1692.58 765.107,1695.93 765.398,1699.76C765.89,1706.2 768.075,1713.91 771.433,1721.05C774.756,1728.12 779.223,1734.65 784.408,1738.77C787.598,1741.31 791.047,1742.92 794.667,1743C810.964,1743.36 822,1744.16 830.514,1739.18C838.984,1734.23 844.726,1723.58 850.984,1701.67C852.275,1697.15 851.35,1692.02 849.384,1686.96C846.246,1678.87 840.397,1670.97 835.467,1665.73C833.411,1663.55 831.523,1661.83 830.067,1660.8C829.576,1660.45 828.895,1660.09 828.765,1660.03C823.86,1659.63 817.88,1657.92 811.429,1656.98C805.386,1656.1 798.893,1655.9 792.527,1658.47C783.908,1661.96 775.665,1670.5 768.863,1688.63C768.487,1689.64 767.509,1690.24 766.494,1690.18Z"/>
            <path d="M562.765,1545.15C561.978,1544.09 562.199,1542.59 563.258,1541.81C564.317,1541.02 565.815,1541.24 566.602,1542.3C573.132,1551.09 573.824,1550.04 673.892,1627.23C716.898,1660.41 739.498,1671.72 751.835,1678.16C757.439,1681.09 761.018,1683.11 763.471,1685.57C764.404,1686.5 764.404,1688.01 763.471,1688.95C762.538,1689.88 761.023,1689.88 760.091,1688.95C757.894,1686.75 754.639,1685.02 749.621,1682.4C737.174,1675.9 714.365,1664.49 670.972,1631.02C569.954,1553.09 569.357,1554.02 562.765,1545.15Z"/>
            <path d="M782.793,1658.63C783.748,1658.95 784.427,1659.87 784.407,1660.93C784.382,1662.25 783.291,1663.3 781.972,1663.28L781.079,1663.1C780.879,1663.03 780.577,1662.89 780.194,1662.65C779.027,1661.92 776.284,1659.8 772.226,1656.52C752.542,1640.62 700.822,1596.89 647.315,1556.76C622.295,1538 622.599,1538.39 597.296,1520.19C593.748,1517.63 590.911,1515.61 588.438,1514.2C586.299,1512.98 584.497,1512.24 582.7,1512.15C580.992,1512.07 579.323,1512.62 577.382,1513.77C575.076,1515.12 572.475,1517.26 569.227,1520.24C568.602,1520.81 567.142,1521.66 565.576,1522.93C563.731,1524.42 561.64,1526.62 561.41,1530.02C561.121,1534.28 563.562,1540.02 571.302,1548.13C572.212,1549.08 572.177,1550.6 571.223,1551.51C570.268,1552.42 568.754,1552.38 567.843,1551.43C558.672,1541.82 556.298,1534.74 556.64,1529.69C556.924,1525.51 559.007,1522.49 561.284,1520.33C563.196,1518.52 565.237,1517.41 565.999,1516.71C573.509,1509.83 578.229,1507.16 582.92,1507.38C587.49,1507.59 592.282,1510.69 600.089,1516.31C625.43,1534.54 625.125,1534.14 650.184,1552.94C703.749,1593.11 755.525,1636.88 775.231,1652.8C779.12,1655.95 782.347,1658.3 782.793,1658.63Z"/>
            <path d="M882.509,1590.11C884.683,1589.28 891.535,1586.84 898.565,1586.56C904.132,1586.34 909.762,1587.49 913.642,1591.37C922.38,1600.11 932.051,1600.23 946.224,1596.28C961.409,1592.05 981.456,1583.2 1010.27,1574.1C1086.31,1550.09 1085.49,1547.93 1092.17,1546.09C1128.55,1536.05 1151.98,1524.84 1166.81,1523.18C1172.35,1522.57 1176.81,1523.24 1180.39,1525.46C1183.96,1527.67 1186.74,1531.46 1188.72,1537.41C1191.29,1545.1 1191.77,1549.14 1191.29,1551.86C1190.78,1554.74 1189.23,1556.31 1187.31,1558.95C1180.4,1568.45 1168.01,1575.32 1150.41,1581.58C1124.83,1590.68 1088.04,1598.73 1041.3,1613.11C987.268,1629.73 964.966,1635.65 954.847,1639.26C949.007,1641.35 947.774,1642.42 946.296,1644.89C932.584,1667.74 918.907,1677.57 906.62,1680.15C891.982,1683.22 879.032,1676.12 869.6,1667.43C860.234,1658.8 854.416,1648.65 853.668,1645.9C849.351,1630.08 854.91,1616.88 862.262,1607.3C869.515,1597.86 878.5,1591.99 881.102,1590.63C881.7,1590.32 882.128,1590.17 882.321,1590.13L882.509,1590.11ZM883.285,1594.88C880.848,1596.17 872.68,1601.58 866.054,1610.21C859.492,1618.76 854.427,1630.52 858.28,1644.64C858.955,1647.12 864.394,1656.13 872.839,1663.91C881.219,1671.63 892.635,1678.19 905.639,1675.47C917.045,1673.08 929.467,1663.64 942.196,1642.43C944.138,1639.19 945.569,1637.5 953.239,1634.76C963.382,1631.14 985.735,1625.2 1039.89,1608.54C1086.55,1594.18 1123.28,1586.16 1148.81,1577.08C1165.27,1571.22 1176.98,1565.02 1183.45,1556.13C1184.86,1554.19 1186.21,1553.15 1186.58,1551.03C1186.99,1548.74 1186.34,1545.38 1184.19,1538.92C1182.65,1534.3 1180.65,1531.24 1177.87,1529.52C1175.1,1527.8 1171.62,1527.46 1167.34,1527.94C1152.66,1529.58 1129.48,1540.75 1093.44,1550.69C1086.78,1552.53 1087.59,1554.69 1011.71,1578.66C982.826,1587.78 962.729,1596.64 947.507,1600.89C931.271,1605.41 920.272,1604.77 910.261,1594.75C907.32,1591.81 902.979,1591.17 898.758,1591.34C891.774,1591.62 884.99,1594.27 883.752,1594.75C883.599,1594.81 883.442,1594.86 883.285,1594.88ZM880.502,1592.35C880.54,1591.83 880.746,1591.33 881.115,1590.92C880.646,1591.44 880.51,1591.94 880.502,1592.35Z"/>
            <path d="M840.317,1630.63C840.418,1631.95 839.433,1633.1 838.118,1633.2C836.803,1633.3 835.652,1632.32 835.55,1631C834.8,1621.31 835.617,1614.25 837.664,1608.7C840.113,1602.07 844.307,1597.53 849.919,1593.35C855.172,1589.43 861.715,1585.83 869.181,1580.85C870.278,1580.12 871.764,1580.41 872.495,1581.51C873.227,1582.61 872.93,1584.09 871.832,1584.83C864.448,1589.75 857.971,1593.31 852.776,1597.18C847.94,1600.79 844.259,1604.64 842.149,1610.36C840.288,1615.4 839.634,1621.83 840.317,1630.63Z"/>
            <g transform="matrix(1,0,0,1,2.47433,-2.76308)">
                <path d="M830.123,1608.66C829.533,1609.85 828.096,1610.32 826.916,1609.73C825.736,1609.14 825.257,1607.71 825.847,1606.53C826.882,1604.46 832.065,1594 846.831,1586.62C848.011,1586.03 849.448,1586.51 850.038,1587.69C850.628,1588.87 850.149,1590.31 848.969,1590.9C835.746,1597.51 831.05,1606.81 830.123,1608.66Z"/>
            </g>
            <path d="M830.553,1592.28C830.414,1593.59 829.236,1594.54 827.924,1594.4C826.612,1594.26 825.66,1593.08 825.799,1591.77C826.094,1589 826.78,1587.07 828.142,1585.52C829.427,1584.05 831.39,1582.89 834.575,1581.83C835.827,1581.41 837.182,1582.09 837.599,1583.34C838.016,1584.59 837.339,1585.95 836.087,1586.36C833.972,1587.07 832.589,1587.7 831.736,1588.67C830.962,1589.55 830.721,1590.7 830.553,1592.28Z"/>
            <path d="M761.705,1754.61C760.773,1753.68 760.773,1752.16 761.705,1751.23C762.638,1750.3 764.153,1750.3 765.086,1751.23C778.709,1764.86 784.823,1762.12 793.226,1762.92C794.539,1763.05 795.504,1764.22 795.379,1765.53C795.254,1766.84 794.086,1767.81 792.772,1767.68C783.478,1766.8 776.774,1769.68 761.705,1754.61Z"/>
            <path d="M762.053,1775.18C761.034,1774.48 760.709,1773.1 761.338,1772.01L762.044,1771.21L762.859,1770.81L763.829,1770.75L764.348,1770.87L764.905,1771.16L765.416,1771.62L765.77,1772.14C766.203,1772.89 767.632,1775.01 775.795,1773.19C777.083,1772.91 778.361,1773.72 778.647,1775.01C778.933,1776.3 778.12,1777.58 776.832,1777.86C769.688,1779.45 766.094,1778.41 764.211,1777.26C763.227,1776.66 762.48,1775.77 762.053,1775.18ZM765.261,1774.72C765.336,1774.63 765.408,1774.53 765.477,1774.41C765.412,1774.52 765.34,1774.62 765.261,1774.72Z"/>
            <path d="M789.059,1752.52C787.963,1753.09 786.593,1752.73 785.928,1751.66L785.638,1750.99L785.572,1750.12L785.866,1749.19L786.483,1748.46L786.932,1748.17L787.553,1747.94C787.854,1747.86 788.372,1747.77 789.085,1747.7C795.047,1747.15 819.201,1747.3 834.896,1748.02C841.901,1748.34 847.283,1748.83 848.867,1749.35C850.119,1749.77 850.796,1751.13 850.379,1752.38C849.962,1753.63 848.607,1754.31 847.355,1753.89C845.919,1753.41 841.029,1753.08 834.677,1752.79C819.208,1752.08 795.401,1751.92 789.525,1752.47C789.371,1752.48 789.199,1752.5 789.059,1752.52ZM790.18,1751.28C790.51,1750.58 790.438,1749.86 789.985,1749.13C790.401,1749.8 790.448,1750.6 790.18,1751.28Z"/>
        </g>
    </g>
</svg>
