<?xml version="1.0" encoding="UTF-8" standalone="no"?>
<!DOCTYPE svg PUBLIC "-//W3C//DTD SVG 1.1//EN" "http://www.w3.org/Graphics/SVG/1.1/DTD/svg11.dtd">
<svg width="100%" height="100%" viewBox="0 0 1004 378" version="1.1" xmlns="http://www.w3.org/2000/svg" xmlns:xlink="http://www.w3.org/1999/xlink" xml:space="preserve" xmlns:serif="http://www.serif.com/" style="fill-rule:evenodd;clip-rule:evenodd;stroke-linejoin:round;stroke-miterlimit:2;">
    <g transform="matrix(1,0,0,1,-121.723,-153.384)">
        <g transform="matrix(1,0,0,1,-190.16,-494.675)">
            <g transform="matrix(1,0,0,1,-8.56062,39.5409)">
                <path d="M1248.76,773.102C1249.11,773.113 1249.42,773.339 1249.53,773.688C1249.53,773.688 1249.53,773.689 1249.53,773.689C1249.97,775.091 1250.11,776.109 1250.06,776.826C1250.02,777.462 1249.83,777.915 1249.59,778.236C1249.25,778.683 1248.79,778.916 1248.25,778.975C1247.66,779.04 1246.95,778.868 1246.31,778.574C1245.5,778.208 1244.79,777.668 1244.52,777.354L1244.31,777.027L1244.24,776.746C1243.97,774.376 1244.72,773.361 1245.54,772.939C1246.07,772.666 1246.69,772.622 1247.29,772.706C1247.84,772.783 1248.51,773.012 1248.76,773.102ZM1248.07,774.627C1247.87,774.554 1247.6,774.466 1247.31,774.402C1246.98,774.33 1246.61,774.264 1246.3,774.42C1246.11,774.522 1245.99,774.741 1245.91,775.086C1245.84,775.417 1245.83,775.833 1245.87,776.351C1246.18,776.632 1246.81,777.034 1247.44,777.227C1247.72,777.315 1248,777.403 1248.21,777.279C1248.35,777.194 1248.38,776.999 1248.39,776.716C1248.43,776.214 1248.33,775.535 1248.07,774.627ZM1247.9,773.881C1247.9,773.971 1247.91,774.071 1247.94,774.182C1247.91,774.082 1247.9,773.98 1247.9,773.881Z"/>
            </g>
            <path d="M313.76,867.121C313.771,866.662 314.153,866.297 314.612,866.307C315.072,866.318 315.437,866.7 315.426,867.16C315.368,869.683 315.14,870.515 318.266,897.868C324.675,953.955 335.554,963.909 348.684,983.603C348.939,983.986 348.836,984.504 348.453,984.759C348.07,985.014 347.552,984.91 347.297,984.528C334.055,964.664 323.075,954.627 316.61,898.058C313.461,870.503 313.701,869.664 313.76,867.121Z"/>
            <path d="M347.21,984.185C346.995,983.779 347.151,983.274 347.558,983.06C347.965,982.845 348.469,983.001 348.684,983.408C349.982,985.87 355.419,993.083 356.35,994.107C368.232,1007.18 387.526,1014.71 407.122,1019C436.657,1025.46 466.911,1024.51 473.874,1023.71C494.714,1021.31 493.824,1018.43 513.798,1012.24C514.238,1012.1 514.705,1012.34 514.841,1012.78C514.977,1013.22 514.732,1013.69 514.292,1013.83C494.169,1020.07 495.06,1022.94 474.065,1025.37C467.045,1026.17 436.543,1027.14 406.766,1020.62C386.819,1016.26 367.211,1008.53 355.117,995.228C354.156,994.171 348.549,986.726 347.21,984.185Z"/>
            <path d="M509.495,1015.66L509.498,1015.67L509.455,1015.67L509.495,1015.66ZM509.169,1014.07C509.18,1014.06 509.244,1014.03 509.336,1013.99C509.373,1013.98 509.415,1013.96 509.463,1013.94C512.563,1012.55 538.449,1001 543.527,997.467C591.89,963.823 613.653,948.491 668.597,962.227C669.043,962.339 669.315,962.792 669.203,963.238C669.092,963.684 668.639,963.956 668.193,963.844C613.829,950.253 592.331,965.547 544.478,998.835C539.359,1002.4 513.267,1014.06 510.142,1015.46C510.142,1015.46 510.012,1015.52 510.009,1015.52C509.94,1015.55 509.886,1015.57 509.845,1015.59C509.833,1015.6 509.827,1015.6 509.825,1015.6L509.747,1015.63L509.495,1015.66L508.863,1014.29L509.109,1014.1L509.162,1014.07C509.164,1014.07 509.166,1014.07 509.169,1014.07Z"/>
            <path d="M667.044,963.585C666.585,963.621 666.183,963.279 666.146,962.821C666.109,962.362 666.451,961.96 666.91,961.923C667.171,961.902 667.542,961.942 668.015,962.06C668.871,962.273 670.17,962.749 671.886,963.369C677.441,965.374 687.51,968.901 701.262,969.444C702.618,969.498 729.288,976.383 747.997,970.474C749.345,970.049 757.278,965.504 764.4,959.989C769.109,956.344 773.475,952.281 775.277,948.676C775.478,948.275 786.479,931.467 787.696,922.942C787.773,922.405 792.813,904.542 792.85,904.137C793.443,897.606 793.875,897.843 795.45,891.512C795.756,890.285 795.884,879.349 796.271,872.294C796.39,870.123 796.533,868.31 796.707,867.232C796.802,866.648 796.925,866.239 797.036,866.034C797.255,865.629 797.761,865.478 798.166,865.697C798.57,865.916 798.721,866.422 798.502,866.827C798.441,866.941 798.405,867.175 798.352,867.499C798.184,868.539 798.05,870.289 797.935,872.385C797.542,879.555 797.378,890.667 797.067,891.915C795.524,898.12 795.092,897.886 794.51,904.288C794.473,904.695 789.423,922.638 789.346,923.178C788.106,931.861 776.972,949.013 776.768,949.422C774.881,953.197 770.351,957.49 765.42,961.307C758.084,966.987 749.887,971.625 748.499,972.064C729.563,978.043 702.569,971.164 701.196,971.11C687.211,970.557 676.969,966.976 671.321,964.936C669.901,964.424 668.779,964.01 667.967,963.774C667.55,963.652 667.244,963.568 667.044,963.585Z"/>
            <path d="M798.187,868.917C798.173,869.377 797.788,869.738 797.328,869.724C796.868,869.71 796.507,869.325 796.521,868.865C796.681,863.781 802.776,840.039 799.096,801.977C798.781,798.724 796.527,776.213 793.195,759.99C791.793,753.16 790.224,747.456 788.5,744.87C788.245,744.487 788.349,743.969 788.731,743.714C789.114,743.459 789.632,743.562 789.887,743.945C791.68,746.635 793.369,752.55 794.828,759.655C798.173,775.946 800.439,798.55 800.755,801.817C804.446,839.999 798.347,863.817 798.187,868.917Z"/>
            <path d="M791.02,746.512C791.205,746.933 791.013,747.425 790.592,747.609C790.171,747.794 789.679,747.602 789.494,747.181C786.952,741.382 775.536,706.077 744.175,697.155C740.7,696.167 736.709,690.062 702.538,696.163C694.052,697.678 665.481,708.335 646.981,711.438C624.516,715.205 623.654,717.689 598.14,706.207C582.256,699.059 583.205,697.834 568.513,688.807C566.562,687.608 565.698,687.524 542.225,675.765C523.96,666.615 515.822,665.235 506.545,660.41C470.338,641.583 413.506,652.995 405.572,654.581C402.607,655.174 388.209,655.269 371.919,665.791C355.601,676.33 337.42,697.318 326.846,739.613C307.311,817.753 314.934,834.76 315.398,870.147C315.404,870.607 315.035,870.985 314.575,870.991C314.116,870.997 313.737,870.629 313.731,870.169C313.266,834.666 305.63,817.605 325.229,739.209C335.952,696.316 354.466,675.079 371.014,664.391C387.59,653.685 402.229,653.55 405.245,652.947C413.266,651.343 470.712,639.899 507.314,658.932C516.585,663.753 524.718,665.13 542.971,674.274C566.559,686.091 567.425,686.182 569.385,687.387C583.986,696.358 583.038,697.584 598.824,704.688C623.836,715.943 624.682,713.488 646.705,709.794C665.2,706.692 693.762,696.037 702.245,694.522C737.031,688.311 741.093,694.546 744.631,695.552C776.648,704.661 788.425,740.592 791.02,746.512Z"/>
            <path d="M481.662,757.406C481.573,757.232 481.544,757.027 481.596,756.823C482.131,754.706 482.277,754.702 482.704,753.115C482.757,752.909 482.81,752.703 482.863,752.499C482.864,752.496 482.865,752.493 482.865,752.49C482.981,752.047 483.434,751.78 483.878,751.893C484.322,752.007 484.591,752.458 484.48,752.903C484.479,752.906 484.479,752.908 484.478,752.911C484.421,753.137 484.369,753.338 484.321,753.518C472.441,799.796 474.895,875.209 478.848,906.108C479.535,911.483 480.264,915.498 480.975,917.756C481.227,918.554 481.437,919.104 481.677,919.344C482.002,919.669 482.002,920.197 481.677,920.522C481.352,920.847 480.824,920.847 480.498,920.522C480.149,920.173 479.751,919.417 479.385,918.256C478.657,915.943 477.899,911.829 477.195,906.32C473.346,876.233 470.929,804.121 481.662,757.406Z"/>
            <path d="M481.924,919.584C482.204,919.789 482.335,920.157 482.225,920.506C482.087,920.945 481.618,921.188 481.18,921.05C480.596,920.865 480.226,920.648 480.022,920.453L479.836,920.234L479.69,919.938L479.642,919.702L479.648,919.459L479.743,919.135L479.981,918.787C480.194,918.561 480.597,918.305 481.19,918.079C484.72,916.729 496.563,915.436 504.839,915.538C508.508,915.584 511.494,915.931 512.839,916.603C513.251,916.809 513.418,917.31 513.212,917.721C513.006,918.133 512.505,918.3 512.094,918.094C511.033,917.564 508.831,917.321 506.083,917.232C499.356,917.016 489.48,917.878 484.243,918.974C483.294,919.172 482.504,919.376 481.924,919.584Z"/>
            <path d="M508.544,754.387C508.487,754.328 508.438,754.259 508.399,754.181C508.193,753.77 508.36,753.269 508.771,753.063L508.953,752.995L509.168,752.968L509.386,752.994L509.573,753.064L509.855,753.281L510.03,753.552C510.217,753.943 510.414,755.296 510.543,757.471C511.878,780.001 510.075,897.838 509.608,917C509.597,917.46 509.214,917.824 508.755,917.813C508.295,917.801 507.931,917.419 507.942,916.959C508.409,897.814 510.213,780.08 508.879,757.57C508.789,756.049 508.604,754.773 508.544,754.387ZM509.447,754.585C509.47,754.575 509.494,754.565 509.517,754.554C509.494,754.565 509.471,754.575 509.447,754.585Z"/>
            <path d="M481.677,754.767C481.352,755.092 480.824,755.092 480.498,754.767C480.173,754.441 480.173,753.913 480.498,753.588C480.732,753.354 481.138,753.129 481.718,752.971C482.692,752.704 484.285,752.566 486.231,752.523C492.423,752.384 502.348,753.15 506.525,752.976C509.774,752.84 509.455,752.787 510.146,753.018C510.582,753.163 510.818,753.635 510.673,754.072C510.528,754.508 510.055,754.744 509.619,754.599C509.042,754.406 509.308,754.528 506.595,754.641C502.411,754.815 492.47,754.05 486.268,754.189C484.734,754.223 483.438,754.311 482.534,754.491C482.126,754.572 481.817,754.626 481.677,754.767Z"/>
            <path d="M494.151,808.515C493.293,810.634 492.193,811.655 491.164,812.01C489.442,812.602 487.657,811.518 486.665,809.865C485.677,808.22 485.553,806.123 486.774,804.902C488.318,803.358 491.224,803.293 493.107,804.114C494.209,804.595 494.941,805.38 495.087,806.232C495.203,806.903 494.994,807.71 494.151,808.515ZM492.17,808.845C491.964,808.47 492.076,807.993 492.439,807.751C492.552,807.676 492.656,807.601 492.751,807.528C492.906,807.096 493.051,806.616 493.186,806.082C493,805.91 492.732,805.769 492.44,805.642C491.11,805.062 489.044,804.989 487.953,806.081C487.633,806.401 487.528,806.843 487.546,807.305C487.568,807.875 487.775,808.476 488.094,809.007C488.671,809.97 489.618,810.779 490.621,810.434C491.066,810.28 491.491,809.907 491.899,809.294C491.991,809.155 492.081,809.006 492.17,808.845Z"/>
            <path d="M492.824,818.819C492.797,819.278 492.403,819.629 491.943,819.602C491.484,819.576 491.133,819.181 491.16,818.722C491.211,817.836 491.082,817.251 490.748,816.934C490.555,816.752 490.297,816.704 490.03,816.729C489.655,816.762 489.263,816.933 488.911,817.187C488.26,817.656 487.734,818.422 487.763,819.297C487.783,819.894 488.069,820.524 488.691,821.146C489.488,821.943 490.126,822.231 490.686,822.114C491.196,822.007 491.583,821.598 491.897,821.169C492.481,820.37 492.792,819.426 492.849,819.256C492.994,818.82 493.466,818.584 493.903,818.729C494.339,818.875 494.575,819.347 494.43,819.783C494.36,819.994 493.967,821.162 493.243,822.152C492.685,822.915 491.933,823.555 491.027,823.745C490.07,823.945 488.876,823.687 487.512,822.324C486.351,821.162 486.006,819.945 486.114,818.861C486.276,817.231 487.52,815.86 488.866,815.319C489.966,814.877 491.109,814.982 491.893,815.724C492.482,816.281 492.914,817.259 492.824,818.819Z"/>
            <path d="M494.194,830.667C494.239,831.03 494.04,831.393 493.686,831.54L493.494,831.598L493.359,831.605C493.406,832 493.164,832.383 492.771,832.5C490.479,833.188 488.802,833.384 487.61,833.273C486.666,833.186 485.985,832.907 485.505,832.533C484.755,831.949 484.439,831.122 484.457,830.195C484.48,829.051 485.058,827.733 485.838,826.718C486.373,826.023 486.999,825.474 487.577,825.188C488.117,824.92 488.639,824.865 489.079,824.997C492.156,825.92 493.45,827.108 493.984,828.099C494.567,829.179 494.359,830.133 494.194,830.667ZM492.483,830.87L492.474,830.662L492.562,830.297C492.635,830.075 492.807,829.631 492.615,829.105C492.313,828.277 491.271,827.395 488.601,826.594C488.548,826.578 488.491,826.609 488.428,826.632C488.316,826.674 488.202,826.739 488.086,826.819C487.716,827.072 487.344,827.465 487.022,827.92C486.638,828.462 486.325,829.093 486.19,829.705C486.085,830.179 486.074,830.64 486.314,830.992C486.567,831.363 487.068,831.562 487.844,831.62C488.887,831.699 490.332,831.492 492.292,830.904C492.356,830.885 492.42,830.874 492.483,830.87Z"/>
            <path d="M493.668,838.943C493.434,838.842 492.916,838.631 492.52,838.558C491.566,838.384 490.493,838.357 490.097,838.429C488.509,838.717 487.843,840.287 487.979,841.624C488.061,842.444 488.444,843.212 489.209,843.469C490.189,843.799 491.584,843.344 493.475,841.768C493.828,841.473 494.354,841.521 494.649,841.875C494.943,842.228 494.895,842.754 494.542,843.048C491.05,845.958 488.609,845.516 487.369,844.214C486.587,843.392 486.213,842.144 486.311,840.89C486.457,839.022 487.627,837.184 489.798,836.789C490.477,836.666 492.733,836.736 494.04,837.249C494.922,837.596 495.404,838.189 495.425,838.818C495.438,839.187 495.308,839.632 494.867,840.111C494.459,840.555 493.704,841.095 492.458,841.711C492.046,841.914 491.546,841.745 491.342,841.333C491.138,840.921 491.307,840.42 491.72,840.216C492.609,839.777 493.199,839.405 493.548,839.076C493.59,839.036 493.632,838.987 493.668,838.943Z"/>
            <path d="M493.913,850.737C494.109,850.975 494.165,851.313 494.029,851.613C493.812,852.091 493.598,852.533 493.39,852.943C493.282,853.232 493.181,853.491 493.123,853.639C493.176,853.797 493.182,853.973 493.13,854.144C493.026,854.49 492.717,854.718 492.377,854.736C491.759,855.708 491.189,856.38 490.672,856.824C489.853,857.526 489.107,857.728 488.467,857.675C487.52,857.597 486.722,856.914 486.157,856.017C485.448,854.892 485.097,853.477 485.062,853.232C484.865,851.853 485.151,850.986 485.633,850.393C486.292,849.58 487.444,849.281 488.638,848.983C490.115,848.614 491.158,848.533 491.878,848.622C492.523,848.702 492.967,848.919 493.274,849.189C493.716,849.578 493.904,850.126 493.913,850.737ZM491.812,852.37C491.946,852.038 492.088,851.67 492.181,851.306C492.226,851.126 492.26,850.949 492.263,850.782C492.266,850.661 492.267,850.544 492.193,850.46C492.069,850.319 491.838,850.28 491.498,850.26C490.918,850.226 490.122,850.33 489.042,850.6C488.57,850.718 488.098,850.819 487.68,850.974C487.383,851.084 487.113,851.214 486.927,851.443C486.666,851.764 486.605,852.249 486.712,852.996C486.739,853.184 487.022,854.265 487.567,855.129C487.838,855.559 488.15,855.977 488.604,856.014C489.006,856.047 489.434,855.769 489.977,855.179C490.536,854.571 491.144,853.663 491.812,852.37Z"/>
            <path d="M493.225,860.034C493.644,860.011 494.022,860.307 494.092,860.729C494.786,864.892 493.611,866.794 492.18,867.425C491.25,867.834 490.122,867.759 489.059,867.325C487.563,866.713 486.228,865.397 485.827,864.059C485.329,862.401 486.28,860.551 487.756,859.446C489.287,858.301 491.283,858.021 492.601,859.246C492.828,859.457 493.04,859.718 493.225,860.034ZM492.64,863.047C492.43,862.918 492.278,862.697 492.247,862.433C492.135,861.486 491.872,860.843 491.467,860.467C490.724,859.778 489.616,860.136 488.754,860.781C487.839,861.466 487.115,862.552 487.423,863.58C487.699,864.5 488.661,865.361 489.69,865.782C490.31,866.035 490.966,866.138 491.508,865.899C491.931,865.713 492.25,865.307 492.441,864.663C492.572,864.221 492.642,863.686 492.64,863.047Z"/>
            <path d="M498.367,808.722C498.284,808.806 498.183,808.874 498.066,808.919C497.758,809.035 497.039,809.108 496.163,809.113C494.41,809.123 491.938,808.946 491.592,808.921C491.149,808.889 490.808,808.516 490.818,808.072C490.828,807.628 491.184,807.269 491.628,807.257C506.23,806.851 502.144,806.243 670.142,809.895C670.602,809.905 670.967,810.286 670.957,810.746C670.947,811.206 670.565,811.571 670.106,811.561C530.452,808.525 509.768,808.434 498.367,808.722Z"/>
            <path d="M664.103,811.368C663.656,811.258 663.382,810.807 663.492,810.36C663.601,809.913 664.053,809.64 664.499,809.749C665.843,810.078 666.771,810.077 668.666,809.968C673.357,809.697 683.633,808.741 718.118,809.827C719.81,809.88 870.996,813.149 877.941,813.149C878.401,813.149 878.774,813.522 878.774,813.982C878.774,814.442 878.401,814.816 877.941,814.816C870.993,814.816 719.758,811.546 718.066,811.493C683.684,810.411 673.439,811.361 668.763,811.632C666.643,811.754 665.605,811.736 664.103,811.368Z"/>
            <path d="M877.563,814.824C877.104,814.852 876.708,814.503 876.679,814.044C876.65,813.585 876.999,813.189 877.458,813.16C881.306,812.919 992.032,817.778 1039.58,815.617C1071.05,814.186 1141.32,819.626 1154.21,818.194C1154.67,818.143 1155.08,818.473 1155.13,818.93C1155.18,819.388 1154.85,819.8 1154.39,819.851C1141.5,821.284 1071.15,815.85 1039.65,817.282C992.116,819.443 881.409,814.582 877.563,814.824Z"/>
            <path d="M1153.92,819.955C1153.46,819.969 1153.08,819.607 1153.06,819.147C1153.05,818.687 1153.41,818.303 1153.87,818.29C1165.69,817.941 1165.5,817.15 1195.23,816.896C1195.69,816.892 1196.07,817.262 1196.07,817.722C1196.07,818.182 1195.7,818.558 1195.24,818.562C1165.54,818.816 1165.73,819.607 1153.92,819.955Z"/>
            <path d="M1194.09,816.233C1196.08,812.377 1198.34,810.413 1200.47,809.602C1203.6,808.413 1206.56,809.628 1208.49,811.369C1209.81,812.572 1210.62,814.03 1210.73,815.097C1210.95,817.334 1210.48,819.164 1209.45,820.489C1208.41,821.833 1206.78,822.684 1204.61,822.872C1202.82,823.027 1200.49,823.037 1198.24,821.729C1196.75,820.86 1195.29,819.407 1194.08,816.989C1193.96,816.751 1193.96,816.47 1194.09,816.233ZM1195.77,816.621C1196.75,818.452 1197.89,819.597 1199.08,820.289C1200.98,821.394 1202.96,821.343 1204.47,821.212C1206.1,821.07 1207.35,820.479 1208.13,819.468C1208.93,818.438 1209.24,817.002 1209.07,815.262C1208.99,814.488 1208.33,813.477 1207.37,812.604C1205.85,811.232 1203.53,810.223 1201.06,811.16C1199.27,811.84 1197.45,813.506 1195.77,816.621Z"/>
            <path d="M1203.78,815.245C1203.67,815.185 1202.74,814.661 1201.97,814.476C1201.51,814.363 1201.02,814.297 1200.6,814.342C1200.33,814.37 1200.08,814.424 1199.94,814.611C1199.81,814.785 1199.79,815.041 1199.83,815.386C1199.89,815.934 1200.13,816.631 1200.58,817.517C1200.76,817.89 1200.92,818.169 1201.08,818.37C1201.16,818.475 1201.23,818.552 1201.32,818.589C1201.48,818.658 1201.66,818.608 1201.89,818.566C1202.32,818.487 1202.86,818.347 1203.57,818.229C1204.02,818.154 1204.45,818.461 1204.52,818.914C1204.6,819.368 1204.29,819.798 1203.84,819.873C1202.98,820.016 1202.38,820.189 1201.9,820.251C1201.42,820.313 1201.03,820.277 1200.66,820.121C1200.15,819.902 1199.65,819.402 1199.09,818.262C1198.41,816.905 1198.15,815.881 1198.15,815.134C1198.15,814.474 1198.33,813.978 1198.61,813.606C1198.95,813.162 1199.44,812.878 1200.03,812.748C1200.72,812.596 1201.56,812.662 1202.36,812.856C1203.26,813.072 1204.09,813.441 1204.58,813.765C1204.92,813.993 1205.13,814.239 1205.22,814.42C1205.43,814.831 1205.26,815.332 1204.85,815.538C1204.46,815.73 1204,815.597 1203.78,815.245Z"/>
            <path d="M1197.64,801.955C1197.64,801.902 1197.65,801.83 1197.64,801.777C1197.63,801.658 1197.61,801.53 1197.58,801.398C1197.36,800.537 1196.59,799.306 1196.35,798.936C1193.8,798.587 1192.32,797.486 1191.62,796.068C1190.56,793.944 1191.26,790.909 1193.14,788.142C1195.84,784.166 1200.85,780.794 1205.42,781.542C1208.51,782.045 1211.47,784.366 1213.39,789.733C1213.86,791.035 1213.8,792.052 1213.45,792.883C1212.95,794.053 1211.81,794.877 1210.46,795.587C1209.46,796.109 1208.35,796.583 1207.43,797.196C1206.65,797.706 1206.01,798.308 1205.78,799.195C1205.57,799.994 1205.7,800.99 1206.26,802.295C1206.44,802.717 1206.25,803.208 1205.82,803.389C1205.4,803.57 1204.91,803.374 1204.73,802.951C1203.89,800.992 1203.87,799.534 1204.28,798.401C1204.88,796.734 1206.48,795.718 1208.19,794.857C1209.16,794.371 1210.16,793.928 1210.93,793.362C1211.39,793.023 1211.77,792.644 1211.95,792.148C1212.13,791.651 1212.09,791.052 1211.82,790.294C1210.19,785.717 1207.78,783.616 1205.16,783.186C1201.17,782.534 1196.87,785.612 1194.52,789.078C1193.03,791.273 1192.27,793.638 1193.11,795.324C1193.64,796.393 1194.84,797.096 1196.83,797.316L1197.05,797.371L1197.24,797.472C1197.33,797.532 1197.46,797.642 1197.6,797.809C1198.06,798.356 1198.9,799.803 1199.19,800.996C1199.4,801.818 1199.32,802.544 1198.99,802.99C1198.71,803.368 1198.27,803.644 1197.54,803.623C1197.08,803.609 1196.72,803.224 1196.73,802.765C1196.74,802.305 1197.13,801.943 1197.59,801.957C1197.6,801.957 1197.62,801.956 1197.64,801.955Z"/>
            <path d="M1234.14,800.518C1234.25,800.599 1234.35,800.71 1234.41,800.845C1234.61,801.262 1234.43,801.758 1234.01,801.953C1233.57,802.16 1233.26,802.233 1233.07,802.242L1232.74,802.21L1232.47,802.093L1232.3,801.962L1232.17,801.795L1232.03,801.449L1232.02,801.238L1232.05,800.997C1232.08,800.876 1232.13,800.728 1232.2,800.562C1232.46,800.01 1233.13,799.083 1233.46,798.272C1233.52,798.141 1233.57,797.946 1233.59,797.836C1233.55,797.827 1233.49,797.817 1233.45,797.814C1228.19,797.409 1225.84,795.212 1225.38,792.742C1224.96,790.437 1226.21,787.715 1228.63,785.611C1232.08,782.614 1237.86,780.85 1243.91,783.44C1246.52,784.558 1248.3,785.751 1249.37,786.949C1250.17,787.852 1250.59,788.776 1250.7,789.692C1250.86,791.056 1250.32,792.44 1249.1,793.771C1247.56,795.437 1244.88,797.06 1241.31,798.505L1241.28,801.309C1241.28,801.769 1240.9,802.138 1240.44,802.134C1239.98,802.129 1239.61,801.752 1239.62,801.292L1239.65,797.929C1239.65,797.589 1239.86,797.285 1240.18,797.162C1243.72,795.78 1246.38,794.253 1247.87,792.641C1248.71,791.731 1249.15,790.817 1249.05,789.885C1248.95,789.097 1248.47,788.328 1247.62,787.557C1246.64,786.669 1245.2,785.807 1243.25,784.972C1237.15,782.355 1231.33,784.723 1228.57,788.047C1226.9,790.05 1226.33,792.413 1227.85,794.069C1228.86,795.179 1230.72,795.932 1233.58,796.152C1234.49,796.222 1234.93,796.634 1235.14,797.101C1235.38,797.644 1235.24,798.476 1234.82,799.32C1234.62,799.726 1234.37,800.143 1234.14,800.518Z"/>
            <path d="M1271.05,800.528C1270.94,800.974 1270.49,801.247 1270.04,801.137C1269.6,801.026 1269.32,800.574 1269.43,800.128C1270.34,796.44 1267.65,795.253 1265.38,794.116C1264.38,793.615 1263.44,793.126 1262.75,792.536C1262.19,792.059 1261.79,791.513 1261.6,790.87C1261.29,789.876 1261.47,788.585 1262.63,786.841C1263.64,785.334 1267.46,782.4 1271.59,781.356C1274.45,780.632 1277.42,780.811 1279.74,782.799C1282.45,785.124 1283.4,787.167 1283.43,788.939C1283.46,790.319 1282.94,791.57 1282.15,792.719C1281.44,793.758 1280.5,794.714 1279.63,795.617C1278.93,796.344 1278.27,797.031 1277.85,797.708C1277.61,798.091 1277.44,798.46 1277.46,798.839C1277.47,799.195 1277.67,799.539 1278.03,799.905C1278.36,800.231 1278.36,800.759 1278.03,801.084C1277.71,801.409 1277.18,801.409 1276.85,801.084C1276.12,800.352 1275.82,799.623 1275.79,798.91C1275.76,798.22 1276,797.524 1276.43,796.826C1276.91,796.062 1277.64,795.279 1278.43,794.459C1279.24,793.622 1280.11,792.74 1280.78,791.775C1281.36,790.92 1281.79,790 1281.77,788.972C1281.74,787.535 1280.86,785.95 1278.66,784.065C1276.77,782.444 1274.33,782.382 1272,782.972C1268.34,783.897 1264.91,786.43 1264.02,787.766C1263.25,788.918 1262.99,789.729 1263.19,790.386C1263.33,790.839 1263.68,791.179 1264.12,791.496C1264.69,791.906 1265.39,792.258 1266.13,792.626C1268.14,793.631 1270.27,794.785 1271.01,796.943C1271.34,797.906 1271.41,799.074 1271.05,800.528Z"/>
            <path d="M501.978,797.671C502.414,797.526 502.886,797.762 503.032,798.198C503.177,798.634 502.941,799.107 502.505,799.252C502.324,799.313 502.104,799.561 501.868,799.84C501.457,800.329 501.035,800.962 501.021,801.432C500.93,804.327 500.974,812.264 500.863,813.492C500.821,813.95 500.415,814.288 499.957,814.246C499.499,814.205 499.161,813.799 499.203,813.341C499.314,812.123 499.265,804.252 499.355,801.38C499.378,800.626 499.934,799.549 500.594,798.766C501.074,798.197 501.609,797.794 501.978,797.671Z"/>
            <path d="M502.201,799.186C502.179,799.193 502.149,799.202 502.128,799.212C502.038,799.252 501.944,799.312 501.841,799.39C501.475,799.668 500.952,799.595 500.674,799.229C500.396,798.862 500.468,798.339 500.835,798.061C501.632,797.457 502.303,797.416 502.82,797.624C503.305,797.82 503.739,798.304 504.011,799.096C504.839,801.507 504.372,807.563 504.197,811.746C504.178,812.206 503.79,812.563 503.33,812.544C502.87,812.525 502.513,812.136 502.532,811.677C502.676,808.226 503.065,803.451 502.669,800.696C502.6,800.217 502.51,799.807 502.38,799.491C502.333,799.376 502.238,799.239 502.201,799.186Z"/>
            <path d="M499.472,812.145C499.439,811.686 499.785,811.286 500.244,811.253C500.702,811.22 501.102,811.566 501.135,812.024C501.832,821.652 501.355,828.308 501.255,833.922C501.247,834.382 500.867,834.748 500.407,834.74C499.947,834.732 499.58,834.352 499.589,833.892C499.688,828.316 500.164,821.707 499.472,812.145Z"/>
            <path d="M501.088,833.773C501.084,834.031 501.079,834.615 501.102,835.329C501.182,837.893 501.417,843.082 501.417,851.89C501.417,855.071 500.984,857.757 501.307,863.256C501.334,863.715 500.984,864.11 500.524,864.137C500.065,864.164 499.671,863.813 499.644,863.354C499.317,857.807 499.75,855.098 499.75,851.89C499.75,841.846 499.443,836.52 499.412,834.428C499.402,833.79 499.431,833.399 499.474,833.226L499.544,833.027L499.665,832.833L499.821,832.683L499.977,832.59L500.192,832.523L500.415,832.513L500.641,832.564L500.863,832.684C501.208,832.939 501.299,833.411 501.088,833.773ZM500.315,834.186C500.16,834.176 500.006,834.124 499.872,834.024C500.026,834.138 500.175,834.184 500.315,834.186Z"/>
            <path d="M501.14,863.738C501.17,864.405 501.192,865.229 501.146,865.994C500.966,868.963 501.172,870.691 501.537,871.666C501.656,871.984 501.858,872.224 501.946,872.32C502.373,871.777 503.114,870.41 502.927,863.867C502.785,858.911 503.117,858.945 502.927,854.022C502.91,853.563 503.268,853.175 503.728,853.158C504.188,853.14 504.575,853.499 504.593,853.958C504.782,858.889 504.451,858.855 504.593,863.82C504.826,871.983 503.546,873.005 503.108,873.53L502.905,873.725L502.677,873.867L502.42,873.967L502.135,874.023C501.771,874.059 501.326,873.982 500.886,873.627C500.525,873.336 500.129,872.81 499.847,871.862C499.509,870.728 499.302,868.872 499.482,865.893C499.555,864.692 499.446,863.338 499.426,862.746C499.417,862.469 499.441,862.281 499.461,862.21L499.545,862.002L499.65,861.856L499.823,861.708L499.996,861.623L500.226,861.575L500.449,861.592L500.657,861.664L500.843,861.792L500.978,861.946L501.078,862.132C501.123,862.24 501.205,862.512 501.321,862.996C501.387,863.268 501.311,863.541 501.14,863.738Z"/>
            <path d="M503.67,853.765C503.701,853.854 503.733,853.953 503.765,854.062L504.552,852.978L504.603,853.131L503.814,854.231C503.445,854.231 503.131,853.991 503.022,853.658L502.971,853.505C502.942,853.42 502.927,853.33 502.927,853.237C502.927,852.807 503.252,852.453 503.67,853.765Z"/>
            <path d="M504.698,854.645C504.717,855.105 504.36,855.493 503.9,855.513C503.441,855.532 503.052,855.174 503.033,854.715C502.954,852.829 502.433,840.381 502.874,831.121C503.442,819.18 501.703,819.187 502.554,811.098C502.602,810.641 503.013,810.309 503.47,810.357C503.928,810.405 504.26,810.815 504.212,811.273C503.364,819.324 505.104,819.316 504.539,831.201C504.1,840.402 504.619,852.771 504.698,854.645Z"/>
            <path d="M547.02,819.658C545.4,819.577 544.533,819.698 544.318,819.729C536.184,820.891 507.426,819.047 493.295,819.736C492.836,819.759 492.445,819.404 492.422,818.944C492.4,818.485 492.755,818.094 493.214,818.072C507.302,817.384 535.973,819.237 544.082,818.079C544.324,818.044 545.305,817.901 547.141,817.995C547.274,818.002 547.265,818.01 548.759,818.403C549.204,818.52 549.47,818.976 549.353,819.421C549.236,819.866 548.78,820.132 548.335,820.015C547.438,819.779 547.096,819.68 547.02,819.658Z"/>
            <path d="M546.392,819.909C546.155,819.981 545.888,819.947 545.67,819.793C545.294,819.528 545.204,819.008 545.469,818.632L545.687,818.418L546.017,818.281C546.249,818.231 547.35,818.177 549.17,818.14C566.455,817.795 651.893,818.056 660.12,818.248C706.392,819.324 705.984,818.089 752.213,819.534C752.672,819.548 753.034,819.933 753.02,820.393C753.005,820.852 752.62,821.214 752.161,821.2C705.939,819.755 706.347,820.99 660.081,819.914C651.86,819.723 566.477,819.461 549.204,819.807C547.703,819.837 546.57,819.899 546.392,819.909Z"/>
            <path d="M751.355,821.201C750.896,821.198 750.524,820.823 750.527,820.363C750.529,819.903 750.905,819.532 751.365,819.534C766.259,819.615 889.504,821.532 895.363,821.212C895.822,821.187 896.216,821.539 896.241,821.998C896.266,822.458 895.913,822.851 895.454,822.876C889.591,823.196 766.261,821.282 751.355,821.201Z"/>
            <path d="M893.094,822.977C892.634,822.956 892.278,822.566 892.299,822.107C892.32,821.647 892.71,821.291 893.169,821.312C897.981,821.529 896.887,820.432 945.948,822.434C963.01,823.131 1000.32,820.563 1033.21,822.619C1037.47,822.885 1089.85,824.186 1109.92,824.206C1110.38,824.207 1110.75,824.581 1110.75,825.041C1110.75,825.501 1110.38,825.874 1109.92,825.873C1089.82,825.852 1037.37,824.549 1033.11,824.283C1000.23,822.228 962.935,824.796 945.88,824.1C896.812,822.097 897.906,823.194 893.094,822.977Z"/>
            <path d="M1104.65,825.737C1104.19,825.726 1103.83,825.344 1103.84,824.884C1103.85,824.424 1104.23,824.059 1104.69,824.07C1143.17,824.987 1143.06,824.025 1181.46,822.425C1181.92,822.406 1182.31,822.763 1182.33,823.223C1182.35,823.682 1181.99,824.071 1181.53,824.09C1143.08,825.692 1143.19,826.654 1104.65,825.737Z"/>
            <path d="M1179.9,824.215C1179.45,824.279 1179.03,823.961 1178.96,823.506C1178.9,823.051 1179.21,822.629 1179.67,822.565C1181.74,822.274 1190.77,821.858 1201.17,821.268C1201.63,821.242 1202.02,821.594 1202.05,822.053C1202.08,822.512 1201.73,822.906 1201.27,822.932C1190.93,823.518 1181.95,823.926 1179.9,824.215Z"/>
            <path d="M1198.77,822.976C1198.31,822.995 1197.92,822.637 1197.9,822.177C1197.88,821.718 1198.24,821.329 1198.7,821.311C1209.99,820.848 1222.37,819.61 1223.57,819.535C1224.34,819.487 1229.35,819.079 1232.14,818.613C1232.6,818.537 1233.03,818.844 1233.1,819.298C1233.18,819.751 1232.87,820.181 1232.42,820.257C1229.57,820.732 1224.46,821.149 1223.67,821.199C1222.48,821.273 1210.08,822.513 1198.77,822.976Z"/>
            <path d="M1230.21,817.552C1229.95,814.933 1229.71,812.687 1230.74,810.782C1231.44,809.472 1232.72,808.291 1235.06,807.291C1241.09,804.706 1249.33,809.442 1247.42,818.013L1247.31,818.304C1247.27,818.377 1247.21,818.469 1247.13,818.574C1246.78,819.027 1245.87,819.923 1244.6,820.812C1242.37,822.373 1239.08,823.885 1235.98,823.14C1233.89,822.634 1231.84,821.122 1230.29,817.825C1230.25,817.739 1230.22,817.647 1230.21,817.552ZM1245.82,817.532C1247.28,810.589 1240.62,806.719 1235.71,808.823C1233.84,809.625 1232.77,810.519 1232.2,811.569C1231.35,813.169 1231.63,815.057 1231.86,817.243L1231.86,817.246C1233.11,819.846 1234.69,821.114 1236.37,821.52C1238.99,822.151 1241.76,820.769 1243.64,819.448C1244.71,818.7 1245.65,817.716 1245.82,817.532Z"/>
            <path d="M494.069,830.175C493.688,830.402 493.192,830.291 492.946,829.916C492.694,829.532 492.801,829.015 493.185,828.762C493.388,828.63 493.898,828.463 494.709,828.348C496.185,828.139 498.89,827.966 502.534,827.826C523.142,827.037 574.086,827.289 601.595,827.688C621.91,827.983 622.225,827.688 861.371,827.688C1002.76,827.688 1122.92,831.077 1136.79,829.767C1137.25,829.724 1137.66,830.06 1137.7,830.518C1137.75,830.976 1137.41,831.383 1136.95,831.426C1123.07,832.737 1002.84,829.354 861.371,829.354C622.203,829.354 621.888,829.649 601.571,829.354C574.087,828.955 523.188,828.704 502.598,829.492C499.033,829.628 496.386,829.794 494.943,829.998C494.531,830.056 494.114,830.163 494.069,830.175Z"/>
            <path d="M1129.89,831.621C1129.43,831.63 1129.05,831.265 1129.04,830.805C1129.03,830.345 1129.39,829.964 1129.85,829.954C1170.75,829.116 1170.13,828.171 1205.77,825.201C1226,823.515 1232.07,821.499 1234.26,820.77C1234.7,820.625 1235.17,820.861 1235.31,821.297C1235.46,821.733 1235.22,822.206 1234.79,822.351C1232.57,823.091 1226.41,825.153 1205.91,826.862C1170.22,829.836 1170.84,830.781 1129.89,831.621Z"/>
            <path d="M1245.47,820.222C1245.02,820.316 1244.58,820.026 1244.49,819.575C1244.39,819.125 1244.68,818.683 1245.13,818.59C1257.05,816.124 1255.34,816.553 1267.31,815.465C1267.76,815.424 1268.17,815.762 1268.21,816.22C1268.25,816.678 1267.91,817.083 1267.46,817.125C1255.59,818.204 1257.29,817.777 1245.47,820.222Z"/>
            <path d="M1266.72,815.912C1266.03,814.397 1265.94,813.074 1266.26,811.946C1266.75,810.177 1268.26,808.843 1270.2,808.006C1273.24,806.698 1277.33,806.607 1279.65,807.595C1280.04,807.761 1280.5,808.206 1280.9,808.922C1281.6,810.177 1282.25,812.364 1282.43,814.6C1282.56,816.225 1282.44,817.874 1281.95,819.218C1281.41,820.717 1280.41,821.855 1278.84,822.305C1277.83,822.595 1276.56,822.594 1274.98,822.147C1272.82,821.537 1270.02,820.072 1266.43,817.384C1266.07,817.108 1265.99,816.585 1266.27,816.217C1266.38,816.062 1266.55,815.958 1266.72,815.912ZM1268.05,816.505C1270.59,818.353 1272.68,819.539 1274.41,820.199C1276.1,820.848 1277.4,820.985 1278.38,820.703C1279.41,820.408 1280.03,819.629 1280.39,818.646C1280.8,817.508 1280.88,816.111 1280.77,814.734C1280.63,813.037 1280.2,811.369 1279.69,810.227C1279.54,809.884 1279.38,809.593 1279.21,809.372C1279.13,809.26 1279.07,809.162 1278.99,809.128C1277,808.277 1273.48,808.411 1270.86,809.537C1269.42,810.159 1268.23,811.079 1267.87,812.393C1267.63,813.254 1267.76,814.264 1268.34,815.436C1268.53,815.818 1268.4,816.278 1268.05,816.505Z"/>
            <path d="M1278.03,811.747C1279.11,813.188 1279.36,814.362 1279.19,815.224C1278.89,816.726 1277.32,817.566 1275.55,817.5C1274.1,817.446 1272.58,816.79 1271.78,815.617C1271.21,814.796 1270.97,813.72 1271.35,812.391C1271.41,812.185 1271.74,811.617 1272.32,811.09C1273.07,810.415 1274.22,809.796 1275.47,810.001C1276.29,810.135 1277.18,810.613 1278.03,811.747ZM1272.94,812.899C1272.42,814.826 1274.13,815.779 1275.62,815.834C1276.12,815.853 1276.62,815.774 1277,815.57C1277.28,815.424 1277.49,815.21 1277.55,814.902C1277.66,814.357 1277.38,813.658 1276.7,812.747C1276.19,812.066 1275.69,811.727 1275.2,811.646C1274.49,811.53 1273.86,811.945 1273.44,812.329C1273.2,812.54 1272.98,812.839 1272.94,812.899Z"/>
            <path d="M494.074,839.531C493.614,839.52 493.25,839.138 493.26,838.678C493.271,838.218 493.653,837.854 494.113,837.864C536.097,838.841 536.597,837.643 578.809,837.8C613.819,837.93 613.02,837.162 647.625,838.983C648.084,839.007 648.438,839.4 648.413,839.859C648.389,840.318 647.997,840.672 647.537,840.647C612.973,838.828 613.772,839.596 578.802,839.467C536.574,839.31 536.075,840.507 494.074,839.531Z"/>
            <path d="M645.274,840.574C644.815,840.548 644.463,840.154 644.49,839.695C644.516,839.236 644.91,838.884 645.369,838.911C671.348,840.402 745.095,837.089 780.655,838.315C781.114,838.331 781.474,838.717 781.459,839.177C781.443,839.636 781.057,839.997 780.597,839.981C745.027,838.754 671.26,842.066 645.274,840.574Z"/>
            <path d="M777.971,839.903C777.512,839.903 777.138,839.53 777.138,839.07C777.138,838.61 777.512,838.237 777.971,838.237C782.387,838.237 892.17,841.321 932.415,838.638C932.874,838.608 933.271,838.955 933.302,839.414C933.332,839.873 932.985,840.271 932.526,840.301C892.252,842.986 782.39,839.903 777.971,839.903Z"/>
            <path d="M932.274,840.272C931.814,840.277 931.437,839.907 931.432,839.447C931.427,838.987 931.797,838.61 932.257,838.605C968.189,838.236 969.67,838.534 1006.92,839.541C1018.46,839.853 1067.12,837.834 1073.39,838.085C1073.85,838.103 1074.21,838.491 1074.19,838.951C1074.17,839.41 1073.78,839.769 1073.32,839.75C1067.06,839.5 1018.41,841.519 1006.88,841.207C969.656,840.201 968.176,839.903 932.274,840.272Z"/>
            <path d="M1066.13,839.717C1065.67,839.717 1065.3,839.344 1065.3,838.884C1065.3,838.424 1065.67,838.05 1066.13,838.05C1091.66,838.05 1171.53,835.4 1192.65,841.435C1208.77,846.038 1232.24,848.169 1235.72,848.485C1236.17,848.527 1236.51,848.932 1236.47,849.39C1236.43,849.849 1236.02,850.187 1235.57,850.145C1232.06,849.827 1208.42,847.674 1192.2,843.038C1171.15,837.025 1091.56,839.717 1066.13,839.717Z"/>
            <path d="M1268.3,849.019C1268.3,849.019 1268.3,849.018 1268.3,849.018C1271.89,846.347 1276.4,847.099 1279.36,849.54C1282.34,852.01 1283.73,856.168 1281.04,860.208C1279.83,862.024 1277.2,862.874 1274.37,862.731C1270.52,862.535 1266.4,860.527 1265.32,857.306C1264.85,855.92 1264.9,854.278 1265.8,852.434C1263.54,853.359 1261.76,853.116 1259.45,852.546C1256.39,851.786 1252.32,850.373 1244.4,850.668C1243.94,850.685 1243.55,850.325 1243.54,849.866C1243.52,849.406 1243.88,849.019 1244.34,849.002C1252.5,848.698 1256.7,850.145 1259.86,850.928C1262.73,851.641 1264.66,851.73 1268.3,849.019ZM1269.35,850.314C1266.93,852.881 1266.31,855.04 1266.9,856.773C1267.24,857.785 1267.98,858.622 1268.93,859.285C1270.45,860.353 1272.5,860.967 1274.45,861.066C1276.64,861.177 1278.72,860.683 1279.65,859.284C1281.79,856.079 1280.66,852.784 1278.29,850.825C1275.9,848.849 1272.26,848.189 1269.35,850.314Z"/>
            <g transform="matrix(1,0,0,1,0.527003,-1.13046)">
                <path d="M1278.94,855.72C1278.78,857.543 1277.95,858.281 1277.06,858.756C1276.61,858.994 1276.13,859.135 1275.75,859.364C1273.85,860.512 1272.45,860.639 1271.45,860.34C1270.18,859.962 1269.44,858.883 1269.06,857.798C1268.7,856.764 1268.68,855.755 1268.72,855.511C1268.94,854.221 1269.5,853.466 1270.18,853.028C1270.85,852.593 1271.67,852.471 1272.49,852.538C1273.83,852.65 1275.14,853.289 1275.38,853.362C1276.94,853.848 1277.18,854.059 1278.56,854.948C1278.82,855.115 1278.97,855.412 1278.94,855.72ZM1277.2,856.053C1276.38,855.513 1276.06,855.318 1274.88,854.954C1274.68,854.89 1273.53,854.297 1272.35,854.199C1271.9,854.162 1271.45,854.191 1271.08,854.428C1270.72,854.662 1270.48,855.097 1270.37,855.785C1270.34,855.942 1270.4,856.583 1270.63,857.248C1270.85,857.862 1271.21,858.529 1271.93,858.743C1272.62,858.951 1273.57,858.737 1274.89,857.938C1275.21,857.744 1275.59,857.599 1275.97,857.428C1276.49,857.2 1277,856.889 1277.2,856.053Z"/>
            </g>
            <path d="M1233.48,851.032L1233.48,851.03C1234.17,849.711 1235.02,848.863 1235.94,848.351C1237.39,847.554 1239.05,847.56 1240.73,848.016C1241.9,848.332 1243.09,848.765 1244.12,849.747C1245.13,850.71 1246.01,852.214 1246.52,854.74C1247.15,857.915 1246.46,860.084 1245.14,861.457C1243.2,863.493 1239.74,863.816 1236.67,862.871C1233.58,861.921 1230.97,859.709 1230.63,857.002C1230.4,855.211 1231.12,853.14 1233.48,851.032ZM1234.7,852.177C1232.81,853.83 1232.11,855.392 1232.28,856.794C1232.55,858.923 1234.73,860.531 1237.16,861.278C1239.61,862.031 1242.39,861.928 1243.94,860.305C1244.96,859.239 1245.38,857.532 1244.88,855.067C1244.47,852.999 1243.8,851.743 1242.97,850.954C1242.16,850.184 1241.21,849.873 1240.3,849.625C1239.05,849.287 1237.82,849.22 1236.75,849.81C1236.04,850.203 1235.42,850.884 1234.9,851.923C1234.85,852.02 1234.78,852.106 1234.7,852.177Z"/>
            <g transform="matrix(1,0,0,1,1.79245,2.14881)">
                <path d="M1241.58,853.839C1240.15,856.692 1238.71,857.672 1237.59,857.764C1236.77,857.831 1236.02,857.488 1235.4,856.864C1234.66,856.108 1234.1,854.91 1233.83,853.786C1233.58,852.777 1233.59,851.827 1233.79,851.272C1233.83,851.163 1233.88,851.064 1233.93,850.975L1234.15,850.69L1234.36,850.523L1234.6,850.397C1237.84,849.186 1239.61,849.411 1240.54,849.988C1241.42,850.529 1241.75,851.4 1241.81,852.201C1241.86,852.936 1241.68,853.591 1241.61,853.776C1241.6,853.797 1241.59,853.819 1241.58,853.839ZM1235.35,851.9C1235.33,851.992 1235.3,852.16 1235.3,852.292C1235.3,852.618 1235.35,852.999 1235.45,853.395C1235.62,854.101 1235.92,854.853 1236.35,855.413C1236.65,855.814 1237.01,856.139 1237.45,856.103C1237.78,856.076 1238.11,855.87 1238.49,855.496C1238.99,854.998 1239.51,854.23 1240.07,853.134L1240.07,853.128C1240.11,853.001 1240.17,852.678 1240.14,852.322C1240.12,851.998 1240.03,851.626 1239.67,851.407C1239.37,851.221 1238.93,851.143 1238.31,851.18C1237.56,851.225 1236.59,851.445 1235.35,851.9Z"/>
            </g>
            <g transform="matrix(1,0,0,1,3.72211,-0.133014)">
                <path d="M1203.56,857.512C1201.81,859.119 1200.65,859.454 1199.84,859.404C1199.02,859.354 1198.49,858.877 1197.93,858.589C1197,858.112 1196.44,857.242 1196.14,856.312C1195.73,855.059 1195.8,853.722 1195.84,853.427L1195.94,853.114L1196.15,852.819C1196.32,852.641 1196.65,852.426 1197.09,852.255C1198.27,851.799 1200.41,851.571 1201.94,852.568C1202.5,852.929 1203.07,853.296 1203.45,853.933C1203.84,854.572 1204.08,855.499 1203.82,857.035C1203.79,857.218 1203.7,857.386 1203.56,857.512ZM1197.47,853.922C1197.46,854.329 1197.49,855.081 1197.72,855.796C1197.89,856.319 1198.17,856.839 1198.69,857.107C1198.9,857.214 1199.1,857.354 1199.32,857.49C1199.5,857.604 1199.69,857.725 1199.94,857.741C1200.47,857.773 1201.13,857.44 1202.22,856.48L1202.22,856.478C1202.32,855.675 1202.25,855.16 1202.03,854.797C1201.78,854.392 1201.39,854.194 1201.03,853.964C1200.23,853.438 1199.16,853.456 1198.35,853.621C1198.02,853.687 1197.66,853.839 1197.47,853.922Z"/>
            </g>
            <path d="M1196.99,849.912C1198.76,847.706 1200.1,846.739 1201.26,846.372C1202.49,845.983 1203.57,846.227 1204.8,846.585C1207.5,847.367 1209.63,850.132 1210.43,853.148C1211.25,856.235 1210.67,859.515 1208.16,861.185C1203.78,864.107 1200.96,864.195 1199.23,863.12C1197.58,862.094 1196.78,859.9 1196.52,857.534C1196.16,854.296 1196.74,850.782 1196.82,850.296C1196.84,850.155 1196.9,850.023 1196.99,849.912ZM1198.43,850.784L1198.43,850.786C1198.29,851.676 1197.87,854.618 1198.17,857.351C1198.37,859.167 1198.84,860.917 1200.11,861.704C1200.74,862.095 1201.56,862.208 1202.62,861.99C1203.86,861.734 1205.37,861.041 1207.24,859.798C1209.16,858.514 1209.45,855.95 1208.82,853.576C1208.17,851.131 1206.52,848.82 1204.34,848.186C1203.44,847.925 1202.66,847.678 1201.77,847.961C1200.83,848.255 1199.82,849.076 1198.43,850.784Z"/>
            <path d="M1232.77,851.096C1233.22,851.155 1233.55,851.573 1233.49,852.029C1233.43,852.485 1233.01,852.808 1232.56,852.749C1213.41,850.295 1213.13,851.329 1205.96,848.94C1205.53,848.795 1205.29,848.323 1205.43,847.886C1205.58,847.45 1206.05,847.214 1206.49,847.359C1213.57,849.719 1213.85,848.671 1232.77,851.096Z"/>
            <path d="M1199.43,847.007C1199.88,847.086 1200.18,847.519 1200.11,847.972C1200.03,848.425 1199.59,848.728 1199.14,848.649C1177.39,844.851 1176.99,845.674 1154.85,845.532C1154.39,845.529 1154.02,845.153 1154.02,844.693C1154.02,844.233 1154.4,843.862 1154.86,843.865C1177.14,844.008 1177.54,843.186 1199.43,847.007Z"/>
            <path d="M1156.61,845.544C1156.39,845.548 1155.42,845.571 1154.35,845.635C1147.99,846.018 1131.09,847.338 1120.08,846.42C1105.93,845.24 1092.93,846.737 1059.31,846.091C1058.85,846.082 1058.48,845.701 1058.49,845.242C1058.5,844.782 1058.88,844.416 1059.34,844.424C1093.02,845.072 1106.04,843.577 1120.22,844.759C1132.53,845.785 1152.24,843.987 1156.13,843.877C1156.52,843.866 1156.78,843.876 1156.9,843.895L1157.23,844.003L1157.47,844.206L1157.64,844.525C1157.76,844.969 1157.5,845.427 1157.05,845.547C1156.9,845.588 1156.75,845.584 1156.61,845.544ZM1156.23,845.319C1156.14,845.222 1156.07,845.1 1156.03,844.96C1156.06,845.077 1156.12,845.205 1156.23,845.319Z"/>
            <path d="M1064.32,844.408C1064.78,844.41 1065.15,844.784 1065.15,845.244C1065.15,845.704 1064.78,846.076 1064.32,846.075C1056.16,846.054 985.474,848.352 964.028,847.527C963.569,847.509 963.21,847.122 963.228,846.662C963.245,846.202 963.633,845.844 964.092,845.861C985.525,846.686 1056.17,844.388 1064.32,844.408Z"/>
            <path d="M967.716,845.976C968.176,845.967 968.557,846.332 968.566,846.792C968.576,847.252 968.21,847.633 967.75,847.643C957.515,847.856 890.138,847.085 883.813,847.599C883.355,847.636 882.952,847.294 882.915,846.836C882.878,846.378 883.22,845.975 883.678,845.938C890.01,845.424 957.468,846.19 967.716,845.976Z"/>
            <path d="M884.053,845.861C884.513,845.845 884.899,846.206 884.914,846.665C884.93,847.125 884.57,847.511 884.11,847.527C851.736,848.643 807.082,848.643 800.383,848.643C799.923,848.643 799.55,848.27 799.55,847.81C799.55,847.35 799.923,846.977 800.383,846.977C807.077,846.977 851.701,846.977 884.053,845.861Z"/>
            <path d="M796.085,849.018C746.283,849.082 722.708,850.349 713.502,849.864C713.043,849.84 712.69,849.447 712.714,848.988C712.738,848.529 713.131,848.175 713.59,848.2C723.024,848.696 747.568,847.349 800.011,847.349C800.463,847.349 800.832,847.709 800.844,848.161C800.856,848.612 800.505,848.991 800.054,849.014L796.636,849.19C796.43,849.2 796.237,849.135 796.085,849.018Z"/>
            <path d="M714.274,848.225C714.392,848.174 714.524,848.15 714.661,848.16C714.823,848.171 714.926,848.188 714.972,848.199L715.224,848.302L715.443,848.493L715.604,848.819L715.625,849.087L715.565,849.335L715.469,849.508L715.328,849.659L715.048,849.814C714.979,849.837 714.581,849.887 713.892,849.909C706.057,850.153 651.201,850.297 645.764,850.2C645.304,850.191 644.937,849.811 644.945,849.351C644.954,848.892 645.334,848.525 645.793,848.533C651.224,848.63 706.015,848.487 713.84,848.243C713.994,848.238 714.146,848.231 714.274,848.225Z"/>
            <path d="M646.333,848.541C646.792,848.517 647.184,848.871 647.208,849.331C647.231,849.79 646.877,850.182 646.418,850.205C600.835,852.527 511.013,850.702 491.745,853.454C491.29,853.519 490.868,853.203 490.803,852.747C490.738,852.292 491.054,851.869 491.51,851.804C510.796,849.049 600.706,850.865 646.333,848.541Z"/>
            <path d="M491.373,863.453C490.913,863.463 490.532,863.098 490.522,862.638C490.512,862.179 490.877,861.797 491.337,861.787C586.254,859.713 585.931,862.893 680.901,859.502C681.36,859.485 681.747,859.845 681.763,860.305C681.78,860.764 681.42,861.151 680.96,861.167C585.979,864.559 586.302,861.379 491.373,863.453Z"/>
            <path d="M678.014,861.354C677.556,861.387 677.156,861.042 677.122,860.584C677.088,860.125 677.433,859.725 677.892,859.691C689.591,858.83 689.088,861.904 829.321,856.061C829.78,856.042 830.169,856.399 830.188,856.859C830.207,857.318 829.85,857.707 829.39,857.726C689.206,863.567 689.709,860.493 678.014,861.354Z"/>
            <path d="M828.891,857.765C828.432,857.796 828.035,857.448 828.004,856.99C827.973,856.531 828.32,856.133 828.779,856.102C840.383,855.32 832.493,856.565 969.987,852.849C970.447,852.836 970.83,853.199 970.843,853.659C970.855,854.119 970.492,854.502 970.032,854.515C832.603,858.229 840.49,856.984 828.891,857.765Z"/>
            <path d="M968.156,854.418C967.696,854.422 967.319,854.052 967.315,853.592C967.311,853.132 967.681,852.755 968.141,852.751C970.58,852.73 1152.36,853.295 1196.44,849.815C1196.9,849.779 1197.3,850.121 1197.34,850.58C1197.37,851.038 1197.03,851.44 1196.57,851.476C1152.47,854.958 970.596,854.396 968.156,854.418Z"/>
            <path d="M1271.49,869.051C1271.5,869.082 1271.5,869.131 1271.51,869.163C1271.54,869.272 1271.58,869.386 1271.62,869.504C1271.76,869.871 1271.93,870.265 1272.03,870.657C1272.17,871.21 1272.17,871.761 1271.93,872.278C1271.63,872.925 1270.87,873.608 1269.08,874.022C1266.03,874.725 1264.59,877.273 1264.1,879.543C1263.78,880.998 1263.82,882.347 1264.16,882.995C1267.11,888.598 1272.32,889.037 1276.63,887.307C1279.39,886.197 1281.8,884.215 1283.03,882.089C1283.77,880.809 1284.09,879.482 1283.68,878.297C1283.23,876.992 1281.92,875.924 1279.58,875.223C1277.89,874.716 1276.83,874.002 1276.15,873.221C1275.31,872.265 1275.03,871.192 1274.94,870.159C1274.87,869.295 1274.96,868.471 1274.89,867.827C1274.85,867.369 1275.18,866.961 1275.64,866.915C1276.1,866.869 1276.51,867.204 1276.55,867.661C1276.61,868.197 1276.56,868.854 1276.58,869.555C1276.6,870.396 1276.71,871.326 1277.4,872.125C1277.93,872.724 1278.77,873.237 1280.06,873.627C1283.44,874.641 1285.02,876.423 1285.42,878.363C1285.82,880.29 1285.03,882.47 1283.43,884.414C1278.87,889.959 1267.83,893.538 1262.69,883.771C1262.23,882.91 1262.05,881.122 1262.47,879.188C1263.08,876.374 1264.92,873.27 1268.7,872.398C1269.68,872.173 1270.2,871.948 1270.41,871.601C1270.53,871.392 1270.45,871.162 1270.38,870.935C1270.29,870.648 1270.16,870.363 1270.06,870.094C1269.74,869.233 1269.72,868.47 1270.28,867.914C1270.6,867.589 1271.13,867.589 1271.45,867.914C1271.77,868.226 1271.78,868.724 1271.49,869.051Z"/>
            <path d="M1234.15,871.32C1234.23,870.867 1234.44,869.588 1234.82,867.304C1234.89,866.85 1235.32,866.543 1235.78,866.619C1236.23,866.694 1236.54,867.124 1236.46,867.578C1235.94,870.685 1235.82,871.675 1235.7,872.034L1235.59,872.297L1235.45,872.487L1235.27,872.642L1235.06,872.758C1234.56,872.978 1231.8,873.621 1229.66,874.605C1229.02,874.899 1228.43,875.221 1228.01,875.579C1227.74,875.804 1227.52,876.015 1227.51,876.278C1227.43,878.42 1227.44,880.099 1227.62,881.431C1227.79,882.614 1228.09,883.498 1228.66,884.168C1229.23,884.84 1230.05,885.286 1231.19,885.652C1232.46,886.063 1234.11,886.357 1236.21,886.657C1238.53,886.989 1242.26,885.904 1244.72,883.982C1246.23,882.805 1247.29,881.308 1247.03,879.57C1246.73,877.555 1244.8,875.366 1240.42,873.024C1240.17,872.891 1240.01,872.642 1239.98,872.361C1239.85,870.849 1240.33,869.594 1240.74,868.637C1240.76,868.577 1240.79,868.514 1240.81,868.45C1240.76,868.422 1240.7,868.386 1240.65,868.344L1239.81,867.619C1239.54,867.392 1239.44,867.024 1239.56,866.696C1239.68,866.369 1240,866.152 1240.35,866.152C1241.54,866.152 1242.13,866.442 1242.42,866.754L1242.59,867.007L1242.71,867.285L1242.76,867.61C1242.76,867.742 1242.75,867.884 1242.72,868.036C1242.64,868.428 1242.41,868.935 1242.16,869.543C1241.91,870.158 1241.64,870.908 1241.62,871.783C1246.39,874.422 1248.34,877.056 1248.68,879.325C1249.03,881.648 1247.77,883.724 1245.75,885.296C1242.92,887.499 1238.63,888.687 1235.98,888.307C1231.36,887.647 1228.79,886.904 1227.39,885.244C1225.98,883.584 1225.67,880.928 1225.85,876.216C1225.88,875.292 1226.65,874.373 1227.88,873.65C1229.88,872.471 1233.13,871.655 1234.15,871.32Z"/>
            <path d="M1197.59,871.076C1198.04,870.661 1198.28,870.339 1198.38,870.02C1198.49,869.688 1198.44,869.379 1198.39,869.013C1198.28,868.279 1198.14,867.394 1198.38,866.077C1198.46,865.624 1198.9,865.324 1199.35,865.406C1199.8,865.488 1200.1,865.922 1200.02,866.375C1199.77,867.773 1200.04,868.598 1200.1,869.316C1200.17,870.29 1200.02,871.15 1198.54,872.466L1198.24,872.647L1197.82,872.737C1197.32,872.793 1196.15,872.75 1195,872.926C1194.5,873.003 1194.01,873.12 1193.59,873.324C1193.13,873.549 1192.77,873.89 1192.74,874.465C1192.45,880.566 1194.11,883.739 1196.72,884.947C1198.25,885.657 1200.07,885.672 1201.89,885.262C1204.75,884.619 1207.62,882.924 1209.52,880.982C1210.38,880.098 1211.05,879.167 1211.39,878.259C1211.83,877.12 1211.7,876.029 1210.68,875.234C1204.04,870.067 1204.12,867.724 1204.05,866.783C1203.82,866.535 1203.76,866.168 1203.92,865.853C1204.13,865.442 1204.63,865.275 1205.04,865.481L1205.31,865.663L1205.51,865.92L1205.64,866.226C1205.67,866.323 1205.69,866.436 1205.7,866.567C1205.77,867.358 1205.73,869.274 1211.71,873.919C1214.34,875.966 1213.51,879.292 1210.71,882.148C1208.6,884.3 1205.42,886.176 1202.25,886.888C1200.06,887.383 1197.87,887.316 1196.02,886.459C1192.98,885.053 1190.73,881.484 1191.08,874.384C1191.17,872.429 1192.89,871.564 1194.75,871.279C1195.84,871.111 1197.21,871.081 1197.59,871.076Z"/>
            <path d="M1301.01,800.303C1301.16,800.53 1302.07,801.883 1303.04,803.269C1308.71,811.32 1322.33,832.44 1310.03,857.059C1309.36,858.381 1308.99,861.272 1306.79,864.582C1304.48,868.05 1306.64,865.548 1303.77,868.416C1303.44,868.742 1302.91,868.742 1302.59,868.416C1302.26,868.091 1302.26,867.563 1302.59,867.238C1305.27,864.563 1303.24,866.892 1305.4,863.657C1307.55,860.43 1307.89,857.602 1308.53,856.313C1320.46,832.469 1307.17,812.026 1301.68,804.229C1300.52,802.579 1299.69,801.457 1299.47,800.956L1299.37,800.69L1299.34,800.431L1299.36,800.189L1299.43,799.991C1299.64,799.58 1300.14,799.413 1300.55,799.619C1300.82,799.755 1300.99,800.02 1301.01,800.303Z"/>
            <path d="M1300.92,868.605C1287.6,868.777 1281.74,868.451 1188.2,866.652C1187.74,866.643 1187.37,866.263 1187.38,865.803C1187.39,865.343 1187.77,864.977 1188.23,864.986C1288.08,866.906 1287.97,867.147 1303.74,866.897C1304.19,866.89 1304.57,867.238 1304.59,867.686C1304.61,868.133 1304.28,868.519 1303.83,868.56L1301.5,868.774C1301.29,868.794 1301.08,868.728 1300.92,868.605Z"/>
            <path d="M1180.77,864.931C1181.86,865.025 1183.98,864.959 1188.71,864.948C1189.17,864.947 1189.55,865.32 1189.55,865.78C1189.55,866.24 1189.17,866.614 1188.71,866.615C1182.43,866.629 1180.51,866.678 1179.63,866.422L1179.37,866.299L1179.12,866.046L1178.98,865.717L1178.95,865.372C1178.95,865.257 1178.97,865.132 1178.99,865.015L1179.13,864.645L1179.31,864.404L1179.56,864.224C1179.97,864.018 1180.47,864.185 1180.68,864.597C1180.73,864.704 1180.76,864.818 1180.77,864.931ZM1180.58,865.499C1180.5,865.586 1180.41,865.661 1180.31,865.715C1180.38,865.679 1180.51,865.617 1180.58,865.499Z"/>
            <path d="M1178.97,865.161C1178.91,865.113 1178.86,865.067 1178.8,865.022C1177.02,863.615 1173.23,861.342 1169.23,859.8C1162.57,857.241 1163.02,856.378 1155.56,857.336C1155.1,857.394 1154.68,857.071 1154.62,856.615C1154.57,856.159 1154.89,855.741 1155.34,855.683C1163.25,854.668 1162.78,855.535 1169.82,858.244C1173.73,859.747 1177.43,861.922 1179.42,863.4C1180.07,863.881 1180.55,864.298 1180.82,864.603C1181,864.818 1181.11,865.009 1181.17,865.153L1181.24,865.544L1181.17,865.911L1180.98,866.196L1180.73,866.376C1180.55,866.473 1180.13,866.562 1179.47,866.379C1179.03,866.257 1178.77,865.797 1178.89,865.354C1178.91,865.285 1178.94,865.22 1178.97,865.161Z"/>
            <path d="M1299.97,801.216C1299.79,801.212 1299.09,801.199 1298.26,801.204C1286.99,801.279 1229.01,802.778 1217.16,803.633C1216.71,803.667 1216.31,803.321 1216.27,802.862C1216.24,802.404 1216.59,802.004 1217.05,801.971C1228.9,801.114 1286.97,799.612 1298.24,799.538C1299.49,799.53 1300.21,799.557 1300.32,799.582L1300.51,799.649L1300.69,799.771L1300.91,800.067L1300.97,800.286L1300.97,800.526L1300.89,800.772L1300.74,800.991C1300.53,801.2 1300.24,801.274 1299.97,801.216ZM1299.39,800.759C1299.34,800.639 1299.31,800.508 1299.31,800.378C1299.31,800.504 1299.33,800.633 1299.39,800.759ZM1299.32,800.353C1299.33,800.156 1299.41,799.963 1299.56,799.813C1299.38,799.989 1299.33,800.182 1299.32,800.353Z"/>
            <path d="M1219.86,801.877C1220.32,801.877 1220.69,802.25 1220.69,802.71C1220.69,803.17 1220.32,803.543 1219.86,803.544C1217.78,803.547 1196.76,803.57 1193.8,803.782C1187.56,804.227 1187.7,804.463 1181.54,803.779C1181.08,803.728 1180.75,803.316 1180.8,802.859C1180.85,802.402 1181.27,802.072 1181.72,802.122C1187.73,802.79 1187.6,802.554 1193.68,802.119C1196.65,801.907 1217.77,801.88 1219.86,801.877Z"/>
            <path d="M1181.29,802.208C1181.67,801.953 1182.19,802.057 1182.44,802.439C1182.7,802.822 1182.59,803.34 1182.21,803.595C1167.54,813.377 1168.83,813.661 1151.06,813.979C1150.6,813.987 1150.22,813.62 1150.21,813.16C1150.21,812.701 1150.57,812.321 1151.03,812.312C1168.3,812.004 1167.03,811.711 1181.29,802.208Z"/>
            <path d="M1158.71,855.344C1159.16,855.287 1159.58,855.611 1159.64,856.068C1159.69,856.524 1159.37,856.941 1158.91,856.998C1146.77,858.516 1128.99,857.603 1113.45,858.798C1086.36,860.882 1029.17,858.033 1018.51,859.218C1018.06,859.269 1017.64,858.939 1017.59,858.482C1017.54,858.024 1017.87,857.612 1018.33,857.561C1029,856.376 1086.22,859.221 1113.32,857.136C1128.84,855.943 1146.58,856.86 1158.71,855.344Z"/>
            <path d="M1019.1,857.592C1019.56,857.573 1019.95,857.93 1019.96,858.39C1019.98,858.849 1019.63,859.238 1019.17,859.257C960.348,861.708 955.464,861.231 949.951,860.7C945.159,860.238 942.707,860.126 889.811,862.792C840.164,865.294 791.819,863.378 788.484,863.808C788.028,863.867 787.61,863.544 787.551,863.088C787.493,862.632 787.815,862.214 788.271,862.155C791.61,861.724 840.017,863.633 889.727,861.127C942.837,858.451 945.3,858.577 950.111,859.041C955.605,859.571 960.473,860.034 1019.1,857.592Z"/>
            <path d="M789.345,862.132C789.805,862.119 790.188,862.483 790.2,862.942C790.213,863.402 789.85,863.785 789.39,863.798C785.768,863.895 766.697,864.532 761.261,864.865C743.721,865.937 712.123,865.891 697.135,865.314C696.675,865.296 696.316,864.909 696.334,864.449C696.352,863.99 696.739,863.631 697.199,863.649C712.149,864.224 743.665,864.271 761.159,863.201C766.606,862.868 785.716,862.229 789.345,862.132Z"/>
            <path d="M696.551,806.053C696.551,806.22 696.55,806.909 696.6,807.648C696.922,812.437 698.353,825.654 698,844.742C697.766,857.391 698.311,861.244 698.418,862.898C698.477,863.823 698.405,864.217 698.129,864.765C697.922,865.176 697.42,865.342 697.01,865.135C696.599,864.928 696.433,864.426 696.64,864.016C696.868,863.563 696.782,863.273 696.686,862.157C696.507,860.067 696.131,855.648 696.333,844.711C696.686,825.697 695.258,812.53 694.937,807.76C694.866,806.698 694.859,806.01 694.912,805.718L695.025,805.374L695.191,805.148C695.516,804.822 696.044,804.822 696.37,805.148C696.614,805.392 696.675,805.752 696.551,806.053Z"/>
            <path d="M695.986,806.916C695.526,806.934 695.139,806.575 695.121,806.115C695.103,805.656 695.462,805.268 695.922,805.251C774.474,802.229 780.337,807.499 802.789,805.254C803.247,805.208 803.656,805.543 803.701,806C803.747,806.458 803.413,806.867 802.955,806.913C780.482,809.16 774.613,803.892 695.986,806.916Z"/>
            <path d="M797.479,807.263C797.02,807.252 796.656,806.869 796.667,806.409C796.679,805.949 797.061,805.585 797.521,805.597C834.018,806.509 844.493,808.529 850.408,807.684C850.864,807.619 851.286,807.936 851.351,808.392C851.416,808.847 851.099,809.269 850.644,809.334C844.698,810.184 834.167,808.18 797.479,807.263Z"/>
            <path d="M848.81,809.422C848.35,809.434 847.967,809.071 847.955,808.611C847.942,808.151 848.305,807.768 848.765,807.756C866.553,807.277 866.445,806.718 884.213,808.199C896.457,809.219 918.616,808.069 930.125,808.891C930.583,808.924 930.929,809.323 930.897,809.782C930.864,810.241 930.465,810.586 930.006,810.554C918.493,809.731 896.323,810.88 884.075,809.86C866.399,808.387 866.505,808.946 848.81,809.422Z"/>
            <path d="M929.42,810.304C928.962,810.255 928.631,809.844 928.68,809.386C928.729,808.929 929.14,808.597 929.597,808.646C937.381,809.481 987.251,809.167 991.248,809.738C995.124,810.291 1003.6,812.072 1040.5,810.13C1040.96,810.106 1041.35,810.459 1041.37,810.918C1041.4,811.378 1041.05,811.77 1040.59,811.794C1003.45,813.749 994.914,811.945 991.013,811.387C987.02,810.817 937.196,811.137 929.42,810.304Z"/>
            <path d="M1038.96,811.845C1038.5,811.838 1038.13,811.459 1038.14,810.999C1038.14,810.539 1038.52,810.172 1038.98,810.179C1052.08,810.388 1109.41,811.393 1116.48,811.73C1116.94,811.752 1117.3,812.142 1117.28,812.602C1117.25,813.061 1116.86,813.416 1116.4,813.395C1109.34,813.058 1052.05,812.054 1038.96,811.845Z"/>
            <path d="M1113.37,813.282C1112.92,813.243 1112.58,812.84 1112.61,812.382C1112.65,811.924 1113.05,811.582 1113.51,811.621C1131.54,813.123 1140.4,811.425 1155.04,812.286C1155.5,812.313 1155.85,812.707 1155.82,813.167C1155.8,813.626 1155.4,813.977 1154.94,813.95C1140.29,813.088 1131.42,814.785 1113.37,813.282Z"/>
            <path d="M690.397,791.034C688.206,789.455 686.094,787.076 683.813,784.735C681.619,782.483 679.264,780.264 676.478,778.929C651.49,766.955 633.283,772.981 632.028,773.202C620.709,775.2 607.317,783.384 599.404,790.845C598.445,791.749 593.262,797.967 590.168,803.011C588.917,805.05 587.986,806.868 587.931,808.021C587.909,808.48 587.518,808.836 587.059,808.814C586.6,808.792 586.244,808.401 586.266,807.942C586.33,806.616 587.308,804.485 588.747,802.139C591.93,796.95 597.274,790.562 598.261,789.632C606.378,781.979 620.128,773.61 631.738,771.561C633.022,771.335 651.642,765.18 677.198,777.426C680.157,778.844 682.676,781.18 685.007,783.572C687.232,785.856 689.281,788.189 691.42,789.717C691.477,789.758 691.897,790.2 692.512,790.91C694.704,793.443 699.888,799.624 700.279,800.329C700.374,800.499 700.415,800.615 700.478,800.893C700.565,801.278 700.753,802.176 701.751,805.169C701.897,805.605 701.66,806.078 701.224,806.223C700.788,806.368 700.315,806.132 700.17,805.696C699.283,803.035 699.015,801.97 698.899,801.468C698.854,801.273 698.868,801.22 698.822,801.138C698.442,800.453 693.382,794.463 691.251,792.001C690.848,791.535 690.483,791.129 690.397,791.034Z"/>
            <path d="M583.472,821.67C583.421,822.127 583.01,822.458 582.552,822.408C582.095,822.357 581.765,821.945 581.815,821.488C582.11,818.804 585.839,808.417 586.581,806.614C586.756,806.189 587.244,805.986 587.669,806.161C588.094,806.336 588.298,806.824 588.122,807.249C587.403,808.997 583.758,819.066 583.472,821.67Z"/>
            <path d="M581.87,821.765C581.778,821.514 581.807,821.223 581.975,820.989L582.195,820.733L582.349,820.627L582.561,820.547L582.837,820.529L583.158,820.63L583.335,820.761L583.451,820.9L583.551,821.105L583.59,821.286C583.597,821.35 583.594,821.516 583.548,821.817C583.441,822.524 583.124,824.515 582.905,829.124C582.883,829.584 582.492,829.939 582.033,829.917C581.573,829.895 581.218,829.505 581.24,829.045C581.447,824.69 581.74,822.623 581.87,821.765Z"/>
            <path d="M581.25,829.091C581.291,828.633 581.696,828.294 582.154,828.335C582.612,828.376 582.951,828.781 582.91,829.239C582.742,831.125 582.824,838.331 582.901,839.018C582.951,839.475 582.622,839.887 582.164,839.938C581.707,839.989 581.295,839.659 581.244,839.202C581.165,838.492 581.076,831.041 581.25,829.091Z"/>
            <path d="M581.203,839.787C581.195,839.327 581.563,838.948 582.023,838.94C582.482,838.933 582.862,839.301 582.869,839.76C582.887,840.865 583.865,849.455 584.045,849.904C584.215,850.331 584.007,850.817 583.58,850.988C583.153,851.158 582.668,850.95 582.497,850.523C582.307,850.047 581.221,840.957 581.203,839.787Z"/>
            <path d="M582.514,850.269C582.463,849.812 582.793,849.4 583.25,849.349C583.707,849.298 584.119,849.628 584.17,850.085C584.598,853.942 585.781,857.844 588.29,860.911C588.581,861.267 588.529,861.792 588.173,862.084C587.817,862.375 587.291,862.322 587,861.966C584.286,858.649 582.977,854.44 582.514,850.269Z"/>
            <path d="M588.881,861.981C588.995,862.404 589.264,863.309 589.725,864.373C591.38,868.196 595.507,875.28 604.514,883.536C605.212,884.176 614.385,889.904 621.385,893.465C624.301,894.949 626.82,896.068 628.15,896.216C628.607,896.267 628.937,896.679 628.886,897.136C628.835,897.594 628.423,897.923 627.966,897.873C626.528,897.713 623.782,896.555 620.629,894.951C613.468,891.307 604.102,885.419 603.388,884.764C594.122,876.271 589.898,868.968 588.195,865.036C587.396,863.191 587.145,862.01 587.149,861.704L587.179,861.464L587.245,861.283L587.4,861.064L587.601,860.911L587.944,860.81L588.251,860.844L588.445,860.928L588.605,861.051L588.82,861.342C588.929,861.546 588.944,861.775 588.881,861.981Z"/>
            <path d="M627.077,897.695C626.645,897.538 626.421,897.059 626.579,896.627C626.736,896.195 627.214,895.971 627.647,896.129C629.983,896.979 654.479,899.023 672.816,892.521C680.353,889.85 686.7,883.466 691.343,877.607C696.107,871.595 699.116,866.107 699.79,865.434C700.115,865.109 700.643,865.109 700.968,865.434C701.293,865.759 701.293,866.287 700.968,866.612C700.303,867.277 697.352,872.708 692.649,878.642C687.826,884.728 681.201,891.317 673.373,894.092C654.582,900.755 629.471,898.566 627.077,897.695Z"/>
            <path d="M691.165,861.336C690.96,861.748 690.459,861.915 690.047,861.709C689.636,861.503 689.469,861.002 689.674,860.591C692.635,854.669 694.992,850.714 695.248,849.947C695.393,849.51 695.866,849.274 696.302,849.419C696.738,849.565 696.975,850.037 696.829,850.473C696.569,851.256 694.184,855.298 691.165,861.336Z"/>
            <path d="M690.642,862.204C689.077,865.322 680.617,879.908 656.258,887.073C655.817,887.203 655.353,886.95 655.224,886.508C655.094,886.067 655.347,885.604 655.788,885.474C682.372,877.655 689.032,861.541 689.485,860.767L689.705,860.508L689.882,860.4L690.11,860.334L690.334,860.333L690.58,860.404L690.857,860.613L690.982,860.804L691.046,860.998C691.055,861.041 691.067,861.291 690.951,861.744C690.901,861.936 690.789,862.095 690.642,862.204Z"/>
            <path d="M600.81,863.135C600.733,863.068 600.667,862.985 600.618,862.889C600.508,862.677 600.458,862.558 600.45,862.533L600.414,862.189L600.527,861.849L600.688,861.654L600.932,861.502L601.233,861.442L601.528,861.492L601.78,861.637L601.959,861.841C602.435,862.544 609.625,874.282 624.88,881.91C641.887,890.413 651.432,886.784 658.989,884.462C659.428,884.327 659.895,884.575 660.03,885.014C660.165,885.454 659.918,885.92 659.478,886.056C651.648,888.461 641.757,892.212 624.134,883.4C610.009,876.338 602.216,865.26 600.81,863.135Z"/>
            <path d="M601.467,860.515C601.722,860.898 601.619,861.416 601.236,861.671C600.853,861.926 600.336,861.822 600.08,861.44C597.145,857.037 595.933,855.221 594.657,850.072C594.546,849.626 594.819,849.173 595.265,849.063C595.712,848.952 596.164,849.225 596.275,849.671C597.493,854.586 598.665,856.312 601.467,860.515Z"/>
            <path d="M594.626,850.208C594.614,850.003 594.574,849.454 594.482,848.914C594.153,846.977 593.383,843.635 592.632,839.323C592.554,838.869 592.857,838.438 593.31,838.359C593.764,838.28 594.195,838.584 594.274,839.037C595.237,844.565 596.223,848.515 596.297,849.986C596.32,850.435 596.251,850.747 596.166,850.923L595.928,851.244L595.641,851.421C595.214,851.591 594.729,851.381 594.56,850.953C594.459,850.699 594.493,850.424 594.626,850.208Z"/>
            <path d="M594.469,839.924C594.549,840.377 594.245,840.809 593.792,840.888C593.339,840.967 592.907,840.664 592.828,840.211C592.512,838.408 592.364,829.038 592.463,828.242C592.52,827.786 592.937,827.461 593.394,827.518C593.85,827.576 594.174,827.992 594.117,828.449C594.022,829.212 594.167,838.195 594.469,839.924Z"/>
            <path d="M594.128,828.731C594.082,829.188 593.673,829.523 593.216,829.477C592.758,829.431 592.424,829.022 592.47,828.565C592.746,825.799 594.074,812.304 608.594,797.785C608.919,797.459 609.447,797.459 609.772,797.785C610.098,798.11 610.098,798.638 609.772,798.963C595.721,813.015 594.396,826.054 594.128,828.731Z"/>
            <path d="M676.368,791.691C676.425,791.745 676.653,791.957 676.882,792.16C678.338,793.449 682.077,796.64 685.365,799.748C688.211,802.438 690.698,805.098 691.248,806.474C691.419,806.901 691.211,807.386 690.784,807.557C690.357,807.728 689.871,807.52 689.701,807.093C689.194,805.827 686.84,803.436 684.22,800.959C680.948,797.866 677.226,794.69 675.778,793.408C675.323,793.006 675.062,792.736 675.018,792.669C674.693,792.182 674.111,791.713 673.356,791.24C672.084,790.442 670.343,789.673 668.368,788.947C660.543,786.073 649.089,783.919 647.843,783.883C631.125,783.405 619.761,789.81 614.046,794.469C611.691,796.39 610.312,797.98 609.973,798.625C609.759,799.032 609.254,799.188 608.848,798.974C608.441,798.759 608.284,798.255 608.498,797.848C608.876,797.13 610.369,795.317 612.993,793.178C618.896,788.365 630.624,781.724 647.89,782.217C649.168,782.253 660.919,784.436 668.942,787.383C672.509,788.693 675.337,790.209 676.368,791.691Z"/>
            <path d="M688.891,805.982C688.508,805.726 688.405,805.209 688.66,804.826C688.915,804.443 689.433,804.34 689.815,804.595C692.05,806.084 692.533,808.833 692.604,809.262C692.68,809.716 692.373,810.146 691.919,810.221C691.466,810.297 691.036,809.99 690.961,809.536C690.906,809.212 690.581,807.108 688.891,805.982Z"/>
            <path d="M696.954,818.271C697.161,818.571 697.152,818.983 696.908,819.277C696.613,819.63 696.087,819.678 695.734,819.383L695.503,819.11C695.438,818.999 695.373,818.84 695.324,818.636C695.195,818.103 695.173,816.942 694.583,816.135C694.01,815.35 692.978,813.239 692.762,812.753C692.115,811.3 691.927,810.645 691.808,810.221C691.659,809.691 691.621,809.609 690.645,808.354C690.363,807.991 690.429,807.467 690.792,807.185C691.155,806.902 691.679,806.968 691.961,807.331C693.013,808.686 693.18,809.012 693.326,809.475C693.451,809.871 693.537,810.397 694.284,812.075C694.481,812.517 695.409,814.439 695.93,815.152C696.374,815.761 696.608,816.508 696.747,817.177C696.835,817.602 696.93,818.135 696.954,818.271Z"/>
        </g>
    </g>
</svg>
