<?xml version="1.0" encoding="UTF-8" standalone="no"?>
<!DOCTYPE svg PUBLIC "-//W3C//DTD SVG 1.1//EN" "http://www.w3.org/Graphics/SVG/1.1/DTD/svg11.dtd">
<svg width="100%" height="100%" viewBox="0 0 325 624" version="1.1" xmlns="http://www.w3.org/2000/svg" xmlns:xlink="http://www.w3.org/1999/xlink" xml:space="preserve" xmlns:serif="http://www.serif.com/" style="fill-rule:evenodd;clip-rule:evenodd;stroke-linejoin:round;stroke-miterlimit:2;">
    <g transform="matrix(1,0,0,1,-2384.4,-53.3944)">
        <g transform="matrix(1,0,0,1,527.061,-1106.09)">
            <path d="M2017.52,1621.22C2017.75,1620.81 2018.82,1618.66 2020.68,1616.84C2022.65,1614.91 2025.46,1613.34 2029.08,1614.24C2034.91,1615.7 2038.85,1617.83 2041.59,1621.27C2044.3,1624.68 2045.82,1629.42 2046.75,1636.2C2046.98,1637.92 2045.69,1644.33 2042.69,1648.97C2040.6,1652.21 2037.69,1654.56 2034.02,1654.19C2024.7,1653.26 2024.76,1653.26 2024.01,1652.96C2023.03,1652.56 2022.48,1652.2 2022.23,1651.92L2022.08,1651.72L2021.96,1651.46L2021.9,1651.05L2021.96,1650.76L2022.07,1650.51L2022.24,1650.29C2022.31,1650.21 2022.4,1650.13 2022.52,1650.05C2022.88,1649.79 2023.57,1649.52 2024.43,1649.23C2025.54,1648.85 2026.98,1648.4 2028.33,1647.72C2032.83,1645.48 2034.7,1640.09 2034.37,1634.82C2034.06,1630.05 2031.94,1625.33 2028.14,1623.05C2025.63,1621.54 2022.4,1621.13 2018.51,1622.42C2018.18,1622.53 2017.82,1622.43 2017.6,1622.16C2017.38,1621.89 2017.35,1621.52 2017.52,1621.22ZM2024.03,1651.13C2024.21,1651.22 2024.41,1651.32 2024.63,1651.41C2025.34,1651.69 2025.29,1651.64 2034.19,1652.54C2037.23,1652.84 2039.56,1650.75 2041.3,1648.06C2044.04,1643.82 2045.31,1638 2045.1,1636.43C2044.22,1630.02 2042.84,1625.53 2040.28,1622.31C2037.75,1619.12 2034.07,1617.21 2028.67,1615.86C2025.73,1615.12 2023.45,1616.45 2021.85,1618.03C2021.09,1618.78 2020.47,1619.59 2020,1620.3C2023.56,1619.56 2026.57,1620.16 2028.99,1621.62C2033.24,1624.17 2035.69,1629.39 2036.03,1634.72C2036.41,1640.66 2034.15,1646.68 2029.08,1649.22C2027.65,1649.93 2026.13,1650.41 2024.96,1650.8C2024.61,1650.92 2024.29,1651.03 2024.03,1651.13Z"/>
            <path d="M2018.07,1663.69C2019.69,1666.93 2023.04,1670.23 2027.55,1672.83C2038.26,1678.98 2055.51,1681.13 2072.49,1669C2072.76,1668.8 2073.12,1668.79 2073.41,1668.97C2073.7,1669.15 2073.85,1669.48 2073.79,1669.82C2072.79,1675.8 2072.89,1698.5 2070.22,1719.81C2065.53,1757.35 2067.7,1775.22 2068.29,1780C2068.32,1780.27 2068.22,1780.55 2068.01,1780.73C2067.81,1780.91 2067.52,1780.98 2067.26,1780.91C2055.89,1778.07 2021.88,1779.91 2004.64,1782.87C2004.39,1782.91 2004.13,1782.84 2003.94,1782.67C2003.76,1782.5 2003.65,1782.25 2003.67,1782C2006.9,1729.63 2014.77,1705.35 2016.49,1664.03C2016.51,1663.65 2016.78,1663.33 2017.15,1663.25C2017.52,1663.17 2017.9,1663.35 2018.07,1663.69ZM2018.04,1666.8C2016.1,1706.24 2008.6,1730.54 2005.4,1781.05C2022.54,1778.26 2054.25,1776.59 2066.49,1779.03C2065.78,1772.84 2064.17,1754.82 2068.57,1719.6C2071.01,1700.07 2071.14,1679.38 2071.91,1671.42C2054.76,1682.83 2037.53,1680.49 2026.72,1674.27C2022.97,1672.12 2020,1669.49 2018.04,1666.8Z"/>
            <path d="M2053.4,1565.58C2053.49,1566.03 2053.2,1566.47 2052.75,1566.56C2052.3,1566.65 2051.86,1566.36 2051.77,1565.91C2051.4,1564.09 2051.29,1562.8 2051.39,1561.9C2051.47,1561.13 2051.7,1560.59 2052.03,1560.2C2052.57,1559.56 2053.41,1559.29 2054.57,1559.3C2056.68,1559.31 2060.14,1560.23 2064.6,1559.11C2072.82,1557.06 2072.43,1557.07 2080.6,1557.56C2081.02,1557.58 2081.36,1557.92 2081.38,1558.34C2082.88,1584.38 2084.41,1602.22 2084.41,1615.7C2084.4,1636.17 2080.88,1646.72 2068.49,1660.54C2064.66,1664.8 2050.65,1679.36 2028.69,1668.38C2016.85,1662.46 2007.92,1646.52 2000.89,1628.52C1994.64,1612.49 1989.87,1594.84 1985.78,1581.36C1983.08,1572.48 1980.69,1565.43 1978.34,1561.91C1978.09,1561.53 1978.19,1561.01 1978.57,1560.76C1978.96,1560.5 1979.48,1560.61 1979.73,1560.99C1982.13,1564.59 1984.61,1571.79 1987.37,1580.87C1991.46,1594.32 1996.21,1611.92 2002.45,1627.91C2009.3,1645.48 2017.88,1661.11 2029.44,1666.89C2050.3,1677.32 2063.61,1663.48 2067.24,1659.42C2079.33,1645.95 2082.74,1635.65 2082.74,1615.7C2082.75,1602.37 2081.24,1584.77 2079.76,1559.17C2072.61,1558.75 2072.71,1558.8 2065,1560.73C2061.24,1561.67 2058.16,1561.26 2055.94,1561.05C2055.2,1560.98 2054.57,1560.93 2054.05,1560.99C2053.73,1561.02 2053.47,1561.08 2053.3,1561.28C2053.1,1561.52 2053.03,1561.9 2053.02,1562.46C2053.01,1563.22 2053.13,1564.24 2053.4,1565.58Z"/>
            <path d="M2055.86,1605.65C2056.16,1605.7 2056.39,1605.72 2056.55,1605.59C2056.66,1605.51 2056.7,1605.36 2056.74,1605.17C2056.82,1604.81 2056.82,1604.36 2056.79,1603.79C2056.47,1598.7 2052.66,1586.11 2051.4,1562.13C2051.38,1561.67 2051.73,1561.28 2052.19,1561.25C2052.65,1561.23 2053.04,1561.58 2053.06,1562.04C2054.33,1586.02 2058.13,1598.6 2058.45,1603.69C2058.56,1605.39 2058.21,1606.4 2057.59,1606.9C2057.12,1607.27 2056.44,1607.43 2055.49,1607.28L2055.11,1607.15C2054.97,1607.08 2054.83,1606.98 2054.69,1606.84C2054.34,1606.5 2053.91,1605.86 2053.45,1604.91C2051.13,1600.2 2047.04,1587.35 2039.59,1572.46C2036.68,1566.65 2036.58,1562.62 2037.51,1559.87C2038.95,1555.58 2042.97,1554.22 2043.85,1553.93C2044.85,1553.59 2048.11,1553.37 2052.25,1552.96C2058.26,1552.37 2066.22,1551.36 2071.71,1548.85C2072.13,1548.66 2072.63,1548.84 2072.82,1549.26C2073.01,1549.68 2072.82,1550.17 2072.41,1550.37C2066.76,1552.94 2058.59,1554.01 2052.42,1554.62C2048.45,1555.01 2045.34,1555.19 2044.38,1555.51C2043.64,1555.76 2040.29,1556.85 2039.08,1560.41C2038.25,1562.88 2038.47,1566.48 2041.08,1571.72C2047.61,1584.77 2051.56,1596.26 2054.01,1602.09C2054.61,1603.52 2055.11,1604.6 2055.54,1605.25C2055.64,1605.41 2055.8,1605.59 2055.86,1605.65Z" style="fill:rgb(3,0,0);"/>
            <path d="M2068.21,1551.91C2067.79,1552.08 2067.3,1551.87 2067.13,1551.44C2066.96,1551.02 2067.17,1550.53 2067.59,1550.36C2088.96,1541.81 2114.93,1543.73 2161.46,1511.74C2161.93,1511.42 2168.8,1503.92 2169.74,1502.52C2175.62,1493.69 2176.05,1490.97 2176.21,1489.84C2176.28,1489.38 2176.7,1489.07 2177.15,1489.13C2177.61,1489.2 2177.93,1489.62 2177.86,1490.08C2177.69,1491.26 2177.32,1494.16 2171.12,1503.45C2170.14,1504.92 2162.89,1512.78 2162.4,1513.11C2115.7,1545.22 2089.66,1543.33 2068.21,1551.91Z" style="fill:rgb(3,0,0);"/>
            <path d="M2176,1495.15C2175.8,1495.57 2175.31,1495.75 2174.89,1495.56C2174.47,1495.37 2174.29,1494.87 2174.49,1494.45C2180.68,1481.08 2180.88,1480.94 2180.36,1466.2C2179.23,1433.97 2173.64,1430.34 2170.41,1427.11C2170.08,1426.78 2170.08,1426.25 2170.41,1425.93C2170.73,1425.6 2171.26,1425.6 2171.58,1425.93C2174.92,1429.26 2180.86,1432.95 2182.02,1466.14C2182.55,1481.27 2182.36,1481.43 2176,1495.15Z" style="fill:rgb(3,0,0);"/>
            <path d="M2169.28,1427.6C2168.78,1427.55 2167.78,1427.47 2166.69,1427.44C2158.95,1427.26 2139.65,1427.87 2130.95,1427.38C2128.59,1427.25 2126.95,1426.99 2126.4,1426.67C2126.1,1426.5 2125.74,1426.15 2125.4,1425.63C2124.99,1425.02 2124.57,1424.13 2124.23,1423.09C2123.39,1420.5 2123.08,1416.98 2124.58,1414.39C2125.38,1413.01 2127.57,1411.3 2130.73,1409.95C2137.77,1406.94 2149.67,1405.59 2160.52,1413.18C2161.92,1414.16 2162.89,1414.53 2163.61,1414.32C2164.23,1414.13 2164.51,1413.47 2164.71,1412.66C2165.51,1409.39 2164.25,1403.63 2164.14,1403.09C2163.24,1398.92 2161.89,1396.37 2159.83,1394.87C2157.75,1393.35 2154.99,1392.88 2151.4,1392.75C2146.35,1392.55 2139.72,1393.05 2131.11,1392.61C2128.06,1392.45 2125.51,1392.87 2123.37,1392.92C2120.94,1392.99 2119,1392.6 2117.42,1390.8C2116.15,1389.36 2115.1,1386.94 2114.29,1382.88C2114.15,1382.17 2113.5,1378.82 2115.46,1375.85C2116.75,1373.9 2119.16,1372.07 2123.66,1371.32C2129.35,1370.37 2142.51,1372.15 2142.94,1372.29C2143.23,1372.39 2143.43,1372.53 2143.66,1372.78C2144.17,1373.3 2145.14,1374.61 2151.92,1378C2152.55,1378.32 2153.07,1378.5 2153.5,1378.58C2153.79,1378.62 2154.02,1378.62 2154.2,1378.53C2154.34,1378.47 2154.43,1378.34 2154.49,1378.19C2154.61,1377.93 2154.66,1377.61 2154.69,1377.24C2154.87,1374.38 2153.12,1369.39 2152.98,1367.09C2152.95,1366.63 2153.3,1366.24 2153.76,1366.21C2154.22,1366.18 2154.62,1366.53 2154.64,1366.99C2154.79,1369.33 2156.53,1374.43 2156.35,1377.35C2156.27,1378.67 2155.78,1379.61 2154.93,1380.03C2154.17,1380.4 2152.95,1380.38 2151.17,1379.49C2144.89,1376.35 2143.34,1374.86 2142.69,1374.17C2142.61,1374.09 2142.54,1374.01 2142.48,1373.95C2142.45,1373.92 2142.45,1373.88 2142.41,1373.87C2142,1373.74 2129.39,1372.05 2123.93,1372.96C2120.07,1373.6 2117.95,1375.09 2116.85,1376.76C2115.24,1379.21 2115.81,1381.97 2115.92,1382.55C2116.65,1386.2 2117.53,1388.4 2118.67,1389.7C2119.9,1391.1 2121.44,1391.31 2123.32,1391.26C2125.5,1391.2 2128.1,1390.78 2131.2,1390.94C2141.99,1391.5 2149.67,1390.59 2155.05,1391.39C2157.94,1391.82 2160.19,1392.73 2161.95,1394.5C2163.68,1396.24 2164.93,1398.84 2165.77,1402.74C2165.89,1403.33 2167.2,1409.53 2166.33,1413.06C2165.97,1414.53 2165.22,1415.57 2164.09,1415.91C2163.07,1416.22 2161.58,1415.96 2159.57,1414.55C2149.3,1407.37 2138.04,1408.64 2131.38,1411.48C2128.66,1412.65 2126.71,1414.04 2126.02,1415.23C2124.76,1417.41 2125.1,1420.39 2125.81,1422.57C2126.1,1423.45 2126.44,1424.19 2126.79,1424.71C2126.95,1424.96 2127.09,1425.15 2127.23,1425.23C2127.43,1425.34 2127.84,1425.41 2128.42,1425.49C2130.1,1425.72 2132.92,1425.83 2136.32,1425.88C2147.85,1426.05 2165.97,1425.47 2169.52,1425.93C2169.85,1425.97 2170.09,1426.03 2170.23,1426.09L2170.45,1426.21L2170.64,1426.38L2170.76,1426.54L2170.84,1426.77L2170.86,1427.02L2170.8,1427.26L2170.64,1427.54L2170.3,1427.8C2169.95,1427.99 2169.53,1427.89 2169.28,1427.6Z" style="fill:rgb(3,0,0);"/>
            <path d="M2136.13,1338.92C2135.95,1338.89 2134.99,1338.77 2133.97,1338.71C2128.43,1338.43 2115.58,1338.56 2113.87,1338.77C2110.24,1339.23 2108.51,1342 2107.86,1344.98C2107.18,1348.05 2107.6,1351.38 2108.41,1352.85C2108.69,1353.35 2109.23,1353.72 2109.89,1354.03C2110.67,1354.38 2111.62,1354.63 2112.65,1354.79C2115.85,1355.31 2119.7,1355.06 2121.29,1354.74C2128.15,1353.37 2141.27,1355.53 2146.52,1356.89C2147.66,1357.19 2148.45,1357.46 2148.78,1357.64L2149.02,1357.8L2149.22,1358.02C2149.89,1359.02 2150.75,1359.42 2151.54,1359.99C2152.97,1361.02 2154.33,1362.43 2154.52,1367.22C2154.53,1367.68 2154.18,1368.07 2153.72,1368.09C2153.26,1368.1 2152.87,1367.74 2152.85,1367.29C2152.76,1364.95 2152.39,1363.57 2151.83,1362.65C2151.3,1361.78 2150.61,1361.36 2149.93,1360.91C2149.22,1360.43 2148.53,1359.92 2147.93,1359.08C2147.73,1359.01 2146.91,1358.72 2146.11,1358.51C2141,1357.19 2128.28,1355.05 2121.62,1356.38C2119.63,1356.78 2114.34,1357.08 2110.71,1356.08C2108.96,1355.6 2107.58,1354.79 2106.96,1353.66C2106.02,1351.97 2105.45,1348.15 2106.23,1344.62C2107.03,1340.98 2109.22,1337.67 2113.66,1337.12C2115.4,1336.9 2128.44,1336.77 2134.06,1337.05C2135.08,1337.1 2135.87,1337.17 2136.32,1337.25C2136.67,1337.31 2136.9,1337.42 2137.01,1337.49C2137.93,1338.13 2138.52,1339.06 2139.1,1340.03C2139.64,1340.92 2140.16,1341.86 2141.16,1342.46C2142.18,1343.07 2143.67,1343.3 2146.09,1342.89C2146.13,1342.89 2146.13,1342.83 2146.15,1342.79C2146.19,1342.7 2146.22,1342.6 2146.24,1342.48C2146.3,1342.12 2146.3,1341.68 2146.25,1341.18C2145.96,1337.81 2143.8,1331.98 2142.2,1328.79C2142,1328.38 2142.16,1327.88 2142.57,1327.67C2142.98,1327.46 2143.49,1327.63 2143.69,1328.04C2145.37,1331.38 2147.61,1337.51 2147.91,1341.03C2148.01,1342.1 2147.91,1342.97 2147.65,1343.52C2147.37,1344.1 2146.94,1344.44 2146.36,1344.54C2143.84,1344.96 2142.14,1344.74 2140.93,1344.21C2139.65,1343.65 2138.86,1342.76 2138.22,1341.77C2137.55,1340.76 2137.09,1339.62 2136.13,1338.92Z" style="fill:rgb(3,0,0);"/>
            <path d="M2129.72,1304.79C2129.75,1304.83 2129.94,1305.05 2130.11,1305.22C2130.73,1305.87 2131.87,1306.89 2133.03,1307.51C2133.51,1307.77 2133.99,1307.96 2134.43,1307.99C2134.72,1308.01 2134.99,1307.95 2135.19,1307.73C2135.44,1307.46 2135.6,1307.04 2135.71,1306.43C2135.91,1305.27 2135.85,1303.57 2135.44,1301.14C2135.18,1299.55 2133.81,1295.49 2131.86,1292.2C2130.63,1290.13 2129.21,1288.35 2127.64,1287.85C2115.02,1283.84 2114.84,1285.18 2101.39,1283.5C2096.59,1282.9 2096.56,1283.72 2091.83,1282.59C2089.73,1282.08 2088.64,1281.48 2088.03,1280.67C2087.64,1280.14 2087.42,1279.51 2087.33,1278.71C2087.21,1277.73 2087.26,1276.46 2087.2,1274.73C2087.19,1274.27 2087.55,1273.88 2088.01,1273.87C2088.47,1273.85 2088.85,1274.21 2088.87,1274.67C2088.92,1276.08 2088.89,1277.18 2088.94,1278.05C2088.98,1278.74 2089.06,1279.26 2089.37,1279.67C2089.81,1280.27 2090.67,1280.6 2092.22,1280.97C2096.86,1282.08 2096.89,1281.26 2101.59,1281.85C2115.2,1283.55 2115.39,1282.2 2128.15,1286.26C2130.03,1286.86 2131.83,1288.88 2133.29,1291.35C2135.36,1294.85 2136.81,1299.18 2137.09,1300.87C2137.53,1303.55 2137.57,1305.43 2137.35,1306.71C2137.18,1307.73 2136.83,1308.42 2136.41,1308.87C2135.39,1309.96 2133.8,1309.82 2132.24,1308.98C2130.28,1307.93 2128.41,1305.89 2128.25,1305.57C2127.89,1304.85 2126.69,1302.75 2118.85,1302.04C2113.57,1301.56 2109.62,1301.45 2106.65,1301.84C2103.88,1302.2 2102.01,1302.99 2100.75,1304.37C2099.66,1305.56 2099.03,1307.17 2098.62,1309.24C2097.94,1312.63 2098.36,1314.82 2099.69,1316.23C2101.03,1317.65 2103.23,1318.24 2105.85,1318.51C2111.57,1319.12 2119.25,1318.16 2125.57,1319.42C2129.66,1320.24 2132.46,1320.28 2134.7,1320.6C2138.28,1321.12 2140.53,1322.27 2143.96,1327.98C2144.19,1328.38 2144.06,1328.89 2143.67,1329.12C2143.28,1329.36 2142.76,1329.23 2142.53,1328.84C2140.74,1325.87 2139.36,1324.25 2137.86,1323.34C2136.38,1322.44 2134.8,1322.25 2132.69,1322.05C2130.74,1321.86 2128.36,1321.68 2125.24,1321.06C2118.97,1319.8 2111.35,1320.77 2105.67,1320.17C2102.59,1319.85 2100.06,1319.05 2098.47,1317.37C2096.87,1315.67 2096.16,1313.03 2096.99,1308.92C2097.47,1306.49 2098.25,1304.63 2099.52,1303.24C2101,1301.62 2103.17,1300.62 2106.43,1300.19C2109.49,1299.79 2113.56,1299.88 2119,1300.38C2127.96,1301.19 2129.29,1303.92 2129.72,1304.79Z"/>
            <path d="M2088.83,1274.99C2089.01,1275.42 2088.81,1275.91 2088.39,1276.09C2087.97,1276.27 2087.48,1276.07 2087.3,1275.65C2086.63,1274.09 2086.27,1269.64 2089.45,1266.72C2090.78,1265.51 2092.72,1264.55 2095.55,1264.22C2100.03,1263.69 2099.98,1263.09 2104.39,1263.89C2107.83,1264.51 2110.31,1264.15 2112.43,1264.01C2114.2,1263.9 2115.74,1263.94 2117.33,1264.66C2118.89,1265.37 2120.51,1266.73 2122.43,1269.35C2123.03,1270.17 2123.57,1270.74 2124.07,1271.09C2124.41,1271.34 2124.7,1271.48 2124.96,1271.46C2125.12,1271.45 2125.25,1271.35 2125.36,1271.22C2125.56,1270.98 2125.69,1270.65 2125.79,1270.25C2126.15,1268.79 2125.92,1266.6 2125.04,1264.62C2124.66,1263.75 2124.55,1263.18 2124.43,1262.61C2124.28,1261.88 2124.1,1261.14 2123.08,1259.5C2122.85,1259.15 2122.71,1258.79 2122.57,1258.41C2122.11,1257.2 2121.61,1255.78 2117.06,1253.22C2111.5,1250.09 2111.42,1249.78 2091.72,1248.69C2089.65,1248.57 2084.66,1247.38 2081.28,1245.79C2079.7,1245.05 2078.47,1244.18 2077.93,1243.34C2076.59,1241.27 2076.58,1238.01 2077.54,1235.11C2078.51,1232.17 2080.47,1229.66 2082.79,1229.03C2088.31,1227.52 2093.6,1228.3 2104.05,1229.17C2105.95,1229.33 2106.74,1229.98 2107.44,1230.91C2108.26,1231.99 2108.9,1233.63 2111.97,1235.34C2112.15,1235.43 2112.54,1235.82 2113.09,1236.17C2113.67,1236.55 2114.51,1236.9 2115.49,1236.41C2115.83,1236.24 2115.97,1235.96 2116.02,1235.59C2116.07,1235.22 2116.04,1234.78 2115.97,1234.3C2115.63,1232.12 2114.49,1229.03 2114.27,1225.5C2114.27,1225.47 2111.06,1210.63 2109.08,1205.92C2108.9,1205.5 2109.1,1205.01 2109.52,1204.83C2109.95,1204.65 2110.43,1204.85 2110.61,1205.27C2112.65,1210.11 2115.93,1225.36 2115.94,1225.4C2116.15,1228.86 2117.29,1231.9 2117.62,1234.04C2117.9,1235.93 2117.56,1237.24 2116.24,1237.9C2114.58,1238.73 2113.17,1238.21 2112.18,1237.57C2111.68,1237.24 2111.33,1236.88 2111.16,1236.79C2108.28,1235.19 2107.3,1233.66 2106.51,1232.49C2105.92,1231.6 2105.49,1230.96 2103.92,1230.83C2093.74,1229.98 2088.6,1229.17 2083.23,1230.63C2081.36,1231.14 2079.9,1233.27 2079.12,1235.63C2078.33,1238.03 2078.22,1240.73 2079.33,1242.43C2079.75,1243.1 2080.76,1243.7 2081.99,1244.28C2085.18,1245.78 2089.87,1246.92 2091.82,1247.03C2112.09,1248.15 2112.15,1248.55 2117.87,1251.77C2124.26,1255.36 2123.49,1257.02 2124.49,1258.62C2125.69,1260.54 2125.88,1261.41 2126.06,1262.27C2126.16,1262.75 2126.24,1263.22 2126.57,1263.95C2127.8,1266.73 2127.87,1269.85 2127.11,1271.53C2126.66,1272.5 2125.95,1273.06 2125.09,1273.12C2124.62,1273.15 2124.08,1273.04 2123.49,1272.7C2122.79,1272.3 2121.98,1271.55 2121.09,1270.34C2119.4,1268.04 2118.01,1266.8 2116.65,1266.18C2115.31,1265.58 2114.02,1265.58 2112.54,1265.68C2110.31,1265.82 2107.7,1266.18 2104.09,1265.53C2099.93,1264.77 2099.97,1265.37 2095.74,1265.87C2093.36,1266.15 2091.7,1266.93 2090.58,1267.95C2088.06,1270.26 2088.3,1273.76 2088.83,1274.99Z"/>
            <path d="M2093.97,1187.63C2093.57,1187.41 2093.42,1186.9 2093.64,1186.5C2093.86,1186.09 2094.37,1185.95 2094.77,1186.17C2098.46,1188.2 2099.72,1189.74 2100.85,1191.5C2101.55,1192.6 2102.2,1193.79 2103.41,1195.28C2111.13,1204.71 2109.75,1203.85 2112.14,1209.9C2112.31,1210.32 2112.1,1210.81 2111.67,1210.98C2111.24,1211.15 2110.76,1210.94 2110.59,1210.51C2108.27,1204.64 2109.61,1205.48 2102.12,1196.33C2100.85,1194.78 2100.18,1193.54 2099.45,1192.4C2098.43,1190.82 2097.28,1189.45 2093.97,1187.63Z"/>
            <path d="M2093.59,1187.36C2093.38,1186.95 2093.54,1186.45 2093.95,1186.24C2094.36,1186.03 2094.86,1186.19 2095.07,1186.6C2096.06,1188.52 2104.91,1198.98 2102.14,1214.19C2101.91,1215.48 2100.82,1216.34 2099.2,1216.57C2096.15,1217.01 2091.07,1215.15 2088.8,1210.96C2087.57,1208.69 2087.15,1206.8 2086.68,1204.59C2086.02,1201.44 2085.27,1197.62 2081.68,1190.91C2081.46,1190.51 2081.61,1190 2082.02,1189.79C2082.42,1189.57 2082.93,1189.72 2083.14,1190.13C2086.85,1197.05 2087.63,1201 2088.32,1204.25C2088.74,1206.3 2089.13,1208.06 2090.27,1210.17C2091.91,1213.19 2095.28,1214.79 2097.83,1214.95C2098.6,1215 2099.29,1214.92 2099.81,1214.68C2100.17,1214.52 2100.44,1214.26 2100.51,1213.89C2103.17,1199.25 2094.54,1189.21 2093.59,1187.36Z"/>
            <path d="M2037.82,1161.25C2038,1161.5 2038.05,1161.83 2037.9,1162.12C2037.7,1162.54 2037.2,1162.71 2036.79,1162.5C2035.95,1162.09 2035.42,1161.76 2035.14,1161.52C2035.03,1161.42 2034.94,1161.32 2034.87,1161.24L2034.72,1160.97L2034.63,1160.61L2034.65,1160.39L2034.72,1160.18L2034.9,1159.9L2035.2,1159.68C2035.35,1159.6 2035.57,1159.53 2035.86,1159.5C2036.28,1159.46 2036.92,1159.48 2037.71,1159.57C2041.85,1159.99 2050.5,1161.99 2051.2,1162.15C2054.42,1162.89 2059.93,1165.84 2064.21,1168.68C2067.13,1170.62 2069.47,1172.54 2070.22,1173.67C2070.67,1174.34 2076.39,1180.57 2080.3,1185.79C2082.04,1188.13 2083.43,1190.27 2083.89,1191.67C2084.04,1192.11 2083.8,1192.58 2083.37,1192.73C2082.93,1192.88 2082.46,1192.64 2082.31,1192.2C2081.73,1190.46 2079.59,1187.51 2077.21,1184.52C2073.51,1179.88 2069.22,1175.17 2068.84,1174.59C2068.15,1173.55 2065.96,1171.85 2063.28,1170.07C2059.18,1167.34 2053.91,1164.49 2050.83,1163.77C2050.18,1163.62 2042.64,1161.88 2038.34,1161.32C2038.16,1161.29 2037.99,1161.27 2037.82,1161.25Z"/>
            <path d="M2036.08,1162.28C2035.77,1162.32 2035.44,1162.19 2035.26,1161.91C2035.01,1161.53 2035.12,1161.01 2035.5,1160.76L2035.82,1160.62L2036.04,1160.6L2036.29,1160.62C2036.73,1160.69 2037.73,1161.08 2039.1,1161.85C2045.38,1165.36 2060.52,1176.84 2066.93,1196.06C2067.73,1198.46 2069.51,1205.57 2069.58,1210.24C2069.6,1211.53 2069.48,1212.64 2069.21,1213.46C2068.97,1214.16 2068.61,1214.66 2068.16,1214.97C2064.87,1217.16 2062.33,1217.77 2060.31,1217.33C2058.24,1216.88 2056.65,1215.32 2055.35,1212.94C2053.57,1209.71 2052.29,1204.93 2050.69,1199.79C2049.13,1194.79 2047.26,1189.43 2044.24,1184.91C2036.21,1172.85 2034.82,1174.18 2022.06,1167.23C2019.26,1165.69 2016.14,1165.34 2012.03,1165.3C2008.55,1165.26 2004.37,1165.45 1999.11,1165.42C2005.04,1168.94 2016.39,1178.73 2020.31,1202.26C2020.68,1204.46 2021.26,1206.4 2021.46,1208.15C2021.63,1209.62 2021.53,1210.97 2020.94,1212.25C2020.35,1213.5 2019.27,1214.7 2017.38,1215.84C2016.27,1216.5 2013.31,1216.88 2010.68,1216.39C2008.84,1216.05 2007.19,1215.27 2006.36,1214.03C2004.93,1211.88 2004.03,1208.1 2002.8,1203.57C2001.03,1197.05 1998.49,1188.94 1992.14,1182.16C1991.03,1180.97 1989.54,1179.87 1988.18,1178.78C1987.82,1178.49 1987.76,1177.96 1988.05,1177.61C1988.34,1177.25 1988.86,1177.19 1989.22,1177.48C1990.64,1178.62 1992.19,1179.78 1993.35,1181.02C1999.92,1188.03 2002.58,1196.4 2004.41,1203.13C2005.58,1207.44 2006.38,1211.06 2007.75,1213.1C2008.36,1214.02 2009.62,1214.5 2010.98,1214.75C2013.15,1215.15 2015.61,1214.95 2016.52,1214.41C2018.05,1213.49 2018.96,1212.56 2019.43,1211.54C2019.89,1210.55 2019.93,1209.49 2019.8,1208.34C2019.61,1206.61 2019.03,1204.7 2018.67,1202.54C2013.72,1172.81 1996.67,1165.75 1995.1,1165.32C1994.69,1165.21 1994.43,1164.81 1994.5,1164.39C1994.56,1163.98 1994.92,1163.67 1995.35,1163.68C2002.45,1163.89 2007.77,1163.59 2012.05,1163.63C2016.49,1163.68 2019.83,1164.11 2022.86,1165.76C2035.97,1172.92 2037.37,1171.59 2045.63,1183.99C2048.73,1188.64 2050.68,1194.14 2052.28,1199.3C2053.84,1204.31 2055.07,1208.99 2056.81,1212.14C2057.84,1214.02 2059.03,1215.34 2060.67,1215.7C2062.36,1216.07 2064.46,1215.43 2067.23,1213.58C2067.49,1213.41 2067.61,1213.05 2067.72,1212.6C2067.87,1211.97 2067.93,1211.16 2067.91,1210.26C2067.85,1205.76 2066.12,1198.9 2065.35,1196.58C2059.12,1177.89 2044.39,1166.72 2038.29,1163.3C2037.3,1162.75 2036.28,1162.36 2036.08,1162.28Z"/>
            <path d="M1991.96,1179.46C1992.38,1179.66 1992.55,1180.15 1992.35,1180.57C1992.16,1180.99 1991.66,1181.16 1991.24,1180.96C1990.25,1180.49 1988.53,1179.07 1986.17,1177.42C1982.8,1175.07 1978.06,1172.26 1972.22,1171.42C1961.07,1169.83 1957.48,1174.2 1952.03,1176.61C1951.61,1176.8 1951.12,1176.61 1950.93,1176.19C1950.75,1175.77 1950.93,1175.28 1951.36,1175.09C1957.04,1172.57 1960.82,1168.11 1972.46,1169.78C1978.59,1170.65 1983.58,1173.59 1987.12,1176.06C1989.38,1177.63 1991.01,1179.01 1991.96,1179.46Z"/>
            <path d="M1963.87,1171.33C1963.87,1171.33 1963.56,1171.45 1963.14,1171.63C1961.14,1172.46 1955.46,1174.92 1947.72,1178.77C1925.18,1189.99 1885.19,1213 1868.58,1242.07C1868.35,1242.47 1867.84,1242.61 1867.44,1242.38C1867.04,1242.15 1866.9,1241.64 1867.13,1241.25C1883.9,1211.89 1924.22,1188.6 1946.97,1177.28C1955.74,1172.92 1961.89,1170.33 1963.07,1169.85L1963.5,1169.72C1963.96,1169.67 1964.37,1170 1964.42,1170.45C1964.46,1170.85 1964.22,1171.21 1963.87,1171.33Z"/>
            <path d="M1870.2,1239.31C1870.15,1239.37 1870.01,1239.54 1869.89,1239.72C1869.56,1240.21 1869.14,1240.96 1868.65,1241.94C1864.91,1249.41 1857.5,1269.77 1859.28,1289.29C1860.51,1302.89 1863.79,1308.52 1866.44,1310.7C1867.28,1311.39 1868.03,1311.7 1868.59,1311.8C1868.81,1311.84 1869.06,1311.83 1869.12,1311.82C1869.48,1311.62 1869.94,1311.71 1870.2,1312.05C1870.48,1312.42 1870.4,1312.94 1870.03,1313.22C1869.86,1313.35 1869.5,1313.5 1868.97,1313.51C1868.2,1313.51 1866.88,1313.21 1865.39,1311.99C1862.58,1309.68 1858.92,1303.81 1857.62,1289.44C1855.81,1269.55 1863.35,1248.81 1867.16,1241.19C1867.97,1239.56 1868.65,1238.51 1869.03,1238.12L1869.34,1237.87L1869.71,1237.74C1870.16,1237.66 1870.59,1237.97 1870.66,1238.43C1870.72,1238.8 1870.52,1239.16 1870.2,1239.31Z"/>
            <path d="M1877.36,1348.09C1877.4,1348.03 1877.45,1347.94 1877.49,1347.86C1877.6,1347.63 1877.7,1347.33 1877.8,1346.95C1880.43,1336.4 1883.39,1333.48 1888.33,1330.34C1891.5,1328.32 1895.54,1326.22 1900.92,1321.82C1906.35,1317.37 1912.87,1314.99 1917.77,1314.99C1921.32,1314.99 1924.04,1316.24 1925.16,1318.67C1926.31,1321.15 1925.79,1325.06 1922.31,1330.47C1919.4,1335 1915.28,1337.22 1910.56,1339.53C1906.04,1341.74 1900.97,1344.04 1895.98,1348.77C1892.92,1351.66 1888.15,1354.77 1884.64,1358.67C1881.31,1362.38 1879.15,1366.83 1881.07,1372.6C1883.26,1379.16 1885.62,1380.85 1887.39,1382.1C1888.6,1374.52 1890.95,1371.28 1895.24,1367.86C1898.17,1365.53 1902.04,1363.12 1907.15,1359.1C1907.99,1358.44 1913.02,1355.19 1918.26,1352.95C1921.87,1351.42 1925.58,1350.39 1928.15,1350.87C1929.55,1351.14 1931.02,1351.53 1932.16,1352.61C1932.93,1353.36 1933.57,1354.42 1933.88,1356.02C1934.6,1359.62 1934.7,1361.91 1933.86,1363.88C1933.34,1365.09 1932.47,1366.19 1931.14,1367.37C1929.29,1369.01 1926.49,1370.84 1922.45,1373.53C1922.07,1373.79 1921.55,1373.68 1921.3,1373.3C1921.04,1372.92 1921.14,1372.4 1921.53,1372.14C1924.83,1369.94 1927.29,1368.33 1929.08,1366.92C1930.73,1365.61 1931.78,1364.51 1932.32,1363.23C1933.06,1361.51 1932.88,1359.49 1932.25,1356.35C1931.65,1353.35 1929.63,1352.85 1927.84,1352.51C1925.51,1352.07 1922.18,1353.1 1918.92,1354.49C1913.86,1356.65 1908.99,1359.77 1908.18,1360.41C1903.07,1364.42 1899.2,1366.83 1896.28,1369.16C1892.05,1372.53 1889.9,1375.74 1888.84,1383.72C1888.8,1384.03 1888.59,1384.28 1888.3,1384.39C1888.01,1384.5 1887.69,1384.44 1887.46,1384.23C1885.54,1382.52 1882.39,1381.83 1879.49,1373.12C1877.35,1366.69 1879.68,1361.7 1883.4,1357.56C1886.94,1353.62 1891.75,1350.48 1894.83,1347.56C1899.97,1342.69 1905.18,1340.31 1909.82,1338.04C1914.26,1335.87 1918.17,1333.82 1920.91,1329.57C1922.47,1327.14 1923.41,1325.06 1923.82,1323.31C1924.19,1321.7 1924.12,1320.39 1923.64,1319.37C1922.77,1317.46 1920.55,1316.65 1917.77,1316.66C1913.17,1316.66 1907.07,1318.94 1901.98,1323.11C1896.52,1327.57 1892.44,1329.7 1889.23,1331.74C1884.6,1334.69 1881.88,1337.47 1879.41,1347.36C1879.19,1348.25 1878.91,1348.83 1878.64,1349.17C1878.51,1349.34 1878.37,1349.46 1878.23,1349.56L1877.97,1349.7L1877.69,1349.79C1877.19,1349.89 1876.63,1349.7 1876.11,1349.23C1875.42,1348.6 1874.75,1347.38 1874.29,1346.87C1870.71,1342.9 1869.15,1338.98 1869.03,1335.2C1868.85,1329.57 1871.89,1324.19 1876.48,1319.31C1884.28,1311.02 1896.55,1304.14 1904.16,1299.73C1907.29,1297.92 1909.62,1296.56 1910.41,1295.69C1913.32,1292.52 1914.3,1289.85 1914.34,1287.64C1914.39,1284.29 1912.33,1282.08 1911.79,1281.01C1911.76,1280.94 1911.68,1280.93 1911.59,1280.9C1911.43,1280.84 1911.23,1280.81 1911.02,1280.79C1910.33,1280.73 1909.44,1280.8 1908.41,1280.98C1903.37,1281.82 1895.3,1284.99 1892.75,1287.15C1886.34,1292.57 1881.33,1295.24 1877.66,1297.55C1875.06,1299.18 1873.15,1300.6 1871.95,1302.79C1870.73,1305.01 1870.23,1307.99 1870.37,1312.69C1870.38,1313.15 1870.02,1313.54 1869.56,1313.55C1869.1,1313.57 1868.71,1313.2 1868.7,1312.74C1868.55,1307.63 1869.16,1304.39 1870.49,1301.99C1871.82,1299.56 1873.9,1297.94 1876.77,1296.14C1880.4,1293.86 1885.35,1291.23 1891.67,1285.88C1894.35,1283.61 1902.83,1280.22 1908.14,1279.33C1909.59,1279.09 1910.82,1279.03 1911.67,1279.2C1912.5,1279.36 1913.03,1279.76 1913.28,1280.26C1913.88,1281.45 1916.07,1283.95 1916.01,1287.66C1915.96,1290.16 1914.93,1293.23 1911.64,1296.82C1910.79,1297.74 1908.34,1299.24 1905,1301.17C1897.49,1305.52 1885.38,1312.28 1877.69,1320.45C1873.43,1324.98 1870.53,1329.92 1870.69,1335.14C1870.81,1338.59 1872.27,1342.14 1875.53,1345.76C1875.89,1346.17 1876.4,1347.05 1876.94,1347.69C1877.07,1347.83 1877.19,1347.96 1877.31,1348.06C1877.33,1348.07 1877.34,1348.08 1877.36,1348.09Z"/>
            <path d="M1908.82,1477.3C1908.87,1477.4 1909.05,1477.72 1909.23,1478.01C1910.43,1479.97 1913.53,1484.45 1915.26,1486.37C1915.45,1486.58 1915.69,1486.79 1915.83,1486.92C1917.25,1486.32 1918.07,1485.03 1918.94,1483.47C1920.57,1480.58 1922.26,1476.82 1926.74,1473.92C1943.87,1462.84 1955.54,1461.74 1958.24,1461.48C1958.7,1461.44 1959.1,1461.78 1959.15,1462.23C1959.19,1462.69 1958.86,1463.1 1958.4,1463.14C1955.76,1463.39 1944.37,1464.49 1927.65,1475.32C1923.46,1478.03 1921.91,1481.58 1920.39,1484.29C1919.23,1486.35 1918.05,1487.95 1916.06,1488.62L1915.73,1488.67L1915.37,1488.6C1915.09,1488.5 1914.6,1488.12 1914.03,1487.49C1912.24,1485.52 1909.05,1480.9 1907.81,1478.88C1907.41,1478.23 1907.21,1477.77 1907.19,1477.64C1906.41,1472.59 1907.26,1469.02 1908.79,1466.38C1910.31,1463.74 1912.53,1462.03 1914.56,1460.72C1916.16,1459.68 1917.64,1458.93 1918.46,1458.11C1922.03,1454.54 1932.67,1449.25 1941.18,1444.97C1945.09,1443.01 1948.54,1441.26 1950.61,1439.98C1951.41,1439.49 1951.99,1439.09 1952.27,1438.78C1954.26,1436.52 1953.66,1433.05 1952.9,1430.61C1952.49,1429.29 1951.87,1428.06 1951.73,1427.79C1947.8,1424.87 1943.24,1427.1 1942.57,1427.42C1917.5,1439.41 1913.06,1439.95 1908.41,1455.41C1908.32,1455.7 1908.08,1455.92 1907.78,1455.98C1907.49,1456.05 1907.18,1455.94 1906.98,1455.72C1904.09,1452.4 1904.01,1452.01 1903.83,1451.64C1899.97,1443.73 1900.52,1444.07 1898.05,1439.55C1896.95,1437.53 1897.58,1434.74 1899.59,1431.73C1903.86,1425.34 1914.22,1417.62 1923.26,1413.95C1924.6,1413.4 1935,1409.19 1940.57,1404.55C1941.7,1403.6 1942.63,1402.65 1943.21,1401.7C1943.7,1400.9 1943.95,1400.12 1943.76,1399.36C1943.45,1398.13 1943.18,1396.49 1942.63,1394.92C1942.12,1393.48 1941.37,1392.09 1940.03,1391.2C1938.68,1390.31 1936.76,1389.95 1933.98,1390.48C1930.97,1391.06 1927.03,1392.65 1921.83,1395.71C1912.34,1401.29 1906.18,1404.65 1902.7,1407.78C1901.08,1409.24 1900.07,1410.63 1899.61,1412.21C1899.16,1413.8 1899.27,1415.56 1899.83,1417.74C1899.91,1418.05 1899.81,1418.38 1899.56,1418.59C1899.31,1418.79 1898.96,1418.84 1898.67,1418.69C1895.12,1416.99 1891.57,1413.99 1889.41,1410.43C1887.18,1406.76 1886.41,1402.5 1888.45,1398.42C1889.39,1396.54 1891.88,1391.45 1908.1,1380.91C1921.73,1372.05 1920.65,1372.81 1922.9,1371.23C1923.28,1370.96 1923.8,1371.06 1924.06,1371.43C1924.33,1371.81 1924.24,1372.33 1923.86,1372.59C1921.6,1374.18 1922.69,1373.41 1909.01,1382.3C1893.33,1392.5 1890.85,1397.35 1889.94,1399.17C1888.17,1402.7 1888.9,1406.38 1890.83,1409.56C1892.52,1412.33 1895.11,1414.73 1897.84,1416.36C1897.56,1414.63 1897.61,1413.13 1898.01,1411.75C1898.54,1409.9 1899.69,1408.25 1901.58,1406.55C1905.12,1403.36 1911.36,1399.94 1920.98,1394.28C1926.41,1391.08 1930.53,1389.44 1933.67,1388.85C1937.03,1388.2 1939.33,1388.73 1940.96,1389.82C1942.6,1390.91 1943.57,1392.59 1944.2,1394.36C1944.78,1395.99 1945.06,1397.69 1945.37,1398.96C1945.61,1399.9 1945.47,1400.88 1945.01,1401.88C1944.39,1403.18 1943.2,1404.53 1941.63,1405.83C1935.92,1410.6 1925.26,1414.93 1923.89,1415.49C1915.15,1419.04 1905.1,1426.47 1900.98,1432.65C1900.15,1433.9 1899.56,1435.1 1899.3,1436.19C1899.08,1437.15 1899.11,1438.02 1899.52,1438.75C1901.99,1443.29 1901.44,1442.95 1905.32,1450.91C1905.46,1451.2 1905.56,1451.49 1907.26,1453.49C1911.89,1438.95 1916.83,1437.88 1941.85,1425.91C1942.65,1425.53 1948.16,1422.94 1952.86,1426.55L1953.04,1426.73C1953.07,1426.78 1953.13,1426.86 1953.19,1426.98C1953.45,1427.43 1954.02,1428.6 1954.49,1430.11C1955.4,1433.04 1955.9,1437.17 1953.52,1439.88C1953.17,1440.27 1952.47,1440.8 1951.49,1441.4C1949.39,1442.69 1945.89,1444.47 1941.93,1446.46C1933.59,1450.65 1923.14,1455.79 1919.64,1459.28C1918.76,1460.17 1917.19,1461.01 1915.47,1462.12C1913.63,1463.3 1911.61,1464.83 1910.23,1467.21C1908.86,1469.58 1908.14,1472.78 1908.82,1477.3Z"/>
            <path d="M1957.27,1463.33C1956.95,1463.53 1956.53,1463.49 1956.25,1463.21C1955.92,1462.88 1955.92,1462.36 1956.25,1462.03L1956.57,1461.81C1956.66,1461.77 1956.78,1461.73 1956.94,1461.69C1957.58,1461.55 1959.07,1461.48 1960.67,1461.79C1962.59,1462.16 1964.62,1463.1 1965.61,1464.96C1966.35,1466.34 1966.55,1468.27 1965.59,1470.91C1964.71,1473.33 1962.84,1476.41 1959.49,1480.32C1958.46,1481.53 1955.44,1483.26 1951.28,1485.4C1941.93,1490.22 1926.67,1497.34 1916.15,1506.11C1915.79,1506.41 1915.27,1506.36 1914.97,1506.01C1914.68,1505.65 1914.73,1505.13 1915.08,1504.83C1925.7,1495.98 1941.09,1488.78 1950.52,1483.92C1954.41,1481.92 1957.26,1480.36 1958.23,1479.23C1961.4,1475.53 1963.19,1472.63 1964.02,1470.35C1964.77,1468.3 1964.71,1466.82 1964.14,1465.75C1963.39,1464.34 1961.8,1463.71 1960.35,1463.42C1959.03,1463.16 1957.47,1463.31 1957.27,1463.33Z"/>
            <path d="M1916.86,1505.26C1916.85,1505.39 1916.78,1506.49 1916.84,1507.43C1917.02,1510.66 1917.76,1515.72 1917.88,1516.36C1917.94,1516.72 1918.58,1517.89 1919.58,1519.62C1922.09,1523.95 1926.91,1531.43 1932.1,1538.06C1936.94,1544.25 1942.07,1549.73 1945.91,1551.01C1947.88,1551.66 1950.89,1554.06 1954.28,1556.48C1957.48,1558.76 1961.05,1561.06 1964.43,1561.65C1969.35,1562.52 1972.52,1562.69 1974.6,1562.54C1977.31,1562.34 1977.89,1561.57 1978.17,1561.24C1978.25,1561.13 1978.33,1561.05 1978.4,1561L1978.6,1560.86C1979.01,1560.66 1979.51,1560.83 1979.72,1561.24C1979.9,1561.61 1979.79,1562.05 1979.46,1562.28C1979.46,1562.29 1979.46,1562.29 1979.46,1562.29C1978.89,1562.99 1977.37,1565.63 1964.14,1563.29C1960.55,1562.66 1956.72,1560.26 1953.31,1557.83C1950.09,1555.54 1947.26,1553.21 1945.39,1552.59C1941.35,1551.24 1935.87,1545.59 1930.79,1539.09C1924.79,1531.43 1919.28,1522.64 1917.2,1518.78C1916.61,1517.7 1916.29,1516.95 1916.24,1516.66C1916.1,1515.9 1915.13,1509.23 1915.13,1506.21C1915.13,1505.59 1915.17,1505.1 1915.26,1504.81L1915.39,1504.47L1915.58,1504.21C1915.91,1503.88 1916.43,1503.88 1916.76,1504.21C1917.05,1504.49 1917.08,1504.93 1916.86,1505.26Z"/>
            <path d="M1977.81,1562.24C1977.64,1561.82 1977.85,1561.33 1978.28,1561.16C1978.7,1560.99 1979.19,1561.19 1979.36,1561.62C1985.73,1577.45 1985.78,1577.38 1991.18,1593.58C1992.51,1597.57 1993.89,1600.76 1998.97,1618.61C1999.1,1619.05 1998.84,1619.51 1998.4,1619.64C1997.96,1619.77 1997.5,1619.51 1997.37,1619.07C1992.3,1601.27 1990.92,1598.08 1989.6,1594.11C1984.21,1577.96 1984.16,1578.03 1977.81,1562.24Z"/>
            <path d="M1945.18,1258.93C1945.12,1258.66 1945.19,1258.36 1945.41,1258.15C1945.48,1258.07 1945.56,1258 1945.64,1257.92C1947.06,1255.15 1949.47,1253.31 1951.95,1252C1954.1,1250.87 1956.29,1250.15 1957.85,1249.56C1970.88,1242.31 1992.26,1233.8 2019,1230.46C2020,1230.34 2045.85,1225.58 2058.29,1230.13C2061.15,1231.18 2063.33,1232.72 2064.46,1234.84C2065.61,1236.97 2065.74,1239.72 2064.33,1243.24C2063.25,1245.94 2060.46,1247.38 2055.86,1248.09C2049.51,1249.08 2039.57,1248.85 2026.14,1249.87C2012.08,1250.95 1993.22,1251 1973.58,1263.03C1960.28,1271.18 1952.79,1271.71 1948.88,1270.46C1945.9,1269.5 1944.79,1267.49 1944.62,1266.48C1944.11,1263.43 1944.4,1260.96 1945.18,1258.93ZM1960.16,1250.17C1960.09,1250.32 1959.96,1250.45 1959.8,1250.53C1959.44,1250.71 1958.99,1250.89 1958.47,1251.09C1953.16,1254.06 1949.29,1256.8 1947.08,1258.85C1946.15,1260.75 1945.75,1263.15 1946.26,1266.2C1946.36,1266.76 1946.94,1267.66 1948.19,1268.36C1950.42,1269.59 1954.56,1270.04 1961.71,1267.25C1964.81,1266.04 1968.45,1264.22 1972.71,1261.61C1992.63,1249.41 2011.75,1249.3 2026.01,1248.21C2039.39,1247.19 2049.28,1247.43 2055.6,1246.45C2059.43,1245.85 2061.88,1244.88 2062.78,1242.62C2064.03,1239.5 2063.94,1237.11 2062.8,1235.29C2061.02,1232.45 2056.88,1231.03 2051.91,1230.34C2038.84,1228.51 2020.05,1232.01 2019.2,1232.12C1993.7,1235.3 1973.13,1243.21 1960.16,1250.17Z"/>
            <g transform="matrix(1,0,0,1,47.8118,186.277)">
                <path d="M1945.18,1258.93C1945.12,1258.66 1945.19,1258.36 1945.41,1258.15C1945.48,1258.07 1945.56,1258 1945.64,1257.92C1947.06,1255.15 1949.47,1253.31 1951.95,1252C1954.1,1250.87 1956.29,1250.15 1957.85,1249.56C1970.88,1242.31 1992.26,1233.8 2019,1230.46C2020,1230.34 2045.85,1225.58 2058.29,1230.13C2061.15,1231.18 2063.33,1232.72 2064.46,1234.84C2065.61,1236.97 2065.74,1239.72 2064.33,1243.24C2063.25,1245.94 2060.46,1247.38 2055.86,1248.09C2049.51,1249.08 2039.57,1248.85 2026.14,1249.87C2012.08,1250.95 1993.22,1251 1973.58,1263.03C1960.28,1271.18 1952.79,1271.71 1948.88,1270.46C1945.9,1269.5 1944.79,1267.49 1944.62,1266.48C1944.11,1263.43 1944.4,1260.96 1945.18,1258.93ZM1960.16,1250.17C1960.09,1250.32 1959.96,1250.45 1959.8,1250.53C1959.44,1250.71 1958.99,1250.89 1958.47,1251.09C1953.16,1254.06 1949.29,1256.8 1947.08,1258.85C1946.15,1260.75 1945.75,1263.15 1946.26,1266.2C1946.36,1266.76 1946.94,1267.66 1948.19,1268.36C1950.42,1269.59 1954.56,1270.04 1961.71,1267.25C1964.81,1266.04 1968.45,1264.22 1972.71,1261.61C1992.63,1249.41 2011.75,1249.3 2026.01,1248.21C2039.39,1247.19 2049.28,1247.43 2055.6,1246.45C2059.43,1245.85 2061.88,1244.88 2062.78,1242.62C2064.03,1239.5 2063.94,1237.11 2062.8,1235.29C2061.02,1232.45 2056.88,1231.03 2051.91,1230.34C2038.84,1228.51 2020.05,1232.01 2019.2,1232.12C1993.7,1235.3 1973.13,1243.21 1960.16,1250.17Z"/>
            </g>
            <g transform="matrix(1,0,0,1,39.6193,150.021)">
                <path d="M1945.18,1258.93C1945.12,1258.66 1945.19,1258.36 1945.41,1258.15C1945.48,1258.07 1945.56,1258 1945.64,1257.92C1947.06,1255.15 1949.47,1253.31 1951.95,1252C1954.1,1250.87 1956.29,1250.15 1957.85,1249.56C1970.88,1242.31 1992.26,1233.8 2019,1230.46C2020,1230.34 2045.85,1225.58 2058.29,1230.13C2061.15,1231.18 2063.33,1232.72 2064.46,1234.84C2065.61,1236.97 2065.74,1239.72 2064.33,1243.24C2063.25,1245.94 2060.46,1247.38 2055.86,1248.09C2049.51,1249.08 2039.57,1248.85 2026.14,1249.87C2012.08,1250.95 1993.22,1251 1973.58,1263.03C1960.28,1271.18 1952.79,1271.71 1948.88,1270.46C1945.9,1269.5 1944.79,1267.49 1944.62,1266.48C1944.11,1263.43 1944.4,1260.96 1945.18,1258.93ZM1960.16,1250.17C1960.09,1250.32 1959.96,1250.45 1959.8,1250.53C1959.44,1250.71 1958.99,1250.89 1958.47,1251.09C1953.16,1254.06 1949.29,1256.8 1947.08,1258.85C1946.15,1260.75 1945.75,1263.15 1946.26,1266.2C1946.36,1266.76 1946.94,1267.66 1948.19,1268.36C1950.42,1269.59 1954.56,1270.04 1961.71,1267.25C1964.81,1266.04 1968.45,1264.22 1972.71,1261.61C1992.63,1249.41 2011.75,1249.3 2026.01,1248.21C2039.39,1247.19 2049.28,1247.43 2055.6,1246.45C2059.43,1245.85 2061.88,1244.88 2062.78,1242.62C2064.03,1239.5 2063.94,1237.11 2062.8,1235.29C2061.02,1232.45 2056.88,1231.03 2051.91,1230.34C2038.84,1228.51 2020.05,1232.01 2019.2,1232.12C1993.7,1235.3 1973.13,1243.21 1960.16,1250.17Z"/>
            </g>
            <g transform="matrix(1,0,0,1,30.2748,111.462)">
                <path d="M1945.18,1258.93C1945.12,1258.66 1945.19,1258.36 1945.41,1258.15C1945.48,1258.07 1945.56,1258 1945.64,1257.92C1947.06,1255.15 1949.47,1253.31 1951.95,1252C1954.1,1250.87 1956.29,1250.15 1957.85,1249.56C1970.88,1242.31 1992.26,1233.8 2019,1230.46C2020,1230.34 2045.85,1225.58 2058.29,1230.13C2061.15,1231.18 2063.33,1232.72 2064.46,1234.84C2065.61,1236.97 2065.74,1239.72 2064.33,1243.24C2063.25,1245.94 2060.46,1247.38 2055.86,1248.09C2049.51,1249.08 2039.57,1248.85 2026.14,1249.87C2012.08,1250.95 1993.22,1251 1973.58,1263.03C1960.28,1271.18 1952.79,1271.71 1948.88,1270.46C1945.9,1269.5 1944.79,1267.49 1944.62,1266.48C1944.11,1263.43 1944.4,1260.96 1945.18,1258.93ZM1960.16,1250.17C1960.09,1250.32 1959.96,1250.45 1959.8,1250.53C1959.44,1250.71 1958.99,1250.89 1958.47,1251.09C1953.16,1254.06 1949.29,1256.8 1947.08,1258.85C1946.15,1260.75 1945.75,1263.15 1946.26,1266.2C1946.36,1266.76 1946.94,1267.66 1948.19,1268.36C1950.42,1269.59 1954.56,1270.04 1961.71,1267.25C1964.81,1266.04 1968.45,1264.22 1972.71,1261.61C1992.63,1249.41 2011.75,1249.3 2026.01,1248.21C2039.39,1247.19 2049.28,1247.43 2055.6,1246.45C2059.43,1245.85 2061.88,1244.88 2062.78,1242.62C2064.03,1239.5 2063.94,1237.11 2062.8,1235.29C2061.02,1232.45 2056.88,1231.03 2051.91,1230.34C2038.84,1228.51 2020.05,1232.01 2019.2,1232.12C1993.7,1235.3 1973.13,1243.21 1960.16,1250.17Z"/>
            </g>
            <g transform="matrix(1,0,0,1,21.6599,73.9079)">
                <path d="M1945.18,1258.93C1945.12,1258.66 1945.19,1258.36 1945.41,1258.15C1945.48,1258.07 1945.56,1258 1945.64,1257.92C1947.06,1255.15 1949.47,1253.31 1951.95,1252C1954.1,1250.87 1956.29,1250.15 1957.85,1249.56C1970.88,1242.31 1992.26,1233.8 2019,1230.46C2020,1230.34 2045.85,1225.58 2058.29,1230.13C2061.15,1231.18 2063.33,1232.72 2064.46,1234.84C2065.61,1236.97 2065.74,1239.72 2064.33,1243.24C2063.25,1245.94 2060.46,1247.38 2055.86,1248.09C2049.51,1249.08 2039.57,1248.85 2026.14,1249.87C2012.08,1250.95 1993.22,1251 1973.58,1263.03C1960.28,1271.18 1952.79,1271.71 1948.88,1270.46C1945.9,1269.5 1944.79,1267.49 1944.62,1266.48C1944.11,1263.43 1944.4,1260.96 1945.18,1258.93ZM1960.16,1250.17C1960.09,1250.32 1959.96,1250.45 1959.8,1250.53C1959.44,1250.71 1958.99,1250.89 1958.47,1251.09C1953.16,1254.06 1949.29,1256.8 1947.08,1258.85C1946.15,1260.75 1945.75,1263.15 1946.26,1266.2C1946.36,1266.76 1946.94,1267.66 1948.19,1268.36C1950.42,1269.59 1954.56,1270.04 1961.71,1267.25C1964.81,1266.04 1968.45,1264.22 1972.71,1261.61C1992.63,1249.41 2011.75,1249.3 2026.01,1248.21C2039.39,1247.19 2049.28,1247.43 2055.6,1246.45C2059.43,1245.85 2061.88,1244.88 2062.78,1242.62C2064.03,1239.5 2063.94,1237.11 2062.8,1235.29C2061.02,1232.45 2056.88,1231.03 2051.91,1230.34C2038.84,1228.51 2020.05,1232.01 2019.2,1232.12C1993.7,1235.3 1973.13,1243.21 1960.16,1250.17Z"/>
            </g>
            <g transform="matrix(1,0,0,1,11.0917,36.9352)">
                <path d="M1945.18,1258.93C1945.12,1258.66 1945.19,1258.36 1945.41,1258.15C1945.48,1258.07 1945.56,1258 1945.64,1257.92C1947.06,1255.15 1949.47,1253.31 1951.95,1252C1954.1,1250.87 1956.29,1250.15 1957.85,1249.56C1970.88,1242.31 1992.26,1233.8 2019,1230.46C2020,1230.34 2045.85,1225.58 2058.29,1230.13C2061.15,1231.18 2063.33,1232.72 2064.46,1234.84C2065.61,1236.97 2065.74,1239.72 2064.33,1243.24C2063.25,1245.94 2060.46,1247.38 2055.86,1248.09C2049.51,1249.08 2039.57,1248.85 2026.14,1249.87C2012.08,1250.95 1993.22,1251 1973.58,1263.03C1960.28,1271.18 1952.79,1271.71 1948.88,1270.46C1945.9,1269.5 1944.79,1267.49 1944.62,1266.48C1944.11,1263.43 1944.4,1260.96 1945.18,1258.93ZM1960.16,1250.17C1960.09,1250.32 1959.96,1250.45 1959.8,1250.53C1959.44,1250.71 1958.99,1250.89 1958.47,1251.09C1953.16,1254.06 1949.29,1256.8 1947.08,1258.85C1946.15,1260.75 1945.75,1263.15 1946.26,1266.2C1946.36,1266.76 1946.94,1267.66 1948.19,1268.36C1950.42,1269.59 1954.56,1270.04 1961.71,1267.25C1964.81,1266.04 1968.45,1264.22 1972.71,1261.61C1992.63,1249.41 2011.75,1249.3 2026.01,1248.21C2039.39,1247.19 2049.28,1247.43 2055.6,1246.45C2059.43,1245.85 2061.88,1244.88 2062.78,1242.62C2064.03,1239.5 2063.94,1237.11 2062.8,1235.29C2061.02,1232.45 2056.88,1231.03 2051.91,1230.34C2038.84,1228.51 2020.05,1232.01 2019.2,1232.12C1993.7,1235.3 1973.13,1243.21 1960.16,1250.17Z"/>
            </g>
        </g>
    </g>
</svg>
