<?xml version="1.0" encoding="UTF-8" standalone="no"?>
<!DOCTYPE svg PUBLIC "-//W3C//DTD SVG 1.1//EN" "http://www.w3.org/Graphics/SVG/1.1/DTD/svg11.dtd">
<svg width="100%" height="100%" viewBox="0 0 435 567" version="1.1" xmlns="http://www.w3.org/2000/svg" xmlns:xlink="http://www.w3.org/1999/xlink" xml:space="preserve" xmlns:serif="http://www.serif.com/" style="fill-rule:evenodd;clip-rule:evenodd;stroke-linejoin:round;stroke-miterlimit:2;">
    <g transform="matrix(1,0,0,1,-1829.37,-52.1716)">
        <g transform="matrix(1,0,0,1,-907.802,-544.056)">
            <path d="M2773.17,1011.24C2773.3,1010.8 2773.76,1010.55 2774.2,1010.68C2774.64,1010.81 2774.9,1011.27 2774.77,1011.71C2774.08,1014.06 2775.85,1013.64 2759.23,1071.8C2746.48,1116.43 2748.84,1116.65 2738.82,1161.71C2738.72,1162.16 2738.28,1162.44 2737.83,1162.34C2737.38,1162.24 2737.1,1161.8 2737.2,1161.35C2747.22,1116.24 2744.86,1116.02 2757.63,1071.35C2774.25,1013.17 2772.48,1013.59 2773.17,1011.24Z"/>
            <path d="M2774.25,1012.17C2773.84,1012.37 2773.34,1012.21 2773.14,1011.79C2772.93,1011.38 2773.1,1010.88 2773.51,1010.68C2773.84,1010.51 2775.56,1010.12 2778.08,1009.73C2783.69,1008.87 2793.38,1007.91 2799.64,1009.04C2801.68,1009.41 2803.38,1010.01 2804.51,1010.86C2805.81,1011.85 2806.44,1013.16 2806.16,1014.87C2805.97,1015.99 2800.02,1041.72 2798.38,1060.46C2798.34,1060.85 2798.04,1061.16 2797.66,1061.21C2790.14,1062.22 2787.28,1062.58 2786.09,1062.76C2785.49,1062.85 2785.44,1062.86 2785.29,1062.94C2784.88,1063.14 2784.38,1062.98 2784.17,1062.57C2783.97,1062.15 2784.13,1061.65 2784.55,1061.45C2784.79,1061.32 2784.86,1061.26 2785.85,1061.11C2787.01,1060.94 2789.74,1060.6 2796.78,1059.65C2798.5,1040.92 2804.33,1015.71 2804.51,1014.6C2804.69,1013.57 2804.29,1012.79 2803.5,1012.19C2802.54,1011.46 2801.08,1010.99 2799.35,1010.68C2793.24,1009.58 2783.8,1010.54 2778.33,1011.38C2776.09,1011.72 2774.55,1012.02 2774.25,1012.17Z"/>
            <path d="M2784.26,1061.76C2784.45,1061.34 2784.95,1061.16 2785.36,1061.35C2785.78,1061.55 2785.96,1062.04 2785.77,1062.46C2779.25,1076.4 2770.47,1133.13 2763.79,1158.5C2767.34,1158.72 2770.27,1159.4 2772.74,1159.68C2775.15,1159.94 2777.09,1159.84 2778.69,1158.23C2780.16,1156.76 2781.35,1154.15 2782.45,1149.74C2784.27,1142.45 2785.11,1142.96 2787.97,1131.53C2790.04,1123.27 2784.91,1122.39 2806.18,1026.69C2808.22,1017.5 2809.08,1018.12 2811.08,1008.81C2811.13,1008.58 2811.27,1008.38 2811.48,1008.26C2811.69,1008.14 2811.93,1008.12 2812.16,1008.19C2821.32,1011.29 2829.37,1009.21 2834.78,1008.81C2837.86,1008.57 2840.16,1008.93 2841.53,1010.59C2842.83,1012.18 2843.33,1015.13 2842.58,1020.37C2839.89,1039.26 2840.87,1038.88 2837.06,1057.94C2836.97,1058.39 2836.53,1058.68 2836.08,1058.6C2835.63,1058.5 2835.33,1058.07 2835.42,1057.61C2839.23,1038.6 2838.24,1038.97 2840.93,1020.13C2841.27,1017.77 2841.36,1015.93 2841.21,1014.49C2841.08,1013.21 2840.77,1012.29 2840.24,1011.65C2839.75,1011.06 2839.08,1010.73 2838.27,1010.56C2837.32,1010.36 2836.19,1010.37 2834.91,1010.47C2829.51,1010.87 2821.57,1012.83 2812.51,1010.06C2810.65,1018.44 2809.78,1018.16 2807.81,1027.05C2786.53,1122.79 2791.66,1123.67 2789.59,1131.93C2786.73,1143.37 2785.89,1142.86 2784.07,1150.14C2782.86,1154.97 2781.48,1157.8 2779.87,1159.41C2777.89,1161.4 2775.53,1161.66 2772.55,1161.33C2769.88,1161.03 2766.66,1160.25 2762.69,1160.11C2762.44,1160.1 2762.2,1159.98 2762.05,1159.77C2761.9,1159.57 2761.85,1159.31 2761.92,1159.06C2768.64,1134.15 2777.63,1075.92 2784.26,1061.76Z"/>
            <path d="M2814,1155.81C2814.2,1156 2814.52,1156.29 2814.86,1156.55C2816.16,1157.56 2818.35,1158.94 2820.62,1159.45C2822,1159.76 2823.42,1159.75 2824.64,1159.01C2826,1158.2 2827.08,1156.52 2827.7,1153.63C2830.75,1139.39 2831.78,1139.97 2834.88,1126.03C2839.8,1103.85 2839.95,1070.98 2842.1,1057.52C2842.18,1057.07 2842.6,1056.76 2843.06,1056.83C2843.51,1056.9 2843.82,1057.33 2843.75,1057.79C2841.59,1071.26 2841.44,1104.18 2836.5,1126.39C2833.41,1140.32 2832.38,1139.75 2829.33,1153.98C2828.58,1157.49 2827.15,1159.45 2825.49,1160.44C2823.9,1161.4 2822.06,1161.48 2820.25,1161.08C2817.73,1160.51 2815.29,1158.99 2813.84,1157.87C2812.94,1157.18 2812.4,1156.58 2812.32,1156.41L2812.23,1156.07L2812.27,1155.75C2815.01,1147.22 2818.81,1118.21 2822.66,1093.67C2825.24,1077.19 2827.85,1062.71 2830.14,1057.7C2830.38,1057.19 2830.96,1056.73 2831.79,1056.48C2833.3,1056.02 2835.64,1056.21 2836.78,1057.07C2837.15,1057.35 2837.22,1057.87 2836.95,1058.24C2836.67,1058.61 2836.14,1058.68 2835.78,1058.4C2835.09,1057.88 2833.78,1057.79 2832.76,1057.96C2832.43,1058.02 2832.14,1058.1 2831.9,1058.22C2831.8,1058.27 2831.7,1058.31 2831.66,1058.39C2829.4,1063.34 2826.85,1077.65 2824.3,1093.93C2820.51,1118.15 2816.73,1146.72 2814,1155.81Z"/>
            <path d="M2842.57,1056.83C2842.8,1056.8 2843.05,1056.88 2843.23,1057.07C2843.56,1057.39 2843.56,1057.92 2843.23,1058.25L2842.97,1058.43L2842.7,1058.51L2842.41,1058.51C2842.31,1058.5 2842.18,1058.46 2842.03,1058.4C2841.43,1058.18 2839.95,1057.41 2836.72,1058.38C2836.28,1058.51 2835.81,1058.26 2835.68,1057.82C2835.55,1057.38 2835.8,1056.91 2836.24,1056.78C2839.75,1055.73 2841.56,1056.42 2842.41,1056.76C2842.46,1056.78 2842.52,1056.81 2842.57,1056.83ZM2842.3,1056.89C2842.2,1056.93 2842.12,1057 2842.05,1057.07C2842.13,1056.99 2842.21,1056.93 2842.3,1056.89Z"/>
            <path d="M2841.43,1029.81C2841.44,1030.27 2841.08,1030.65 2840.62,1030.66C2840.16,1030.67 2839.78,1030.31 2839.76,1029.85C2839.73,1028.58 2841.8,1018.86 2844.05,1012.82C2844.74,1010.94 2845.47,1009.4 2846.14,1008.55C2846.54,1008.04 2846.95,1007.74 2847.32,1007.61C2848.55,1007.2 2850.43,1007.12 2852.66,1007.21C2855.83,1007.35 2859.74,1007.81 2863.41,1008C2866.87,1008.19 2874.58,1007.88 2878.78,1008.33C2879.22,1008.38 2879.54,1008.76 2879.52,1009.2C2878.95,1022.48 2879.43,1022.47 2877.48,1035.65C2876.03,1045.42 2876.06,1049.39 2876.03,1051.86C2876.01,1053.62 2875.95,1054.65 2875.39,1056.33C2875.25,1056.76 2874.78,1057 2874.34,1056.85C2873.9,1056.71 2873.67,1056.24 2873.81,1055.8C2874.31,1054.32 2874.34,1053.39 2874.36,1051.84C2874.39,1049.34 2874.37,1045.31 2875.83,1035.41C2877.73,1022.58 2877.3,1022.33 2877.82,1009.92C2873.53,1009.58 2866.56,1009.84 2863.32,1009.67C2859.66,1009.47 2855.75,1009.01 2852.59,1008.88C2850.61,1008.8 2848.93,1008.83 2847.85,1009.19C2847.63,1009.26 2847.45,1009.54 2847.22,1009.9C2846.69,1010.71 2846.15,1011.94 2845.61,1013.4C2843.45,1019.22 2841.4,1028.58 2841.43,1029.81Z"/>
            <path d="M2882.24,1008.42C2882.34,1007.97 2882.79,1007.69 2883.24,1007.8C2883.68,1007.9 2883.96,1008.35 2883.86,1008.8C2883.58,1010 2881.73,1014.94 2875.67,1057.42C2875.6,1057.87 2875.18,1058.19 2874.72,1058.12C2874.27,1058.06 2873.95,1057.64 2874.02,1057.18C2880.1,1014.58 2881.96,1009.62 2882.24,1008.42Z"/>
            <path d="M2883.41,1009.5C2883.22,1009.55 2883.02,1009.53 2882.83,1009.44C2882.69,1009.37 2882.6,1009.32 2882.55,1009.29L2882.39,1009.16L2882.24,1008.97L2882.17,1008.77L2882.15,1008.48L2882.25,1008.16L2882.4,1007.96L2882.62,1007.81L2882.89,1007.73L2883.31,1007.77C2884.27,1007.98 2889.68,1009.3 2902.32,1008.74C2906.46,1008.55 2906.34,1008.34 2910.53,1009.04C2910.99,1009.12 2911.3,1009.55 2911.22,1010C2911.14,1010.45 2910.72,1010.76 2910.26,1010.68C2906.24,1010.01 2906.35,1010.23 2902.39,1010.4C2890.79,1010.92 2885.15,1009.87 2883.41,1009.5Z"/>
            <path d="M2910.15,1009.96C2910.18,1009.5 2910.57,1009.15 2911.03,1009.18C2911.49,1009.2 2911.84,1009.6 2911.82,1010.06C2911.6,1013.68 2910.06,1020.54 2908.89,1053.16C2907.99,1078.53 2907.35,1078.21 2906.37,1103.63C2906.35,1104.09 2905.96,1104.45 2905.5,1104.43C2905.04,1104.41 2904.68,1104.03 2904.7,1103.57C2905.68,1078.14 2906.32,1078.47 2907.23,1053.1C2908.39,1020.45 2909.94,1013.58 2910.15,1009.96Z"/>
            <path d="M2911.2,1011.87C2911.28,1011.41 2911.71,1011.11 2912.16,1011.19C2912.62,1011.27 2912.92,1011.71 2912.84,1012.16C2912.61,1013.45 2912.97,1014.81 2913.37,1017.27C2914.38,1023.36 2915.85,1035.77 2911.22,1068.16C2910.79,1071.18 2907.27,1099.25 2906.1,1106.27C2906.03,1106.72 2905.6,1107.03 2905.14,1106.95C2904.69,1106.88 2904.38,1106.45 2904.46,1105.99C2905.63,1098.98 2909.14,1070.94 2909.57,1067.93C2914.81,1031.26 2912.19,1020.46 2911.35,1015.29C2911.11,1013.88 2911.02,1012.85 2911.2,1011.87Z"/>
            <path d="M2874.63,1056.71C2875.05,1056.91 2875.22,1057.41 2875.03,1057.82C2874.83,1058.24 2874.33,1058.42 2873.92,1058.22C2873.46,1058.01 2873.28,1058.03 2872.68,1058.14C2872.21,1058.24 2871.56,1058.38 2870.56,1058.56C2869.87,1069 2862.81,1139.22 2860.72,1155.98C2860.66,1156.44 2860.24,1156.76 2859.79,1156.7C2859.33,1156.65 2859.01,1156.23 2859.06,1155.77C2861.21,1138.62 2868.56,1065.36 2868.94,1057.8C2868.96,1057.41 2869.25,1057.09 2869.64,1057.02C2871.35,1056.75 2872.21,1056.52 2872.77,1056.43C2873.53,1056.31 2873.9,1056.37 2874.63,1056.71Z"/>
            <path d="M2860.79,1156.66C2860.86,1156.68 2860.94,1156.7 2861.01,1156.72C2861.45,1156.84 2862.07,1156.93 2862.8,1157.02C2866.51,1157.45 2872.98,1157.54 2875.32,1157.46C2875.44,1150.82 2876.11,1116.08 2878.01,1109.41C2879.16,1105.38 2883.7,1069.23 2882.98,1057.83C2881.7,1058.03 2879.39,1058.36 2877.65,1058.48C2876.45,1058.56 2875.48,1058.48 2875.11,1058.29C2874.7,1058.09 2874.53,1057.59 2874.73,1057.17C2874.94,1056.77 2875.42,1056.6 2875.83,1056.79C2875.83,1056.79 2876.01,1056.83 2876.13,1056.84C2876.5,1056.86 2876.99,1056.85 2877.54,1056.81C2879.83,1056.66 2883.15,1056.11 2883.6,1056.04C2883.83,1056 2884.06,1056.06 2884.24,1056.2C2884.43,1056.34 2884.54,1056.55 2884.57,1056.78C2885.62,1067.18 2880.81,1105.68 2879.61,1109.87C2877.63,1116.81 2877.04,1154.38 2876.98,1158.26C2876.97,1158.67 2876.66,1159.02 2876.24,1159.07C2874.83,1159.24 2864.48,1159.16 2860.95,1158.42C2860.41,1158.31 2860.01,1158.17 2859.76,1158.03L2859.49,1157.84L2859.3,1157.63L2859.16,1157.35L2859.12,1156.99L2859.2,1156.66L2859.35,1156.42C2859.63,1156.05 2860.15,1155.99 2860.51,1156.27C2860.65,1156.37 2860.74,1156.51 2860.79,1156.66Z"/>
            <path d="M2900.33,1156.78C2900.29,1157.24 2899.88,1157.57 2899.42,1157.53C2898.97,1157.49 2898.63,1157.08 2898.67,1156.62C2898.79,1155.31 2899.15,1155.81 2903.03,1120.88C2905.21,1101.3 2905.15,1100.42 2905.03,1098.64C2904.99,1098.18 2905.34,1097.79 2905.8,1097.75C2906.26,1097.72 2906.66,1098.07 2906.69,1098.53C2906.82,1100.33 2906.89,1101.22 2904.69,1121.06C2900.81,1155.96 2900.45,1155.46 2900.33,1156.78Z"/>
            <path d="M2934.23,1053.63C2934.28,1053.18 2934.7,1052.85 2935.16,1052.91C2935.61,1052.97 2935.94,1053.38 2935.88,1053.84C2935.52,1056.76 2934.7,1060.41 2929.96,1107.82C2927.51,1132.26 2926.55,1132.33 2924.65,1156.38C2933.24,1157.19 2933.76,1156.23 2942.22,1157C2942.34,1117.99 2949.1,1065.72 2949.44,1059.24C2949.47,1058.78 2949.86,1058.43 2950.32,1058.45C2950.78,1058.48 2951.13,1058.87 2951.11,1059.33C2950.76,1065.86 2943.9,1118.85 2943.88,1157.92C2943.88,1158.16 2943.78,1158.38 2943.61,1158.54C2943.43,1158.7 2943.2,1158.77 2942.97,1158.75C2933.34,1157.79 2933.37,1158.94 2923.68,1157.96C2923.22,1157.91 2922.89,1157.52 2922.93,1157.07C2924.86,1132.18 2925.83,1132.38 2928.3,1107.65C2933.04,1060.21 2933.87,1056.56 2934.23,1053.63Z" style="fill:rgb(6,6,6);"/>
            <path d="M2954.03,1057.19C2953.69,1057.41 2953.24,1057.37 2952.96,1057.06C2952.64,1056.72 2952.67,1056.19 2953.01,1055.88L2953.31,1055.68L2953.7,1055.56C2953.93,1055.51 2954.27,1055.57 2954.66,1055.29C2955.1,1054.98 2955.58,1054.3 2956.12,1052.89C2956.95,1050.73 2957.82,1047.03 2958.62,1040.68C2959.85,1030.83 2961.17,1030.41 2963.39,1021.26C2965.34,1013.24 2965.29,1010.96 2965.27,1009.96C2965.26,1009.33 2965.29,1009.06 2965.53,1008.61C2965.75,1008.2 2966.26,1008.05 2966.66,1008.27C2967.07,1008.49 2967.22,1009 2967,1009.4C2966.9,1009.58 2966.93,1009.69 2966.94,1009.93C2966.96,1010.96 2967.03,1013.33 2965.01,1021.65C2962.81,1030.72 2961.49,1031.13 2960.27,1040.89C2959.45,1047.44 2958.54,1051.26 2957.68,1053.49C2956.95,1055.38 2956.22,1056.23 2955.62,1056.65C2955.01,1057.08 2954.18,1057.18 2954.03,1057.19Z" style="fill:rgb(6,6,6);"/>
            <path d="M2966.39,1010.41C2965.93,1010.44 2965.54,1010.09 2965.51,1009.63C2965.49,1009.17 2965.84,1008.78 2966.3,1008.75C2967.89,1008.66 2984.51,1007.58 2985.03,1007.47C2985.48,1007.38 2985.91,1007.68 2986.01,1008.13C2986.1,1008.58 2985.8,1009.02 2985.35,1009.11C2984.83,1009.21 2968,1010.32 2966.39,1010.41Z" style="fill:rgb(6,6,6);"/>
            <path d="M2984.28,1008.36C2984.3,1007.9 2984.69,1007.54 2985.15,1007.55C2985.61,1007.57 2985.97,1007.96 2985.95,1008.42C2985.84,1011.63 2986.41,1040.91 2984.05,1056.27C2983.98,1056.72 2983.55,1057.03 2983.1,1056.96C2982.64,1056.89 2982.33,1056.47 2982.4,1056.01C2984.75,1040.72 2984.17,1011.55 2984.28,1008.36Z" style="fill:rgb(6,6,6);"/>
            <path d="M2982.8,1056.43C2983.23,1056.58 2983.45,1057.06 2983.29,1057.5C2983.14,1057.93 2982.66,1058.15 2982.22,1057.99C2981.67,1057.79 2981.34,1057.62 2980.94,1057.58C2980.4,1057.52 2979.76,1057.7 2978.33,1058.24C2977.71,1078.35 2975.81,1099.24 2975.49,1102.81C2972.96,1130.59 2974.73,1130.54 2973.34,1158.3C2973.32,1158.76 2972.93,1159.12 2972.47,1159.09C2972.01,1159.07 2971.66,1158.68 2971.68,1158.22C2973.07,1130.42 2971.3,1130.47 2973.83,1102.66C2974.15,1099.07 2976.08,1077.87 2976.68,1057.64C2976.69,1057.3 2976.9,1057.01 2977.22,1056.88C2979.45,1056.03 2980.38,1055.84 2981.13,1055.92C2981.64,1055.98 2982.08,1056.17 2982.8,1056.43Z" style="fill:rgb(6,6,6);"/>
            <g transform="matrix(1,0,0,1,112.032,0.782063)">
                <path d="M2982.48,1056.58C2982.93,1056.52 2983.35,1056.84 2983.42,1057.29C2983.48,1057.75 2983.16,1058.17 2982.71,1058.23C2981.33,1058.42 2980.95,1058.12 2978.33,1058.4C2977.7,1078.46 2975.81,1099.25 2975.49,1102.81C2972.96,1130.59 2974.73,1130.54 2973.34,1158.3C2973.32,1158.76 2972.93,1159.12 2972.47,1159.09C2972.01,1159.07 2971.66,1158.68 2971.68,1158.22C2973.07,1130.42 2971.3,1130.47 2973.83,1102.66C2974.15,1099.07 2976.08,1077.87 2976.68,1057.64C2976.7,1057.23 2977,1056.89 2977.41,1056.84C2980.67,1056.41 2980.99,1056.79 2982.48,1056.58Z" style="fill:rgb(6,6,6);"/>
            </g>
            <path d="M2982.8,1056.43C2983.23,1056.58 2983.45,1057.06 2983.29,1057.5C2983.14,1057.93 2982.66,1058.15 2982.22,1057.99C2981.67,1057.79 2981.34,1057.62 2980.94,1057.58C2980.4,1057.52 2979.76,1057.7 2978.33,1058.24C2977.71,1078.35 2975.81,1099.24 2975.49,1102.81C2972.96,1130.59 2974.73,1130.54 2973.34,1158.3C2973.32,1158.76 2972.93,1159.12 2972.47,1159.09C2972.01,1159.07 2971.66,1158.68 2971.68,1158.22C2973.07,1130.42 2971.3,1130.47 2973.83,1102.66C2974.15,1099.07 2976.08,1077.87 2976.68,1057.64C2976.69,1057.3 2976.9,1057.01 2977.22,1056.88C2979.45,1056.03 2980.38,1055.84 2981.13,1055.92C2981.64,1055.98 2982.08,1056.17 2982.8,1056.43Z" style="fill:rgb(6,6,6);"/>
            <g transform="matrix(1,0,0,1,155.997,-0.0787518)">
                <path d="M2984.57,1056.39C2985.03,1056.36 2985.42,1056.71 2985.45,1057.17C2985.48,1057.63 2985.13,1058.02 2984.67,1058.05C2983.26,1058.14 2981.39,1058.21 2978.33,1058.44C2977.7,1078.48 2975.81,1099.25 2975.49,1102.81C2972.96,1130.59 2974.73,1130.54 2973.34,1158.3C2973.32,1158.76 2972.93,1159.12 2972.47,1159.09C2972.01,1159.07 2971.66,1158.68 2971.68,1158.22C2973.07,1130.42 2971.3,1130.47 2973.83,1102.66C2974.15,1099.07 2976.08,1077.87 2976.68,1057.64C2976.7,1057.21 2977.03,1056.87 2977.45,1056.83C2980.98,1056.56 2983.04,1056.48 2984.57,1056.39Z" style="fill:rgb(6,6,6);"/>
            </g>
            <g transform="matrix(1,0,0,1,67.6038,1.18368)">
                <path d="M2984.85,1056.42C2985.31,1056.43 2985.68,1056.8 2985.68,1057.26C2985.67,1057.72 2985.3,1058.09 2984.84,1058.09C2983.46,1058.08 2981.27,1058.1 2978.33,1058.41C2977.7,1078.47 2975.81,1099.25 2975.49,1102.81C2972.96,1130.59 2974.73,1130.54 2973.34,1158.3C2973.32,1158.76 2972.93,1159.12 2972.47,1159.09C2972.01,1159.07 2971.66,1158.68 2971.68,1158.22C2973.07,1130.42 2971.3,1130.47 2973.83,1102.66C2974.15,1099.07 2976.08,1077.87 2976.68,1057.64C2976.7,1057.22 2977.01,1056.88 2977.42,1056.84C2980.82,1056.44 2983.32,1056.41 2984.85,1056.42Z" style="fill:rgb(6,6,6);"/>
            </g>
            <path d="M2990.82,1057.89C2990.72,1057.89 2990.6,1057.88 2990.47,1057.88C2989.58,1057.87 2987.93,1057.94 2984.68,1058.04C2984.22,1058.06 2983.83,1057.7 2983.82,1057.24C2983.8,1056.78 2984.17,1056.39 2984.63,1056.38C2988.6,1056.25 2990.24,1056.17 2990.99,1056.23C2991.52,1056.27 2991.78,1056.4 2991.96,1056.54L2992.16,1056.72C2992.22,1056.79 2992.28,1056.87 2992.33,1056.96L2992.42,1057.16L2992.46,1057.36C2992.49,1057.54 2992.51,1058 2992.52,1058.68C2992.62,1065.82 2991.89,1100.03 2991.38,1111.88C2989.57,1153.4 2990.89,1153.41 2990.3,1156.97C2990.23,1157.37 2989.88,1157.66 2989.47,1157.66C2987.11,1157.66 2986.28,1157.63 2986.16,1157.62C2981.76,1159.19 2977.17,1158.52 2972.55,1158.74C2972.09,1158.76 2971.7,1158.4 2971.68,1157.94C2971.66,1157.48 2972.01,1157.09 2972.47,1157.07C2976.93,1156.86 2981.38,1157.56 2985.62,1156.05L2985.88,1155.98C2985.95,1155.97 2986.04,1155.96 2986.15,1155.96C2986.42,1155.95 2987,1155.99 2988.75,1156C2989.07,1152.95 2988.04,1150.29 2989.71,1111.81C2990.23,1099.98 2990.95,1065.83 2990.85,1058.71C2990.85,1058.4 2990.83,1058.11 2990.82,1057.89Z" style="fill:rgb(6,6,6);"/>
            <path d="M2990.83,1057.98C2990.57,1057.95 2990.16,1057.92 2989.7,1057.92C2988.29,1057.92 2985.99,1058.02 2982.47,1058.13C2982.01,1058.15 2981.63,1057.79 2981.62,1057.33C2981.6,1056.87 2981.96,1056.48 2982.42,1056.47C2987.05,1056.32 2989.6,1056.19 2990.81,1056.29C2991.75,1056.37 2992.17,1056.7 2992.33,1056.96L2992.42,1057.16L2992.46,1057.36C2992.49,1057.54 2992.51,1058 2992.52,1058.68C2992.62,1065.82 2991.89,1100.03 2991.38,1111.88C2989.57,1153.4 2990.89,1153.41 2990.3,1156.97C2990.23,1157.37 2989.88,1157.66 2989.47,1157.66C2987.11,1157.66 2986.28,1157.63 2986.16,1157.62C2981.76,1159.19 2977.17,1158.52 2972.55,1158.74C2972.09,1158.76 2971.7,1158.4 2971.68,1157.94C2971.66,1157.48 2972.01,1157.09 2972.47,1157.07C2976.93,1156.86 2981.38,1157.56 2985.62,1156.05L2985.88,1155.98C2985.95,1155.97 2986.04,1155.96 2986.15,1155.96C2986.42,1155.95 2987,1155.99 2988.75,1156C2989.07,1152.95 2988.04,1150.29 2989.71,1111.81C2990.23,1099.98 2990.95,1065.83 2990.85,1058.71C2990.85,1058.44 2990.84,1058.18 2990.83,1057.98Z" style="fill:rgb(6,6,6);"/>
            <g transform="matrix(1,0,0,1,155.997,-0.0787518)">
                <path d="M2990.82,1057.89C2990.72,1057.89 2990.6,1057.88 2990.47,1057.88C2989.58,1057.87 2987.93,1057.94 2984.68,1058.04C2984.22,1058.06 2983.83,1057.7 2983.82,1057.24C2983.8,1056.78 2984.17,1056.39 2984.63,1056.38C2988.6,1056.25 2990.24,1056.17 2990.99,1056.23C2991.52,1056.27 2991.78,1056.4 2991.96,1056.54L2992.16,1056.72C2992.22,1056.79 2992.28,1056.87 2992.33,1056.96L2992.42,1057.16L2992.46,1057.36C2992.49,1057.54 2992.51,1058 2992.52,1058.68C2992.62,1065.82 2991.89,1100.03 2991.38,1111.88C2989.57,1153.4 2990.89,1153.41 2990.3,1156.97C2990.23,1157.37 2989.88,1157.66 2989.47,1157.66C2987.11,1157.66 2986.28,1157.63 2986.16,1157.62C2981.76,1159.19 2977.17,1158.52 2972.55,1158.74C2972.09,1158.76 2971.7,1158.4 2971.68,1157.94C2971.66,1157.48 2972.01,1157.09 2972.47,1157.07C2976.93,1156.86 2981.38,1157.56 2985.62,1156.05L2985.88,1155.98C2985.95,1155.97 2986.04,1155.96 2986.15,1155.96C2986.42,1155.95 2987,1155.99 2988.75,1156C2989.07,1152.95 2988.04,1150.29 2989.71,1111.81C2990.23,1099.98 2990.95,1065.83 2990.85,1058.71C2990.85,1058.4 2990.83,1058.11 2990.82,1057.89Z" style="fill:rgb(6,6,6);"/>
            </g>
            <path d="M2985.59,1036.56C2985.71,1037 2985.45,1037.46 2985.01,1037.58C2984.57,1037.7 2984.11,1037.44 2983.99,1037C2983.87,1036.59 2983.89,1036.31 2984.01,1035.92C2984.27,1035.06 2985.44,1033.26 2986.38,1022.12C2986.99,1014.94 2987.6,1011.16 2988.37,1009.23C2988.85,1008 2989.44,1007.4 2990.07,1007.1C2990.7,1006.8 2991.41,1006.8 2992.25,1006.94C2994.48,1007.31 2994.49,1006.68 3020.49,1007.72C3020.95,1007.73 3021.31,1008.12 3021.29,1008.58C3020.76,1022.92 3021.61,1022.89 3020.38,1037.6C3019.33,1050.23 3019.69,1094.56 3019.62,1095.08C3019.55,1095.53 3019.13,1095.85 3018.67,1095.78C3018.22,1095.72 3017.9,1095.3 3017.97,1094.84C3018.04,1094.32 3017.67,1050.07 3018.72,1037.46C3019.92,1023.08 3019.13,1022.83 3019.6,1009.35C2994.23,1008.35 2994.2,1008.96 2991.97,1008.59C2991.52,1008.51 2991.12,1008.45 2990.78,1008.61C2990.44,1008.77 2990.19,1009.16 2989.92,1009.84C2989.18,1011.7 2988.63,1015.35 2988.05,1022.26C2987.19,1032.31 2986.15,1034.97 2985.72,1036.08C2985.63,1036.31 2985.55,1036.39 2985.59,1036.56Z" style="fill:rgb(6,6,6);"/>
            <path d="M3025.69,1009.08C3025.67,1009.14 3025.55,1009.59 3025.47,1010.05C3025.21,1011.58 3024.89,1014.4 3024.55,1018.1C3022.96,1035.13 3020.76,1070.66 3020.16,1085.13C3020.01,1088.63 3019.94,1090.86 3020.02,1091.21C3020.12,1091.66 3019.84,1092.11 3019.39,1092.21C3018.94,1092.31 3018.49,1092.02 3018.39,1091.57C3018.31,1091.19 3018.34,1088.81 3018.49,1085.07C3019.1,1070.57 3021.3,1035 3022.89,1017.94C3023.24,1014.18 3023.56,1011.32 3023.83,1009.76C3023.97,1008.94 3024.14,1008.42 3024.26,1008.23C3024.97,1007.08 3026.18,1006.5 3027.93,1006.34C3030.12,1006.14 3033.25,1006.57 3037.25,1006.8C3047.43,1007.4 3047.33,1005.91 3057.55,1006.29C3057.91,1006.3 3058.23,1006.55 3058.33,1006.89C3059.68,1011.63 3059.78,1015.48 3059.44,1020.49C3058.95,1027.82 3057.5,1037.69 3057.88,1056.84C3057.89,1057.3 3057.52,1057.68 3057.06,1057.69C3056.6,1057.69 3056.22,1057.33 3056.21,1056.87C3055.84,1037.65 3057.28,1027.74 3057.78,1020.38C3058.09,1015.79 3058.03,1012.21 3056.88,1007.94C3047.24,1007.64 3047.14,1009.06 3037.16,1008.47C3033.26,1008.24 3030.21,1007.8 3028.08,1008C3026.97,1008.1 3026.15,1008.36 3025.69,1009.08Z" style="fill:rgb(6,6,6);"/>
            <path d="M3017.91,1091.27C3017.96,1090.81 3018.38,1090.48 3018.84,1090.54C3019.29,1090.6 3019.62,1091.01 3019.56,1091.47C3019.24,1094.06 3020.53,1093 3017.99,1126.1C3016.8,1141.56 3017.96,1141.48 3016.41,1157.03C3016.36,1157.49 3015.95,1157.82 3015.5,1157.77C3015.04,1157.73 3014.7,1157.32 3014.75,1156.86C3016.3,1141.34 3015.14,1141.42 3016.32,1125.97C3018.88,1092.8 3017.58,1093.86 3017.91,1091.27Z" style="fill:rgb(6,6,6);"/>
            <path d="M3058.52,1057.09C3058.7,1057.51 3058.51,1058 3058.09,1058.19C3057.67,1058.37 3057.18,1058.18 3056.99,1057.75C3056.8,1057.31 3056.68,1056.12 3056.68,1054.49C3056.67,1048.61 3057.81,1036.47 3057.88,1036.1C3060.57,1021.57 3059.12,1021.51 3060.67,1006.8C3060.7,1006.54 3060.84,1006.32 3061.05,1006.18C3061.27,1006.04 3061.53,1006.01 3061.78,1006.1C3063.85,1006.84 3083.43,1009.04 3093.07,1008.24C3093.3,1008.22 3093.53,1008.3 3093.7,1008.45C3093.87,1008.61 3093.97,1008.82 3093.98,1009.05C3094.54,1036.78 3091.12,1035.63 3094.5,1057.63C3094.57,1058.09 3094.26,1058.51 3093.81,1058.58C3093.35,1058.65 3092.93,1058.34 3092.86,1057.89C3089.49,1036.02 3092.81,1036.92 3092.33,1009.96C3083.16,1010.53 3066.77,1008.79 3062.23,1007.91C3060.84,1021.76 3062.16,1022.12 3059.52,1036.41C3059.46,1036.72 3058.6,1045.91 3058.39,1052.08C3058.34,1053.65 3058.32,1055.02 3058.38,1055.99C3058.41,1056.51 3058.44,1056.9 3058.52,1057.09Z" style="fill:rgb(6,6,6);"/>
            <path d="M3096.87,1009.21C3096.86,1009.4 3096.84,1009.63 3096.83,1009.88C3096.47,1017.5 3095.76,1055.24 3095.76,1058.11C3095.76,1058.57 3095.38,1058.94 3094.92,1058.94C3094.46,1058.94 3094.09,1058.57 3094.09,1058.11C3094.09,1055.23 3094.8,1017.44 3095.16,1009.8C3095.21,1008.92 3095.26,1008.39 3095.3,1008.28L3095.37,1008.09L3095.49,1007.93L3095.73,1007.75C3095.86,1007.69 3096.49,1007.55 3097.52,1007.46C3100.97,1007.17 3109.62,1006.93 3116.56,1008.47C3117.2,1008.61 3118.04,1008.53 3118.99,1008.41C3120.61,1008.21 3122.49,1007.86 3124.18,1007.89C3125.79,1007.93 3127.22,1008.32 3128.22,1009.35C3129.2,1010.35 3129.81,1011.99 3129.62,1014.66C3129.07,1022.36 3129.86,1030.1 3129.57,1035.64C3129.52,1036.56 3130.09,1056.2 3130.31,1057.5C3130.38,1057.96 3130.08,1058.39 3129.62,1058.46C3129.17,1058.54 3128.74,1058.23 3128.66,1057.78C3128.44,1056.45 3127.86,1036.48 3127.91,1035.55C3128.2,1030 3127.4,1022.25 3127.96,1014.54C3128.09,1012.6 3127.79,1011.36 3127.11,1010.59C3126.08,1009.45 3124.33,1009.46 3122.55,1009.63C3120.15,1009.85 3117.67,1010.42 3116.2,1010.1C3109.44,1008.59 3101.02,1008.84 3097.66,1009.12C3097.37,1009.15 3097.09,1009.18 3096.87,1009.21Z" style="fill:rgb(6,6,6);"/>
            <path d="M3130.66,1057.38C3130.59,1057.84 3130.16,1058.15 3129.71,1058.08C3129.25,1058.01 3128.94,1057.58 3129.01,1057.13C3129.7,1052.7 3130.86,1054.95 3131.9,1008.27C3131.9,1008.05 3132,1007.83 3132.17,1007.68C3132.34,1007.52 3132.56,1007.45 3132.79,1007.46C3145.98,1008.45 3156.61,1007.22 3161.83,1007.93C3163.09,1008.1 3164.06,1008.39 3164.73,1008.81C3165.59,1009.34 3166.03,1010.07 3166.04,1011.04C3166.18,1018.79 3167.53,1094.51 3168.01,1107.89C3168.06,1109.37 3171.04,1147.69 3171.56,1157.49C3171.58,1157.95 3171.23,1158.34 3170.77,1158.37C3170.31,1158.39 3169.91,1158.04 3169.89,1157.58C3169.37,1147.77 3166.4,1109.43 3166.35,1107.95C3165.87,1094.56 3164.51,1018.82 3164.38,1011.07C3164.37,1010.59 3164.06,1010.3 3163.56,1010.07C3163.06,1009.84 3162.4,1009.69 3161.6,1009.58C3156.52,1008.89 3146.28,1010.06 3133.54,1009.19C3132.51,1055.17 3131.35,1052.96 3130.66,1057.38Z" style="fill:rgb(6,6,6);"/>
            <path d="M2964.93,1015.15C2964.93,1015.15 2964.93,1015.15 2964.93,1015.15C2965.17,1014.35 2965.44,1011.3 2965.76,1006.83C2967.18,986.486 2969.16,937.256 2970.2,932.226C2972.32,921.988 2973.04,914.593 2974.28,908.975C2975.13,905.1 2976.22,902.047 2978.12,899.48C2980.92,895.697 2989.22,879.079 2990.12,877.273C2990.33,876.862 2990.83,876.695 2991.24,876.9C2991.65,877.106 2991.82,877.607 2991.61,878.018C2990.7,879.845 2982.29,896.645 2979.46,900.471C2977.69,902.864 2976.7,905.72 2975.9,909.332C2974.67,914.945 2973.95,922.334 2971.83,932.563C2970.8,937.578 2968.84,986.663 2967.42,1006.95C2967.13,1011.06 2966.86,1014.01 2966.63,1015.19C2966.53,1015.69 2966.38,1015.98 2966.29,1016.1C2966.01,1016.46 2965.48,1016.51 2965.12,1016.23C2964.79,1015.96 2964.72,1015.5 2964.93,1015.15Z" style="fill:rgb(6,6,6);"/>
            <path d="M2983.64,889.838C2983.85,889.427 2984.35,889.261 2984.76,889.467C2985.17,889.674 2985.34,890.175 2985.13,890.586C2980.97,898.865 2977.25,919.492 2978.95,939.141C2980.07,952.17 2983.57,964.78 2990.99,973.023C2992.56,974.772 2995.63,976.106 2998.29,975.176C3000.07,974.552 3001.62,972.887 3002.47,969.727C3008.12,948.522 3013.67,932.796 3012.69,897.683C3011.72,862.738 3011.08,862.732 3003.31,841.376C3000.3,833.096 2999.43,827.535 2997.42,821.869C2997.27,821.436 2997.49,820.959 2997.93,820.805C2998.36,820.651 2998.84,820.878 2998.99,821.312C3001,826.974 3001.87,832.531 3004.88,840.806C3012.72,862.361 3013.38,862.366 3014.36,897.636C3015.34,932.981 3009.77,948.812 3004.08,970.156C3003.04,974.031 3001.03,975.984 2998.84,976.749C2995.53,977.905 2991.71,976.311 2989.75,974.138C2982.11,965.653 2978.45,952.696 2977.29,939.284C2975.56,919.272 2979.41,898.27 2983.64,889.838Z" style="fill:rgb(6,6,6);"/>
            <g transform="matrix(1,0,0,1,-2.08963,2.7404)">
                <path d="M2996.11,958.138C2995.95,957.885 2995.94,957.556 2996.1,957.282C2996.29,956.955 2996.48,956.643 2996.66,956.345C2997.14,954.92 2997.58,953.822 2997.87,953.291C2998.05,952.956 2998.23,952.767 2998.33,952.69L2998.55,952.57L2998.8,952.515L2999.14,952.558L2999.41,952.717C2999.86,952.271 3000.27,951.923 3000.67,951.661C3001.73,950.956 3002.67,950.824 3003.47,951.049C3004.26,951.273 3004.95,951.87 3005.49,952.799C3006.15,953.945 3006.59,955.64 3006.78,957.591C3007.16,961.343 3006.64,966.063 3005.28,969.437C3004.28,971.913 3002.78,973.66 3000.97,974.063C2999.13,974.472 2997.77,974.191 2996.78,973.498C2995.36,972.498 2994.67,970.536 2994.57,968.131C2994.44,965.035 2995.23,961.187 2996.11,958.138ZM2998.17,957.081C2997.07,960.427 2995.85,965.546 2996.32,969.113C2996.51,970.546 2996.96,971.721 2997.95,972.265C2998.61,972.625 2999.48,972.687 3000.61,972.436C3001.68,972.199 3002.51,971.247 3003.2,969.963C3004.38,967.755 3005.04,964.561 3005.2,961.486C3005.34,958.741 3005.08,956.087 3004.38,954.326C3004.01,953.419 3003.58,952.745 3002.92,952.631C3002.49,952.558 3002.02,952.74 3001.47,953.135C3000.51,953.817 2999.42,955.09 2998.17,957.081ZM2998.21,953.858C2998.15,953.774 2998.11,953.678 2998.09,953.574C2998.12,953.691 2998.16,953.784 2998.21,953.858Z" style="fill:rgb(6,6,6);"/>
            </g>
            <path d="M2999.78,829.378C2999.76,829.299 2999.52,828.195 2999.18,827.1C2997.49,821.629 2993.01,809.459 2992.53,808.089C2982.1,778.556 2977.11,772.528 2974.96,769.947C2973.24,767.886 2959.66,746.694 2953.3,725.168C2950.84,716.823 2951.12,717.128 2949.26,708.75C2949.16,708.301 2949.45,707.855 2949.89,707.755C2950.34,707.656 2950.79,707.939 2950.89,708.388C2952.74,716.71 2952.45,716.407 2954.9,724.696C2961.18,745.93 2974.55,766.847 2976.24,768.88C2978.42,771.497 2983.53,777.588 2994.1,807.534C2994.58,808.909 2999.08,821.119 3000.77,826.608C3001.08,827.605 3001.3,828.389 3001.39,828.861C3001.45,829.179 3001.46,829.409 3001.44,829.535C3001.38,829.992 3000.97,830.316 3000.51,830.259C3000.07,830.204 2999.75,829.815 2999.78,829.378Z"/>
            <path d="M2952.02,714.223C2952.1,714.677 2951.79,715.107 2951.34,715.183C2950.89,715.26 2950.46,714.954 2950.38,714.5C2949.56,709.603 2948.55,709.849 2937.34,653.816C2935.24,643.348 2933.01,619.73 2924.77,597.349C2924.61,596.918 2924.83,596.438 2925.26,596.279C2925.7,596.12 2926.18,596.341 2926.33,596.773C2934.62,619.254 2936.87,642.974 2938.97,653.489C2950.19,709.568 2951.2,709.323 2952.02,714.223Z"/>
            <path d="M2847.43,729.876C2847.45,729.924 2847.47,729.986 2847.5,730.043C2848.68,732.645 2856.11,747.249 2855.42,763.244C2855.09,770.653 2851.01,781.26 2846.13,793.32C2838.91,811.161 2829.97,832.237 2829.4,850.803C2828.09,894.106 2825.99,894.38 2832.72,920.367C2833.97,925.181 2834.51,931.099 2836.12,936.939C2838.48,945.476 2843.19,953.846 2856.14,958.162C2858.88,959.075 2862.14,958.657 2863.71,956.188C2864.51,954.926 2864.85,953.155 2864.51,950.812C2864.15,948.331 2863.03,945.251 2860.9,941.49C2860.52,941.435 2860.21,941.116 2860.19,940.715C2860.18,940.537 2860.17,940.36 2860.16,940.184C2849.45,921.224 2846.25,909.816 2846.89,904.017C2847.14,901.784 2847.95,900.303 2849.07,899.443C2850.22,898.557 2851.73,898.294 2853.46,898.639C2853.96,898.739 2854.5,899.087 2855.01,899.769C2855.57,900.525 2856.16,901.755 2856.73,903.449C2858.76,909.54 2860.72,921.949 2861.8,939.698C2861.95,939.967 2862.11,940.238 2862.26,940.51C2867.01,948.822 2866.98,954.141 2865.12,957.08C2863.14,960.195 2859.07,960.896 2855.61,959.743C2841.97,955.195 2837,946.379 2834.51,937.382C2832.9,931.533 2832.36,925.607 2831.11,920.785C2824.33,894.623 2826.42,894.349 2827.74,850.753C2828.31,832.005 2837.29,810.71 2844.58,792.695C2849.37,780.851 2853.43,770.448 2853.75,763.172C2854.43,747.54 2847.14,733.275 2845.98,730.731C2845.87,730.481 2845.8,730.31 2845.78,730.23L2845.76,729.888L2845.81,729.688L2845.9,729.506L2846.05,729.346L2846.25,729.22L2846.47,729.157L2846.65,729.15L2846.97,729.238C2847.23,729.367 2847.39,729.611 2847.43,729.876ZM2846.75,730.803C2846.58,730.834 2846.39,730.812 2846.23,730.729C2846.43,730.829 2846.6,730.834 2846.75,730.803ZM2859.91,936.297C2858.8,920.623 2857.02,909.588 2855.14,903.978C2854.65,902.504 2854.17,901.426 2853.67,900.768C2853.48,900.507 2853.32,900.312 2853.13,900.274C2851.94,900.035 2850.88,900.151 2850.08,900.764C2849.25,901.404 2848.73,902.541 2848.55,904.201C2847.96,909.529 2850.83,919.669 2859.91,936.297Z"/>
            <path d="M2909.78,1005.91C2909.63,1006.12 2909.44,1006.31 2909.24,1006.46C2908.58,1006.93 2907.62,1007.12 2906.25,1006.73C2904.63,1006.26 2902.3,1004.93 2899.05,1002.33C2886.55,992.33 2883.46,994.366 2876.36,980.122C2860.28,947.858 2859.55,938.666 2859.76,936.333C2859.8,935.875 2860.21,935.537 2860.67,935.58C2861.12,935.622 2861.46,936.028 2861.42,936.486C2861.21,938.774 2862.09,947.733 2877.85,979.379C2884.79,993.303 2887.87,991.253 2900.09,1001.02C2903.09,1003.43 2905.22,1004.7 2906.71,1005.12C2907.42,1005.33 2907.92,1005.35 2908.26,1005.1C2908.54,1004.9 2908.66,1004.55 2908.74,1004.12C2908.84,1003.52 2908.82,1002.79 2908.72,1002C2908.2,997.935 2905.68,992.279 2905.49,991.854C2890.76,958.724 2894.24,957.821 2887.11,922.269C2887.02,921.833 2887.29,921.406 2887.72,921.297C2888.16,921.189 2888.6,921.438 2888.73,921.863C2897.59,950.991 2899.87,950.257 2907.34,987.608C2908.2,991.907 2908.41,991.799 2919.36,1041.07C2920.08,1044.3 2923.16,1046.01 2925.79,1046.28C2926.64,1046.37 2927.44,1046.31 2928.1,1046.08C2928.64,1045.89 2929.08,1045.6 2929.3,1045.15C2930.17,1043.41 2930.67,1039.66 2930.97,1035.27C2931.71,1024.7 2931.23,1010.51 2931.24,1010.42C2931.26,1009.96 2931.65,1009.61 2932.11,1009.63C2932.57,1009.65 2932.92,1010.04 2932.9,1010.5C2932.89,1010.59 2933.38,1024.8 2932.64,1035.38C2932.31,1040.06 2931.72,1044.04 2930.79,1045.9C2930.04,1047.41 2927.98,1048.18 2925.62,1047.94C2922.37,1047.61 2918.62,1045.42 2917.74,1041.43C2913.97,1024.48 2911.47,1013.37 2909.78,1005.91ZM2905.8,988.43C2905.77,988.27 2905.74,988.106 2905.7,987.935C2899.55,957.18 2896.93,952.309 2891.22,935.208C2895.08,957.461 2894.51,962.6 2905.8,988.43Z"/>
            <path d="M2917.57,1031.97C2917.34,1032.37 2916.83,1032.51 2916.43,1032.28C2916.03,1032.05 2915.89,1031.54 2916.12,1031.14C2918.15,1027.58 2920.47,1026.16 2922.67,1025.87C2924.74,1025.59 2926.75,1026.32 2928.45,1027.38C2930.9,1028.92 2932.66,1031.11 2932.94,1031.55C2933.19,1031.94 2933.07,1032.45 2932.69,1032.7C2932.3,1032.95 2931.78,1032.84 2931.54,1032.45C2931.29,1032.06 2929.72,1030.14 2927.56,1028.8C2926.19,1027.93 2924.57,1027.29 2922.89,1027.52C2921.07,1027.76 2919.24,1029.03 2917.57,1031.97Z"/>
            <path d="M2934.81,1041.59C2935.65,1041.07 2936.76,1040.57 2938.05,1040.15C2941.24,1039.12 2945.55,1038.52 2949.36,1039.02C2952.97,1039.49 2956.12,1040.96 2957.64,1043.82C2958.65,1045.72 2958.96,1048.27 2958.13,1051.61C2956.95,1056.31 2951.34,1059.49 2946.16,1060.27C2942.6,1060.81 2939.29,1060.18 2937.71,1058.37C2934.93,1055.2 2933.47,1053.14 2932.8,1051.16C2931.8,1048.22 2932.55,1045.43 2933.5,1039.25C2933.57,1038.79 2934,1038.48 2934.45,1038.55C2934.91,1038.62 2935.22,1039.05 2935.15,1039.5C2935.03,1040.25 2934.92,1040.94 2934.81,1041.59ZM2934.16,1045.61C2933.88,1047.62 2933.86,1049.1 2934.38,1050.63C2935,1052.46 2936.39,1054.34 2938.96,1057.27C2939.44,1057.82 2940.14,1058.2 2940.97,1058.45C2942.36,1058.86 2944.1,1058.9 2945.91,1058.62C2948.68,1058.21 2951.61,1057.05 2953.74,1055.29C2955.09,1054.17 2956.11,1052.8 2956.51,1051.2C2957.22,1048.37 2957.03,1046.21 2956.17,1044.6C2954.89,1042.2 2952.18,1041.07 2949.15,1040.67C2945.58,1040.21 2941.55,1040.78 2938.57,1041.74C2937.04,1042.23 2935.8,1042.82 2935.08,1043.44C2934.92,1043.58 2934.78,1043.72 2934.69,1043.86C2934.62,1043.98 2934.6,1044.1 2934.7,1044.21C2935.02,1044.55 2935,1045.08 2934.66,1045.39C2934.52,1045.52 2934.34,1045.6 2934.16,1045.61Z"/>
            <g transform="matrix(1,0,0,1,112.032,0.782063)">
                <path d="M2990.82,1057.99C2990.68,1057.98 2990.51,1057.97 2990.34,1057.97C2989.13,1057.98 2986.92,1058.15 2983.01,1058.27C2982.55,1058.29 2982.17,1057.92 2982.15,1057.46C2982.14,1057.01 2982.5,1056.62 2982.96,1056.61C2987.57,1056.46 2989.85,1056.26 2990.9,1056.32C2991.78,1056.37 2992.16,1056.68 2992.33,1056.96L2992.46,1057.33C2992.48,1057.48 2992.5,1057.84 2992.51,1058.38C2992.62,1063.89 2992.09,1090.4 2991.61,1105.44C2991.53,1107.96 2991.45,1110.15 2991.38,1111.88C2989.57,1153.4 2990.89,1153.41 2990.3,1156.97C2990.23,1157.37 2989.88,1157.66 2989.47,1157.66C2987.11,1157.66 2986.28,1157.63 2986.16,1157.62C2981.76,1159.19 2977.17,1158.52 2972.55,1158.74C2972.09,1158.76 2971.7,1158.4 2971.68,1157.94C2971.66,1157.48 2972.01,1157.09 2972.47,1157.07C2976.93,1156.86 2981.38,1157.56 2985.62,1156.05L2985.88,1155.98C2985.95,1155.97 2986.04,1155.96 2986.15,1155.96C2986.42,1155.95 2987,1155.99 2988.75,1156C2989.07,1152.95 2988.04,1150.29 2989.71,1111.81C2989.79,1110.09 2989.87,1107.9 2989.95,1105.39C2990.37,1092.04 2990.84,1069.64 2990.86,1060.97C2990.86,1059.68 2990.84,1058.56 2990.82,1057.99Z" style="fill:rgb(6,6,6);"/>
            </g>
            <g transform="matrix(1,0,0,1,67.6038,1.18368)">
                <path d="M2990.82,1057.89C2990.72,1057.89 2990.6,1057.88 2990.47,1057.88C2989.58,1057.87 2987.93,1057.94 2984.68,1058.04C2984.22,1058.06 2983.83,1057.7 2983.82,1057.24C2983.8,1056.78 2984.17,1056.39 2984.63,1056.38C2988.6,1056.25 2990.24,1056.17 2990.99,1056.23C2991.52,1056.27 2991.78,1056.4 2991.96,1056.54L2992.16,1056.72C2992.22,1056.79 2992.28,1056.87 2992.33,1056.96L2992.42,1057.16L2992.46,1057.36C2992.49,1057.54 2992.51,1058 2992.52,1058.68C2992.62,1065.82 2991.89,1100.03 2991.38,1111.88C2989.57,1153.4 2990.89,1153.41 2990.3,1156.97C2990.23,1157.37 2989.88,1157.66 2989.47,1157.66C2987.11,1157.66 2986.28,1157.63 2986.16,1157.62C2981.76,1159.19 2977.17,1158.52 2972.55,1158.74C2972.09,1158.76 2971.7,1158.4 2971.68,1157.94C2971.66,1157.48 2972.01,1157.09 2972.47,1157.07C2976.93,1156.86 2981.38,1157.56 2985.62,1156.05L2985.88,1155.98C2985.95,1155.97 2986.04,1155.96 2986.15,1155.96C2986.42,1155.95 2987,1155.99 2988.75,1156C2989.07,1152.95 2988.04,1150.29 2989.71,1111.81C2990.23,1099.98 2990.95,1065.83 2990.85,1058.71C2990.85,1058.4 2990.83,1058.11 2990.82,1057.89Z" style="fill:rgb(6,6,6);"/>
            </g>
            <path d="M2933.06,1020.6C2933.08,1021.06 2932.72,1021.44 2932.26,1021.46C2931.8,1021.48 2931.41,1021.12 2931.39,1020.66C2931.32,1018.5 2931.47,986.347 2930.1,956.199C2929.8,949.804 2926.34,930.863 2926.17,928.099C2926.15,927.64 2926.5,927.245 2926.96,927.218C2927.41,927.191 2927.81,927.542 2927.84,928.001C2928,930.767 2931.47,949.724 2931.76,956.123C2933.13,986.278 2932.98,1018.44 2933.06,1020.6Z"/>
            <path d="M2934.35,1046.75C2934.3,1047.2 2933.9,1047.54 2933.44,1047.5C2932.98,1047.46 2932.64,1047.05 2932.69,1046.59C2935.4,1017.42 2938,1017.54 2935.04,992.358C2929.05,941.489 2926.8,932.442 2925.52,927.343C2925.41,926.896 2925.68,926.444 2926.13,926.332C2926.57,926.22 2927.03,926.492 2927.14,926.938C2928.42,932.055 2930.69,941.129 2936.69,992.163C2939.68,1017.51 2937.07,1017.38 2934.35,1046.75Z"/>
            <path d="M2897.47,998.062C2897.51,998.52 2897.17,998.925 2896.71,998.965C2896.25,999.006 2895.85,998.666 2895.81,998.208C2895.41,993.666 2897.37,991.283 2899.82,990.507C2903.46,989.352 2908.46,991.873 2909.26,996.679C2909.34,997.132 2909.03,997.562 2908.58,997.638C2908.12,997.713 2907.7,997.406 2907.62,996.953C2907.18,994.323 2905.14,992.558 2902.98,992.043C2901.6,991.714 2900.16,991.895 2899.09,992.746C2897.91,993.693 2897.23,995.432 2897.47,998.062Z"/>
        </g>
    </g>
</svg>
