<?xml version="1.0" encoding="UTF-8" standalone="no"?>
<!DOCTYPE svg PUBLIC "-//W3C//DTD SVG 1.1//EN" "http://www.w3.org/Graphics/SVG/1.1/DTD/svg11.dtd">
<svg width="100%" height="100%" viewBox="0 0 439 441" version="1.1" xmlns="http://www.w3.org/2000/svg" xmlns:xlink="http://www.w3.org/1999/xlink" xml:space="preserve" xmlns:serif="http://www.serif.com/" style="fill-rule:evenodd;clip-rule:evenodd;stroke-linejoin:round;stroke-miterlimit:2;">
    <g transform="matrix(1,0,0,1,-1264.03,-57.5463)">
        <g>
            <g transform="matrix(1,0,0,1,-659.998,-273.873)">
                <path d="M2169.68,701.767C2170.45,700.31 2172.08,698.178 2184.01,688.818C2184.23,688.647 2184.51,688.596 2184.78,688.679C2185.04,688.762 2185.24,688.97 2185.32,689.234C2185.55,689.979 2186.98,694.827 2186.44,699.001C2186.05,702.027 2184.65,704.689 2181.29,705.527C2175.42,706.996 2170.79,703.869 2169.88,703.193C2169.81,703.154 2169.74,703.104 2169.68,703.043L2169.54,702.89L2169.4,702.577L2169.39,702.223L2169.46,702.041L2169.57,701.855L2169.68,701.767ZM2171.35,702.201C2172.73,703.136 2176.26,705.067 2180.89,703.91C2183.49,703.261 2184.49,701.131 2184.79,698.787C2185.17,695.891 2184.5,692.647 2184.06,690.901C2174.27,698.619 2172.19,700.841 2171.35,702.201Z"/>
            </g>
            <g transform="matrix(1,0,0,1,-597.592,-336.498)">
                <path d="M2169.68,701.765C2170.25,700.717 2171.19,699.583 2177.14,694.442C2178.96,692.871 2181.21,691.016 2184.01,688.818C2184.23,688.647 2184.51,688.596 2184.78,688.679C2185.04,688.762 2185.24,688.97 2185.32,689.234C2185.55,689.979 2186.98,694.827 2186.44,699.001C2186.05,702.027 2184.65,704.689 2181.29,705.527C2175.42,706.996 2170.79,703.869 2169.88,703.193C2169.81,703.154 2169.74,703.104 2169.68,703.043L2169.54,702.89L2169.4,702.577L2169.39,702.223L2169.46,702.041L2169.57,701.855L2169.68,701.765ZM2171.36,702.206C2172.74,703.143 2176.27,705.065 2180.89,703.91C2183.49,703.261 2184.49,701.131 2184.79,698.787C2185.17,695.892 2184.5,692.649 2184.06,690.903C2181.73,692.747 2179.81,694.334 2178.23,695.703C2173.25,700.011 2171.96,701.288 2171.36,702.206Z"/>
            </g>
            <g transform="matrix(1,0,0,1,-659.998,-273.873)">
                <path d="M2199.57,476.376C2199.62,476.342 2199.67,476.307 2199.72,476.272C2202.66,474.18 2212.08,465.896 2214.56,462.058C2216.12,459.641 2224.5,452.381 2233.41,443.254C2242.18,434.27 2251.47,423.45 2255.02,413.671C2260.36,399.005 2264.91,397.517 2261.82,375.864C2259.54,359.904 2261.75,347.212 2261.48,338.563C2261.4,335.93 2261.68,334.255 2262.11,333.232C2262.49,332.349 2263,331.87 2263.53,331.627C2264.34,331.257 2265.25,331.423 2266.07,331.86C2266.77,332.237 2267.38,332.8 2267.72,333.177C2267.93,333.421 2268.05,333.628 2268.09,333.723C2270.37,339.408 2276.14,344.254 2281.9,348.492C2287.88,352.882 2293.87,356.635 2296.35,359.89C2304.48,370.57 2305.49,369.515 2315.28,378.813C2316.2,379.682 2315.69,380.105 2325.66,390.692C2346.29,412.611 2354.83,421.225 2358.65,425.5C2361.34,428.497 2361.8,429.476 2362.38,431.212C2362.7,432.162 2362.66,432.808 2362.38,433.221C2362.11,433.612 2361.51,433.95 2360.26,433.993C2356.35,434.127 2343.78,432.3 2308.57,433.976C2276.11,435.522 2266.96,449.06 2258.1,454.865C2253.78,457.693 2251.08,461.554 2248.18,465.286C2243.62,471.145 2238.62,476.716 2226.87,478.022C2223.62,478.382 2223.8,479.436 2216.07,479.194C2206.73,478.903 2202.99,478.777 2201.23,478.58C2200.4,478.487 2199.95,478.377 2199.61,478.234L2199.35,478.278L2199.08,478.237L2198.84,478.116L2198.62,477.89L2198.52,477.677L2198.47,477.407L2198.53,477.09L2198.72,476.728C2198.91,476.443 2199.25,476.312 2199.57,476.376ZM2201.59,476.943C2201.83,476.967 2202.11,476.99 2202.44,477.014C2204.52,477.162 2208.39,477.287 2216.12,477.529C2223.68,477.765 2223.51,476.718 2226.68,476.365C2237.82,475.127 2242.55,469.816 2246.86,464.264C2249.87,460.389 2252.7,456.407 2257.18,453.471C2266.19,447.573 2275.51,433.882 2308.49,432.312C2338.73,430.872 2352.3,432.011 2358.03,432.281C2359.12,432.333 2359.92,432.354 2360.49,432.312C2360.64,432.301 2360.82,432.267 2360.93,432.242C2360.91,432.111 2360.86,431.91 2360.8,431.739C2360.28,430.175 2359.83,429.312 2357.41,426.612C2353.59,422.34 2345.05,413.734 2324.44,391.835C2314.54,381.31 2315.04,380.885 2314.13,380.021C2304.25,370.631 2303.24,371.687 2295.02,360.9C2292.61,357.728 2286.74,354.113 2280.92,349.835C2274.91,345.422 2268.97,340.322 2266.57,334.408C2266.48,334.303 2265.86,333.639 2265.28,333.328C2264.94,333.145 2264.57,332.986 2264.23,333.141C2263.91,333.288 2263.68,333.673 2263.49,334.326C2263.22,335.24 2263.09,336.585 2263.15,338.511C2263.41,347.117 2261.2,359.746 2263.47,375.628C2266.63,397.737 2262.03,399.266 2256.59,414.24C2252.97,424.207 2243.54,435.263 2234.6,444.418C2225.81,453.432 2217.51,460.576 2215.96,462.963C2213.95,466.076 2207.52,472.044 2203.4,475.487C2202.73,476.045 2202.12,476.536 2201.59,476.943Z"/>
            </g>
            <g transform="matrix(1,0,0,1,-628.564,-304.582)">
                <path d="M2169.68,701.767C2170.45,700.31 2172.08,698.178 2184.01,688.818C2184.23,688.647 2184.51,688.596 2184.78,688.679C2185.04,688.762 2185.24,688.97 2185.32,689.234C2185.55,689.979 2186.98,694.827 2186.44,699.001C2186.05,702.027 2184.65,704.689 2181.29,705.527C2175.42,706.996 2170.79,703.869 2169.88,703.193C2169.81,703.154 2169.74,703.104 2169.68,703.043L2169.54,702.89L2169.4,702.577L2169.39,702.223L2169.46,702.041L2169.57,701.855L2169.68,701.767ZM2171.35,702.201C2172.73,703.136 2176.26,705.067 2180.89,703.91C2183.49,703.261 2184.49,701.131 2184.79,698.787C2185.17,695.891 2184.5,692.647 2184.06,690.901C2174.27,698.619 2172.19,700.841 2171.35,702.201Z"/>
            </g>
            <g transform="matrix(1,0,0,1,-659.998,-273.873)">
                <path d="M2245.72,582.637C2246.05,582.314 2246.58,582.316 2246.9,582.643C2247.22,582.97 2247.22,583.498 2246.89,583.822C2241.6,589.065 2240.74,589.33 2234.92,594.818C2233.59,596.076 2224.19,606.399 2221.45,609.263C2221.13,609.595 2220.61,609.607 2220.27,609.289C2219.94,608.971 2219.93,608.443 2220.25,608.111C2223,605.234 2232.44,594.869 2233.78,593.605C2239.59,588.131 2240.44,587.868 2245.72,582.637Z"/>
            </g>
            <g transform="matrix(1,0,0,1,-659.998,-273.873)">
                <path d="M2221.24,607.118C2221.62,606.863 2222.14,606.967 2222.39,607.35C2222.65,607.732 2222.54,608.25 2222.16,608.505C2220.41,609.67 2182.21,647.844 2180.55,649.712C2180.24,650.055 2179.71,650.085 2179.37,649.779C2179.03,649.473 2179,648.946 2179.3,648.603C2180.98,646.721 2219.48,608.291 2221.24,607.118Z"/>
            </g>
            <g transform="matrix(1,0,0,1,-659.998,-273.873)">
                <path d="M2180.76,646.816C2181.1,646.506 2181.63,646.528 2181.94,646.868C2182.25,647.207 2182.22,647.734 2181.89,648.045C2166.93,661.759 2131.67,701.087 2122.78,707.754C2121.15,708.977 2112.69,716.249 2102.19,716.869C2101.73,716.896 2101.34,716.545 2101.31,716.086C2101.28,715.627 2101.64,715.232 2102.09,715.205C2112.15,714.612 2120.22,707.591 2121.78,706.42C2130.65,699.767 2165.83,660.504 2180.76,646.816Z"/>
            </g>
            <g transform="matrix(1,0,0,1,-659.998,-273.873)">
                <path d="M2103.94,715.053C2104.4,715.029 2104.8,715.383 2104.82,715.842C2104.84,716.301 2104.49,716.693 2104.03,716.717C2097.23,717.07 2096.56,717.187 2089.74,716.662C2068.94,715.062 2058.19,696.086 2057.37,693.36C2053.45,680.29 2055.42,680.727 2053.91,667.155C2053.87,666.698 2054.2,666.286 2054.65,666.235C2055.11,666.184 2055.52,666.514 2055.57,666.971C2057.06,680.388 2055.09,679.96 2058.97,692.881C2059.75,695.479 2070.05,713.476 2089.86,715.001C2096.59,715.518 2097.25,715.4 2103.94,715.053Z"/>
            </g>
            <g transform="matrix(1,0,0,1,-659.998,-273.873)">
                <path d="M2032.83,689.884C2032.49,690.19 2031.96,690.159 2031.66,689.815C2031.35,689.471 2031.38,688.944 2031.73,688.639C2036.73,684.195 2036.13,683.747 2040.86,679.025C2041.9,677.979 2049.73,670.151 2054.25,666.278C2054.6,665.979 2055.12,666.02 2055.43,666.369C2055.72,666.718 2055.68,667.245 2055.33,667.544C2050.85,671.389 2043.07,679.164 2042.04,680.203C2037.28,684.961 2037.87,685.408 2032.83,689.884Z"/>
            </g>
            <g transform="matrix(1,0,0,1,-659.998,-273.873)">
                <path d="M2031.54,689.159C2031.57,688.701 2031.97,688.358 2032.43,688.393C2032.89,688.429 2033.23,688.83 2033.2,689.289C2032.64,696.422 2037.88,707.919 2047.31,718.307C2061.55,734.007 2085.46,747.131 2114.05,738.79C2131.51,733.699 2130.53,731.706 2148,716.925C2151.25,714.173 2155.56,710.452 2157.12,708.232C2157.39,707.856 2157.91,707.766 2158.28,708.031C2158.66,708.296 2158.75,708.816 2158.48,709.192C2156.87,711.486 2152.43,715.353 2149.07,718.197C2131.31,733.231 2132.27,735.212 2114.52,740.39C2085.2,748.942 2060.68,735.524 2046.07,719.427C2036.26,708.617 2030.96,696.582 2031.54,689.159Z"/>
            </g>
            <g transform="matrix(1,0,0,1,-659.998,-273.873)">
                <path d="M2156.74,711.203C2156.47,711.577 2155.95,711.663 2155.58,711.395C2155.2,711.127 2155.12,710.606 2155.39,710.232C2156.16,709.154 2155.72,709.517 2215.8,649.438C2216.13,649.113 2216.65,649.113 2216.98,649.438C2217.3,649.764 2217.3,650.292 2216.98,650.617C2157.09,710.505 2157.51,710.128 2156.74,711.203Z"/>
            </g>
            <g transform="matrix(1,0,0,1,-659.998,-273.873)">
                <path d="M2214.43,652.768C2214.29,653.109 2213.93,653.327 2213.55,653.276C2213.09,653.215 2212.77,652.795 2212.83,652.34L2212.89,652.11L2213.04,651.851C2213.21,651.588 2213.69,651.044 2214.38,650.325C2217.61,646.969 2225.6,639.414 2226.21,638.873C2241.24,625.513 2262.64,605.081 2271.43,595.47C2273.52,593.174 2274.89,591.543 2275.2,590.806C2275.37,590.382 2275.86,590.18 2276.29,590.356C2276.71,590.533 2276.91,591.021 2276.74,591.446C2276.4,592.252 2274.95,594.079 2272.66,596.594C2263.85,606.232 2242.39,626.722 2227.32,640.119C2226.71,640.656 2218.78,648.15 2215.59,651.479C2215.04,652.047 2214.51,652.671 2214.43,652.768Z"/>
            </g>
            <g transform="matrix(1,0,0,1,-659.998,-273.873)">
                <path d="M2287.82,548.272C2287.82,548.307 2287.83,548.399 2287.83,548.485C2287.92,550.144 2288.39,558.302 2285.49,569.16C2281.42,584.441 2276.04,592.358 2274.82,594.158C2274.56,594.538 2274.04,594.638 2273.66,594.38C2273.28,594.121 2273.18,593.603 2273.44,593.222C2274.64,591.459 2279.89,583.699 2283.88,568.731C2286.7,558.145 2286.25,550.191 2286.17,548.574C2286.15,548.244 2286.17,548.058 2286.18,548.025C2286.29,547.578 2286.74,547.307 2287.19,547.418C2287.58,547.517 2287.84,547.881 2287.82,548.272Z"/>
            </g>
            <g transform="matrix(1,0,0,1,-659.998,-273.873)">
                <path d="M2287.93,551.3C2287.95,551.76 2287.6,552.152 2287.14,552.175C2286.68,552.199 2286.28,551.845 2286.26,551.386C2285.28,532.263 2286.24,520.07 2264.15,499.818C2262.14,497.975 2251.72,491.736 2250.61,491.073C2244.51,487.413 2211.7,477.899 2184.62,496.475C2177.95,501.055 2171.68,506.546 2163.42,515.362C2163.1,515.697 2162.58,515.715 2162.24,515.4C2161.91,515.086 2161.89,514.558 2162.2,514.222C2170.57,505.294 2176.92,499.739 2183.68,495.101C2211.49,476.02 2245.2,485.884 2251.47,489.643C2252.6,490.32 2263.22,496.708 2265.27,498.59C2287.86,519.297 2286.92,531.748 2287.93,551.3Z"/>
            </g>
            <g transform="matrix(1,0,0,1,-659.998,-273.873)">
                <path d="M2163.27,513.166C2163.65,512.911 2164.17,513.014 2164.42,513.397C2164.68,513.78 2164.57,514.297 2164.19,514.552C2162.46,515.707 2109.68,568.175 2109.4,568.503C2109.1,568.853 2108.58,568.893 2108.23,568.594C2107.88,568.294 2107.84,567.768 2108.14,567.419C2108.42,567.089 2161.53,514.327 2163.27,513.166Z"/>
            </g>
            <g transform="matrix(1,0,0,1,-659.998,-273.873)">
                <path d="M2111.37,566.239C2111.3,566.305 2110.89,566.735 2110.36,567.31C2104.33,573.799 2074.72,606.132 2068.59,611.82C2054.56,624.851 2037.43,644.126 2031.29,650.264C2030.97,650.589 2030.44,650.589 2030.11,650.264C2029.79,649.939 2029.79,649.411 2030.11,649.085C2036.26,642.941 2053.41,623.645 2067.46,610.599C2073.57,604.922 2103.12,572.651 2109.14,566.176C2109.76,565.505 2110.14,565.102 2110.23,565.02L2110.46,564.857C2110.88,564.661 2111.38,564.839 2111.57,565.255C2111.74,565.6 2111.64,566.001 2111.37,566.239Z"/>
            </g>
            <g transform="matrix(1,0,0,1,-659.998,-273.873)">
                <path d="M2031.47,647.411C2031.8,647.093 2032.33,647.104 2032.65,647.436C2032.96,647.769 2032.95,648.296 2032.62,648.615C2031.92,649.286 2026.68,654.302 2024.2,657.337C2024.18,657.362 2013.35,668.732 2005.89,676.138C2005.56,676.462 2005.03,676.46 2004.71,676.134C2004.38,675.807 2004.39,675.279 2004.71,674.955C2012.13,667.598 2022.89,656.306 2022.91,656.281C2025.43,653.197 2030.76,648.094 2031.47,647.411Z"/>
            </g>
            <g transform="matrix(1,0,0,1,-659.998,-273.873)">
                <path d="M2005.27,674.457C2005.48,674.109 2005.92,673.955 2006.31,674.114C2006.73,674.289 2006.93,674.777 2006.76,675.202L2006.6,675.468C2006.55,675.535 2006.48,675.617 2006.38,675.71C2006.13,675.947 2005.65,676.319 2004.97,676.83C2001.31,679.584 1991.36,686.718 1978.99,700.071C1973.49,706.012 1973.04,705.995 1968.58,710.066C1962.5,715.597 1962.84,715.777 1955.93,721.82C1950.42,726.639 1929.16,736.608 1926.31,738.506C1925.93,738.761 1925.41,738.658 1925.16,738.275C1924.9,737.893 1925.01,737.375 1925.39,737.12C1928.22,735.234 1949.36,725.354 1954.83,720.566C1961.73,714.535 1961.39,714.355 1967.45,708.834C1971.88,704.802 1972.32,704.822 1977.77,698.939C1990.24,685.471 2000.28,678.276 2003.97,675.498C2004.61,675.022 2005.2,674.519 2005.27,674.457Z"/>
            </g>
            <g transform="matrix(1,0,0,1,-659.998,-273.873)">
                <path d="M2059.35,596.25C2059.32,596.318 2059.29,596.383 2059.24,596.445C2057.75,598.434 2056.28,599.109 2055.05,599.07C2053.17,599.01 2051.61,597.225 2050.95,594.987C2050.25,592.575 2050.62,589.768 2052.34,588.48C2057.99,584.242 2066.66,573.708 2072.42,570.299C2074.22,569.234 2075.81,568.863 2077,569.285C2077.8,569.569 2078.47,570.187 2078.94,571.262C2079.5,572.566 2079.77,574.652 2079.59,577.724L2079.49,578.066L2079.32,578.296C2079.27,578.341 2079.04,578.476 2078.68,578.6C2078.44,578.684 2078.09,578.81 2077.79,579.001C2077.7,579.056 2077.62,579.115 2077.56,579.184C2077.53,579.217 2077.49,579.247 2077.49,579.292C2077.47,579.457 2077.62,579.613 2077.86,579.848C2079.34,581.325 2080.43,582.568 2081.14,583.673C2081.95,584.923 2082.29,586.031 2082.22,587.096C2082.14,588.164 2081.66,589.211 2080.69,590.331C2079.83,591.321 2078.58,592.391 2076.92,593.637C2073.36,596.307 2071.3,598.58 2069.72,599.561C2068.9,600.074 2068.16,600.274 2067.44,600.168C2066.47,600.024 2065.45,599.257 2064.25,597.469C2063.14,595.798 2062.11,595.258 2061.17,595.352C2060.44,595.425 2059.81,595.833 2059.35,596.25ZM2057.03,596.462L2057.04,596.422L2057.11,596.283C2057.14,596.241 2057.16,596.202 2057.2,596.166C2057.53,595.716 2059.03,593.891 2061,593.693C2062.37,593.557 2064.02,594.113 2065.64,596.544C2066.09,597.223 2066.49,597.727 2066.88,598.072C2067.16,598.323 2067.42,598.479 2067.68,598.519C2067.94,598.557 2068.19,598.484 2068.47,598.352C2068.87,598.164 2069.29,597.861 2069.77,597.474C2071.21,596.308 2073.08,594.431 2075.92,592.304C2077.46,591.146 2078.63,590.161 2079.43,589.241C2080.11,588.451 2080.5,587.736 2080.55,586.983C2080.61,586.229 2080.31,585.461 2079.74,584.577C2079.08,583.549 2078.05,582.4 2076.68,581.026C2075.85,580.194 2075.74,579.468 2075.86,578.912C2075.99,578.376 2076.38,577.921 2076.9,577.593C2077.21,577.397 2077.64,577.215 2077.95,577.094C2078.04,575.081 2077.92,573.575 2077.61,572.5C2077.35,571.604 2076.99,571.052 2076.44,570.856C2075.6,570.559 2074.53,570.987 2073.27,571.734C2067.54,575.12 2058.95,585.604 2053.34,589.813C2052.89,590.149 2052.61,590.654 2052.45,591.229C2052.16,592.227 2052.23,593.43 2052.55,594.519C2052.79,595.325 2053.16,596.072 2053.65,596.619C2054.05,597.071 2054.54,597.386 2055.1,597.404C2055.7,597.423 2056.34,597.125 2057.03,596.462Z"/>
            </g>
            <g transform="matrix(1,0,0,1,-628.795,-305.156)">
                <path d="M2059.35,596.25C2059.32,596.318 2059.29,596.383 2059.24,596.445C2057.75,598.434 2056.28,599.109 2055.05,599.07C2053.17,599.01 2051.61,597.225 2050.95,594.987C2050.25,592.575 2050.62,589.768 2052.34,588.48C2057.99,584.242 2066.66,573.708 2072.42,570.299C2074.22,569.234 2075.81,568.863 2077,569.285C2077.8,569.569 2078.47,570.187 2078.94,571.262C2079.5,572.566 2079.77,574.652 2079.59,577.724L2079.49,578.066L2079.32,578.296C2079.27,578.341 2079.04,578.476 2078.68,578.6C2078.44,578.684 2078.09,578.81 2077.79,579.001C2077.7,579.056 2077.62,579.115 2077.56,579.184C2077.53,579.217 2077.49,579.247 2077.49,579.292C2077.47,579.457 2077.62,579.613 2077.86,579.848C2079.34,581.325 2080.43,582.568 2081.14,583.673C2081.95,584.923 2082.29,586.031 2082.22,587.096C2082.14,588.164 2081.66,589.211 2080.69,590.331C2079.83,591.321 2078.58,592.391 2076.92,593.637C2073.36,596.307 2071.3,598.58 2069.72,599.561C2068.9,600.074 2068.16,600.274 2067.44,600.168C2066.47,600.024 2065.45,599.257 2064.25,597.469C2063.14,595.798 2062.11,595.258 2061.17,595.352C2060.44,595.425 2059.81,595.833 2059.35,596.25ZM2057.03,596.462L2057.04,596.422L2057.11,596.283C2057.14,596.241 2057.16,596.202 2057.2,596.166C2057.53,595.716 2059.03,593.891 2061,593.693C2062.37,593.557 2064.02,594.113 2065.64,596.544C2066.09,597.223 2066.49,597.727 2066.88,598.072C2067.16,598.323 2067.42,598.479 2067.68,598.519C2067.94,598.557 2068.19,598.484 2068.47,598.352C2068.87,598.164 2069.29,597.861 2069.77,597.474C2071.21,596.308 2073.08,594.431 2075.92,592.304C2077.46,591.146 2078.63,590.161 2079.43,589.241C2080.11,588.451 2080.5,587.736 2080.55,586.983C2080.61,586.229 2080.31,585.461 2079.74,584.577C2079.08,583.549 2078.05,582.4 2076.68,581.026C2075.85,580.194 2075.74,579.468 2075.86,578.912C2075.99,578.376 2076.38,577.921 2076.9,577.593C2077.21,577.397 2077.64,577.215 2077.95,577.094C2078.04,575.081 2077.92,573.575 2077.61,572.5C2077.35,571.604 2076.99,571.052 2076.44,570.856C2075.6,570.559 2074.53,570.987 2073.27,571.734C2067.54,575.12 2058.95,585.604 2053.34,589.813C2052.89,590.149 2052.61,590.654 2052.45,591.229C2052.16,592.227 2052.23,593.43 2052.55,594.519C2052.79,595.325 2053.16,596.072 2053.65,596.619C2054.05,597.071 2054.54,597.386 2055.1,597.404C2055.7,597.423 2056.34,597.125 2057.03,596.462Z"/>
            </g>
            <g transform="matrix(1,0,0,1,-598.474,-336.171)">
                <path d="M2059.35,596.25C2059.32,596.318 2059.29,596.383 2059.24,596.445C2057.75,598.434 2056.28,599.109 2055.05,599.07C2053.17,599.01 2051.61,597.225 2050.95,594.987C2050.25,592.575 2050.62,589.768 2052.34,588.48C2057.99,584.242 2066.66,573.708 2072.42,570.299C2074.22,569.234 2075.81,568.863 2077,569.285C2077.8,569.569 2078.47,570.187 2078.94,571.262C2079.5,572.566 2079.77,574.652 2079.59,577.724L2079.49,578.066L2079.32,578.296C2079.27,578.341 2079.04,578.476 2078.68,578.6C2078.44,578.684 2078.09,578.81 2077.79,579.001C2077.7,579.056 2077.62,579.115 2077.56,579.184C2077.53,579.217 2077.49,579.247 2077.49,579.292C2077.47,579.457 2077.62,579.613 2077.86,579.848C2079.34,581.325 2080.43,582.568 2081.14,583.673C2081.95,584.923 2082.29,586.031 2082.22,587.096C2082.14,588.164 2081.66,589.211 2080.69,590.331C2079.83,591.321 2078.58,592.391 2076.92,593.637C2073.36,596.307 2071.3,598.58 2069.72,599.561C2068.9,600.074 2068.16,600.274 2067.44,600.168C2066.47,600.024 2065.45,599.257 2064.25,597.469C2063.14,595.798 2062.11,595.258 2061.17,595.352C2060.44,595.425 2059.81,595.833 2059.35,596.25ZM2057.03,596.462L2057.04,596.422L2057.11,596.283C2057.14,596.241 2057.16,596.202 2057.2,596.166C2057.53,595.716 2059.03,593.891 2061,593.693C2062.37,593.557 2064.02,594.113 2065.64,596.544C2066.09,597.223 2066.49,597.727 2066.88,598.072C2067.16,598.323 2067.42,598.479 2067.68,598.519C2067.94,598.557 2068.19,598.484 2068.47,598.352C2068.87,598.164 2069.29,597.861 2069.77,597.474C2071.21,596.308 2073.08,594.431 2075.92,592.304C2077.46,591.146 2078.63,590.161 2079.43,589.241C2080.11,588.451 2080.5,587.736 2080.55,586.983C2080.61,586.229 2080.31,585.461 2079.74,584.577C2079.08,583.549 2078.05,582.4 2076.68,581.026C2075.85,580.194 2075.74,579.468 2075.86,578.912C2075.99,578.376 2076.38,577.921 2076.9,577.593C2077.21,577.397 2077.64,577.215 2077.95,577.094C2078.04,575.081 2077.92,573.575 2077.61,572.5C2077.35,571.604 2076.99,571.052 2076.44,570.856C2075.6,570.559 2074.53,570.987 2073.27,571.734C2067.54,575.12 2058.95,585.604 2053.34,589.813C2052.89,590.149 2052.61,590.654 2052.45,591.229C2052.16,592.227 2052.23,593.43 2052.55,594.519C2052.79,595.325 2053.16,596.072 2053.65,596.619C2054.05,597.071 2054.54,597.386 2055.1,597.404C2055.7,597.423 2056.34,597.125 2057.03,596.462Z"/>
            </g>
            <g transform="matrix(1,0,0,1,-659.998,-273.873)">
                <path d="M2093.58,627.157C2093.51,627.115 2093.44,627.063 2093.39,627.003C2093.07,627.059 2092.74,626.928 2092.55,626.644C2092.29,626.262 2092.4,625.744 2092.78,625.489C2100.79,620.146 2100.46,619.994 2106.68,612.542C2106.82,612.371 2107.03,612.264 2107.25,612.245C2107.47,612.227 2107.69,612.298 2107.86,612.444C2116.77,620.087 2126.96,630.279 2128.57,631.886C2155.14,658.453 2155.67,659.415 2157.35,662.314C2157.55,662.659 2157.47,663.097 2157.17,663.36C2153.94,666.179 2154.32,666.364 2151.51,669.528C2148.76,672.625 2146.52,674.172 2145.35,674.836C2144.7,675.206 2144.28,675.328 2144.19,675.339L2143.96,675.342L2143.71,675.29C2143.59,675.252 2143.44,675.184 2143.26,675.078C2142.45,674.615 2140.74,673.187 2138.42,671.08C2127.16,660.84 2100.97,634.31 2094.76,628.265C2094.2,627.726 2093.72,627.279 2093.58,627.157ZM2094.87,626.091C2095.13,626.322 2095.49,626.65 2095.92,627.07C2102.13,633.109 2128.29,659.616 2139.55,669.846C2141.63,671.745 2143.61,673.247 2144.1,673.614C2144.93,673.222 2147.24,671.815 2150.26,668.421C2152.99,665.357 2152.8,665.024 2155.56,662.561C2154.03,660.023 2151.83,657.502 2127.39,633.064C2125.83,631.503 2116.12,621.8 2107.42,614.26C2101.89,620.901 2101.68,621.51 2094.87,626.091ZM2094.69,626.9C2094.77,626.782 2094.83,626.631 2094.83,626.434C2094.83,626.607 2094.78,626.767 2094.69,626.9Z"/>
            </g>
            <g transform="matrix(1,0,0,1,-598.327,-335.791)">
                <path d="M2093.58,627.157C2093.51,627.115 2093.44,627.063 2093.39,627.003C2093.07,627.059 2092.74,626.928 2092.55,626.644C2092.29,626.262 2092.4,625.744 2092.78,625.489C2100.79,620.146 2100.46,619.994 2106.68,612.542C2106.82,612.371 2107.03,612.264 2107.25,612.245C2107.47,612.227 2107.69,612.298 2107.86,612.444C2116.77,620.087 2126.96,630.279 2128.57,631.886C2155.14,658.453 2155.67,659.415 2157.35,662.314C2157.55,662.659 2157.47,663.097 2157.17,663.36C2153.94,666.179 2154.32,666.364 2151.51,669.528C2148.76,672.625 2146.52,674.172 2145.35,674.836C2144.7,675.206 2144.28,675.328 2144.19,675.339L2143.96,675.342L2143.71,675.29C2143.59,675.252 2143.44,675.184 2143.26,675.078C2142.45,674.615 2140.74,673.187 2138.42,671.08C2127.16,660.84 2100.97,634.31 2094.76,628.265C2094.2,627.726 2093.72,627.279 2093.58,627.157ZM2094.87,626.091C2095.13,626.322 2095.49,626.65 2095.92,627.07C2102.13,633.109 2128.29,659.616 2139.55,669.846C2141.63,671.745 2143.61,673.247 2144.1,673.614C2144.93,673.222 2147.24,671.815 2150.26,668.421C2152.99,665.357 2152.8,665.024 2155.56,662.561C2154.03,660.023 2151.83,657.502 2127.39,633.064C2125.83,631.503 2116.12,621.8 2107.42,614.26C2101.89,620.901 2101.68,621.51 2094.87,626.091ZM2094.69,626.9C2094.77,626.782 2094.83,626.631 2094.83,626.434C2094.83,626.607 2094.78,626.767 2094.69,626.9Z"/>
            </g>
            <g transform="matrix(1,0,0,1,-628.815,-304.91)">
                <path d="M2093.58,627.157C2093.51,627.115 2093.44,627.063 2093.39,627.003C2093.07,627.059 2092.74,626.928 2092.55,626.644C2092.29,626.262 2092.4,625.744 2092.78,625.489C2100.79,620.146 2100.46,619.994 2106.68,612.542C2106.82,612.371 2107.03,612.264 2107.25,612.245C2107.47,612.227 2107.69,612.298 2107.86,612.444C2116.77,620.087 2126.96,630.279 2128.57,631.886C2155.14,658.453 2155.67,659.415 2157.35,662.314C2157.55,662.659 2157.47,663.097 2157.17,663.36C2153.94,666.179 2154.32,666.364 2151.51,669.528C2148.76,672.625 2146.52,674.172 2145.35,674.836C2144.7,675.206 2144.28,675.328 2144.19,675.339L2143.96,675.342L2143.71,675.29C2143.59,675.252 2143.44,675.184 2143.26,675.078C2142.45,674.615 2140.74,673.187 2138.42,671.08C2127.16,660.84 2100.97,634.31 2094.76,628.265C2094.2,627.726 2093.72,627.279 2093.58,627.157ZM2094.87,626.091C2095.13,626.322 2095.49,626.65 2095.92,627.07C2102.13,633.109 2128.29,659.616 2139.55,669.846C2141.63,671.745 2143.61,673.247 2144.1,673.614C2144.93,673.222 2147.24,671.815 2150.26,668.421C2152.99,665.357 2152.8,665.024 2155.56,662.561C2154.03,660.023 2151.83,657.502 2127.39,633.064C2125.83,631.503 2116.12,621.8 2107.42,614.26C2101.89,620.901 2101.68,621.51 2094.87,626.091ZM2094.69,626.9C2094.77,626.782 2094.83,626.631 2094.83,626.434C2094.83,626.607 2094.78,626.767 2094.69,626.9Z"/>
            </g>
            <g transform="matrix(1,0,0,1,-659.998,-273.873)">
                <path d="M1925.94,738.642C1925.88,738.761 1925.78,738.978 1925.75,739.173C1925.53,740.345 1925.98,742.248 1928,743.98C1929.73,745.466 1953.28,769.281 1953.87,769.727C1954.13,769.922 1955.1,770.384 1956.18,769.871C1957.05,769.46 1957.94,768.482 1958.74,766.546C1959.29,765.208 1959.78,763.441 1960.15,761.122C1960.22,760.668 1960.65,760.359 1961.11,760.433C1961.56,760.506 1961.87,760.934 1961.8,761.388C1960.76,767.806 1958.8,770.344 1957.12,771.26C1955.14,772.346 1953.35,771.413 1952.87,771.06C1952.28,770.613 1928.65,746.736 1926.91,745.246C1923.78,742.563 1923.74,739.469 1924.34,738.087C1924.58,737.546 1924.93,737.205 1925.27,737.051L1925.53,736.964L1925.81,736.932L1926.1,736.964L1926.37,737.058C1926.78,737.255 1926.96,737.752 1926.76,738.167C1926.61,738.489 1926.28,738.668 1925.94,738.642Z"/>
            </g>
            <g transform="matrix(1,0,0,1,-659.998,-273.873)">
                <path d="M1960.99,765.464C1960.94,765.922 1960.54,766.26 1960.08,766.217C1959.62,766.174 1959.28,765.768 1959.33,765.31C1959.47,763.812 1959.88,759.088 1966.16,747.793C1972.26,736.807 2027.23,685.156 2028.33,684.053C2028.66,683.728 2029.19,683.728 2029.51,684.053C2029.84,684.379 2029.84,684.907 2029.51,685.232C2028.41,686.329 1973.68,737.673 1967.61,748.602C1961.57,759.486 1961.12,764.021 1960.99,765.464Z"/>
            </g>
            <g transform="matrix(1,0,0,1,-659.998,-273.873)">
                <path d="M2077.33,634.388C2077.58,634.101 2077.99,634.005 2078.34,634.18C2078.75,634.386 2078.92,634.887 2078.72,635.298C2078.71,635.31 2078.46,635.626 2077.97,636.145C2074.54,639.807 2057.5,657.777 2057.32,658.023C2053.52,663.251 2041.59,673.106 2039.88,675.026C2034.58,680.989 2029.4,684.938 2028.43,685.921C2028.41,685.964 2028.39,686.007 2028.36,686.047C2028.11,686.432 2027.59,686.541 2027.21,686.289L2027.07,686.173L2026.94,686.016L2026.83,685.668L2026.87,685.298L2026.96,685.091L2027.14,684.855C2027.94,683.985 2033.23,680.002 2038.64,673.919C2040.33,672.012 2052.2,662.236 2055.98,657.043C2056.16,656.796 2073.3,638.691 2076.76,635.004C2077.09,634.65 2077.33,634.388 2077.33,634.388ZM2028.42,685.245C2028.36,685.102 2028.26,684.985 2028.12,684.894C2028.26,684.983 2028.36,685.107 2028.42,685.245Z"/>
            </g>
            <g transform="matrix(1,0,0,1,-659.998,-273.873)">
                <path d="M2076.2,636.147C2076.2,636.139 2076.2,636.132 2076.2,636.124C2076.26,635.731 2076.6,635.551 2077.02,637.074C2077.02,637.074 2077.03,637.073 2077.05,637.072L2077.02,637.098C2076.56,637.098 2076.19,636.725 2076.19,636.265C2076.19,636.224 2076.19,636.185 2076.2,636.147ZM2077.05,637.072L2077.85,636.358C2077.76,636.975 2077.18,637.061 2077.05,637.072Z"/>
            </g>
            <g transform="matrix(1,0,0,1,-659.998,-273.873)">
                <path d="M2077.19,636.752C2077.12,636.977 2076.97,637.175 2076.74,637.283L2076.4,637.371L2076.04,637.309L2075.84,637.195L2075.67,637.023L2075.56,636.795L2075.51,636.527L2075.59,636.169C2075.62,636.09 2075.71,635.935 2075.88,635.722C2077.5,633.607 2089.1,621.14 2099.67,611.664C2100.01,611.357 2100.54,611.386 2100.85,611.729C2101.16,612.071 2101.13,612.598 2100.78,612.905C2090.31,622.294 2078.8,634.639 2077.2,636.735C2077.19,636.741 2077.19,636.746 2077.19,636.752ZM2076.22,635.712C2076.16,635.723 2076.1,635.744 2076.03,635.778C2076.09,635.747 2076.16,635.725 2076.22,635.712Z"/>
            </g>
            <g transform="matrix(1,0,0,1,-659.998,-273.873)">
                <path d="M2099.52,614.285C2099.22,614.631 2098.69,614.666 2098.34,614.364C2097.99,614.061 2097.96,613.534 2098.26,613.188C2105.11,605.362 2108.64,604.025 2124.41,586.789C2124.72,586.45 2125.25,586.427 2125.59,586.737C2125.93,587.048 2125.95,587.575 2125.64,587.914C2109.88,605.133 2106.36,606.467 2099.52,614.285Z"/>
            </g>
            <g transform="matrix(1,0,0,1,-659.998,-273.873)">
                <path d="M2124.64,589.111C2124.34,589.457 2123.81,589.492 2123.47,589.189C2123.12,588.886 2123.09,588.359 2123.39,588.013C2137.72,571.64 2166.73,544.997 2172.06,539.049C2172.36,538.707 2172.89,538.677 2173.23,538.984C2173.57,539.291 2173.61,539.818 2173.3,540.161C2167.98,546.107 2138.97,572.742 2124.64,589.111Z"/>
            </g>
            <g transform="matrix(1,0,0,1,-659.998,-273.873)">
                <path d="M2172.53,541.039C2172.24,541.389 2171.71,541.432 2171.36,541.135C2171.01,540.837 2170.97,540.311 2171.26,539.96C2172.72,538.243 2173.03,538.593 2191.37,520.26C2193.7,517.93 2209.03,499.128 2242.59,509.454C2248.78,511.358 2249.22,512.28 2253.15,516.972C2254.7,518.821 2258.33,523.548 2260.6,527.379C2261.62,529.108 2262.36,530.671 2262.57,531.741C2264.96,544.307 2265.36,544.313 2263.83,557.056C2262.68,566.626 2255.74,573.294 2252.81,577.299C2252.57,577.622 2249.23,580.848 2246.45,584.167C2246.16,584.519 2245.63,584.566 2245.28,584.271C2244.93,583.976 2244.88,583.45 2245.18,583.097C2247.92,579.817 2251.23,576.636 2251.46,576.316C2254.28,572.456 2261.07,566.08 2262.18,556.858C2263.68,544.371 2263.27,544.366 2260.93,532.053C2260.75,531.111 2260.07,529.749 2259.17,528.228C2256.95,524.477 2253.39,519.851 2251.87,518.042C2248.23,513.692 2247.84,512.812 2242.1,511.047C2209.64,501.059 2194.8,519.185 2192.55,521.438C2174.3,539.683 2173.99,539.33 2172.53,541.039Z"/>
            </g>
        </g>
    </g>
</svg>
