<?xml version="1.0" encoding="UTF-8" standalone="no"?>
<!DOCTYPE svg PUBLIC "-//W3C//DTD SVG 1.1//EN" "http://www.w3.org/Graphics/SVG/1.1/DTD/svg11.dtd">
<svg width="100%" height="100%" viewBox="0 0 6497 4594" version="1.1" xmlns="http://www.w3.org/2000/svg" xmlns:xlink="http://www.w3.org/1999/xlink" xml:space="preserve" xmlns:serif="http://www.serif.com/" style="fill-rule:evenodd;clip-rule:evenodd;stroke-linejoin:round;stroke-miterlimit:2;">
    <path d="M2734.62,193.537C2730.49,182.1 2728.91,169.548 2730.5,156.662C2733.15,135.094 2735.76,122.866 2736.7,119.873L2753.9,89.747L2769.21,76.62L2786.9,67.868L2806.75,63.665L2828.47,64.853L2847.71,71.183L2862.05,79.967L2882.26,102.817L2891.93,128.168C2892.53,131.147 2893.82,142.297 2894.12,161.9C2895.83,271.492 2901.58,844.872 3142.07,1978.6C3164.41,2083.93 3156.87,2289.95 3231.39,3333.27C3241.93,3480.83 3276.44,3635.47 3296.94,3792.37C3319.06,3961.62 3325.07,4133.23 3276.84,4302.06C3264.71,4344.51 3220.39,4369.13 3177.94,4357C3135.48,4344.87 3110.86,4300.56 3122.99,4258.1C3165.1,4110.73 3157.6,3960.84 3138.29,3813.1C3117.37,3653.03 3082.55,3495.21 3071.8,3344.67C2998.48,2318.22 3007.53,2115.42 2985.55,2011.8C2757.57,937.007 2737.67,357.389 2734.62,193.537Z"/>
    <path d="M907.152,2859.52C864.051,2869.1 821.281,2841.88 811.703,2798.78C802.125,2755.68 829.342,2712.91 872.443,2703.33C1137.84,2644.35 1137.22,2712.37 1662.65,2447.55C2104.96,2224.62 2596.07,2141.37 3041.21,2100.67C3472.97,2061.18 3859.97,2062.7 4109.68,2007.8C4229.3,1981.5 4303.57,1948.8 4378.98,1915.02C4569.69,1829.61 4766.43,1734.97 5608.03,1703.04C5652.15,1701.36 5689.33,1735.82 5691,1779.94C5692.68,1824.07 5658.22,1861.25 5614.1,1862.92C4813.53,1893.3 4625.79,1979.8 4444.38,2061.05C4360.31,2098.7 4277.38,2134.76 4144.03,2164.07C3889.67,2219.99 3495.59,2219.78 3055.78,2260C2629.34,2299 2158.39,2376.87 1734.67,2590.43C1184.19,2867.88 1185.2,2797.73 907.152,2859.52Z"/>
    <path d="M3888.78,342.957C3900.91,300.503 3945.22,275.883 3987.68,288.013C4030.13,300.143 4054.75,344.458 4042.62,386.913C4012.82,491.232 4023.87,990.93 4047.46,1313.4C4056.73,1440.26 4064.54,1537.77 4077.39,1563.49C4097.14,1602.98 4081.11,1651.07 4041.62,1670.82C4002.13,1690.56 3954.03,1674.53 3934.29,1635.04C3918.28,1603.04 3899.43,1482.94 3887.88,1325.07C3862.89,983.243 3857.18,453.538 3888.78,342.957Z"/>
    <path d="M4292.05,1136.68C4267.41,1136.98 4175.17,1138.89 3997.29,1151.16C3953.24,1154.2 3915.01,1120.9 3911.98,1076.85C3908.94,1032.81 3942.24,994.577 3986.28,991.54C4188.18,977.616 4269.99,973.709 4307.51,976.7C4320.54,977.738 4330.46,979.536 4338.4,981.595L4360.1,989.412L4394.8,1014.78C4426.02,1046 4426.02,1096.7 4394.8,1127.92C4366.84,1155.88 4323.27,1158.8 4292.05,1136.68Z"/>
    <path d="M4463.45,462.96C4463.39,463.504 4463,466.511 4462.64,469.548C4456.62,519.628 4428.07,780.114 4439.73,992.882C4442.35,1040.68 4429.94,1109.8 4575.44,1575.4C4588.61,1617.55 4565.09,1662.45 4522.94,1675.62C4480.8,1688.79 4435.89,1665.27 4422.72,1623.13C4267.6,1126.73 4282.76,1052.6 4279.97,1001.64C4267.69,777.56 4297.44,503.214 4303.78,450.472C4304.66,443.106 4305.28,438.842 4305.42,438.046L4312.8,415.401L4327.2,395.231L4348.55,379.683C4388.04,359.937 4436.13,375.968 4455.88,415.46C4463.51,430.72 4465.8,447.263 4463.45,462.96Z"/>
    <path d="M1555.79,2090.93C1553.04,2134.99 1515.02,2168.53 1470.96,2165.78C1426.89,2163.03 1393.35,2125.01 1396.1,2080.95C1398.77,2038.32 1366.31,1798.47 1416.3,1559.9C1452.58,1386.78 1500.39,1212.44 1540.93,1104.34C1561.9,1048.42 1582.82,1007.95 1598.89,987.834C1626.46,953.34 1676.84,947.713 1711.33,975.275C1745.83,1002.84 1751.45,1053.22 1723.89,1087.71C1714.01,1100.08 1703.63,1126.14 1690.74,1160.51C1652.3,1263.05 1607.31,1428.51 1572.9,1592.71C1525.11,1820.79 1558.34,2050.17 1555.79,2090.93Z"/>
    <path d="M1619.05,1106.14C1607,1098.6 1596.8,1087.77 1589.99,1074.13L1581.52,1042.4L1583.38,1020.18L1590.83,1000.17L1608.32,977.977L1631.46,963.625L1655.62,957.992L1677.85,959.447L1700.2,967.647L1729.53,990.297C1820.45,1072.88 2318.34,1568.63 2394.92,1626.06C2430.24,1652.55 2437.41,1702.74 2410.92,1738.06C2384.42,1773.38 2334.24,1780.55 2298.92,1754.06C2221.1,1695.7 1714.36,1192.66 1621.96,1108.74C1621.03,1107.89 1620.02,1106.99 1619.05,1106.14ZM1741.55,1038.36C1741.74,1029.19 1740.29,1016.96 1733.1,1002.58C1738.85,1014.08 1741.56,1026.31 1741.55,1038.36Z"/>
    <path d="M1587.73,1495.43C1645.74,1492.06 1749.66,1478.73 1838.21,1451.31C1924.24,1424.66 1984.68,1356.04 1984.68,1356.04C2013.9,1322.94 2064.49,1319.78 2097.6,1349C2130.7,1378.21 2133.86,1428.81 2104.64,1461.91C2104.64,1461.91 2014.16,1564.31 1885.54,1604.14C1736.38,1650.35 1550.94,1658.97 1525.4,1653.25L1498.88,1642.6L1475.54,1620.96L1465.61,1602.64L1460.41,1578.94L1462.1,1556.55L1472.31,1531.3L1485.82,1514.77L1500.26,1503.89L1538.36,1490.23C1555.61,1486.54 1572.76,1488.73 1587.73,1495.43Z"/>
    <path d="M1920.54,3847.5C1962.86,3776.79 2013.67,3693.77 2074.62,3595.8C2051.87,3583.62 2029.76,3570.95 2008.63,3557.78C1819.7,3439.99 1712.93,3281.66 1810.81,3099.88L1830.85,3071.92L1856.33,3050.65C1871.64,3040.76 1889.6,3033.43 1910.19,3029.04C1963.56,3017.63 2046.1,3032.32 2130.53,3037.02C2193.81,3040.54 2251.89,3050.03 2296.32,3069.56C2337.66,3087.73 2369.23,3114.36 2389.6,3149.56C2409.31,3183.62 2419.5,3226.91 2411.72,3282.93C2403.51,3342.14 2372.68,3421.81 2306.65,3526.7C2306.38,3527.14 2306.1,3527.58 2305.82,3528.02C2427.98,3578.63 2546.5,3615.46 2609.76,3638.93C2655.16,3655.78 2681.78,3674.49 2689.64,3683.47C2787.77,3795.62 2772.14,3934.54 2684.09,4002.84C2652.78,4027.12 2609.88,4043.46 2558.14,4053.07C2500.56,4063.78 2429.58,4066.91 2356.12,4075.42C2240.96,4088.76 2111.73,4080.49 1989.66,4045.29C1948.32,4117.3 1919.78,4171.04 1900.32,4212.61C1860.24,4298.19 1868.06,4317.92 1872.06,4357.86C1876.45,4401.79 1844.35,4441.03 1800.41,4445.42C1756.48,4449.82 1717.24,4417.71 1712.85,4373.78C1706.56,4310.91 1692.33,4279.49 1755.42,4144.76C1774.24,4104.56 1801.26,4053.22 1839.75,3985.52C1806.12,3967.83 1773.95,3947.51 1743.81,3924.43C1674,3870.96 1615.94,3821.61 1573.11,3728.76C1554.62,3688.66 1572.16,3641.1 1612.25,3622.6C1652.35,3604.11 1699.91,3621.65 1718.4,3661.74C1748.57,3727.15 1791.92,3759.74 1841.1,3797.4C1866.01,3816.48 1892.66,3833.13 1920.54,3847.5ZM2220.16,3664.72C2162.97,3756.46 2114.69,3834.99 2073.97,3902.52C2162.91,3922.72 2254.91,3926.07 2337.71,3916.48C2396.69,3909.65 2454.01,3906.61 2503.59,3899.8C2537.41,3895.16 2566.93,3891.22 2586.02,3876.42C2594.07,3870.17 2596.92,3860.16 2596.75,3849.68C2596.47,3832.64 2589.14,3814.7 2576.38,3797.65C2522.39,3774.05 2373,3729.57 2220.16,3664.72ZM2159.59,3460C2163.44,3453.87 2167.32,3447.69 2171.24,3441.47C2213.43,3374.44 2238.86,3321.75 2249.51,3279.64C2255.03,3257.81 2258.02,3241.62 2251.12,3229.7C2245.23,3219.53 2233.06,3215.78 2219.93,3211.51C2191.94,3202.38 2157.92,3198.79 2121.63,3196.77C2067.98,3193.79 2015.26,3184.95 1972.2,3183.9C1964.21,3183.71 1953.37,3184.71 1946.89,3185.42C1924.72,3234.48 1937.29,3278.47 1968.09,3317.69C1998.26,3356.11 2042.65,3390.44 2093.28,3422C2114.46,3435.21 2136.69,3447.87 2159.59,3460Z"/>
    <path d="M4597.88,2830.98C4600.83,2871.12 4608.74,2965.14 4623.56,3053.22C4672.72,3345.52 4771.53,3775.87 4813.97,3860.74C4833.72,3900.23 4817.69,3948.33 4778.19,3968.07C4738.7,3987.82 4690.61,3971.79 4670.86,3932.29C4626.01,3842.59 4517.73,3388.69 4465.77,3079.76C4441.94,2938.05 4431.61,2824.66 4438.95,2783.11L4445.93,2758.19L4458.68,2735.69L4475.52,2718.87L4492.18,2708.97L4514.42,2702.4L4536.65,2701.93L4558.53,2707.23L4580.32,2719.12C4616.03,2745.09 4623.93,2795.16 4597.96,2830.87C4597.93,2830.91 4597.91,2830.94 4597.88,2830.98ZM4506.94,2859.37C4499.71,2856.85 4492.72,2853.24 4486.21,2848.51C4493.3,2853.67 4500.23,2857.17 4506.94,2859.37Z"/>
    <path d="M4015.16,2779.46C3971.31,2784.61 3931.53,2753.18 3926.39,2709.33C3921.24,2665.48 3952.67,2625.7 3996.52,2620.55C4193.01,2597.51 4225,2659.2 4785.2,2641.12C5007.16,2633.96 5089.9,2586.5 5262.89,2551.9C5306.19,2543.24 5348.37,2571.36 5357.03,2614.66C5365.68,2657.95 5337.56,2700.13 5294.27,2708.79C5111.91,2745.27 5024.34,2793.49 4790.36,2801.04C4239.7,2818.8 4208.3,2756.81 4015.16,2779.46Z"/>
</svg>
